<svg width="379" height="217" viewBox="0 0 379 217" fill="none" xmlns="http://www.w3.org/2000/svg">
<path d="M137.891 58C137.891 25.9675 163.859 0 195.891 0H202.794C234.827 0 260.794 25.9675 260.794 58V170.209C260.794 172.418 259.003 174.209 256.794 174.209H141.891C139.682 174.209 137.891 172.418 137.891 170.209V58Z" fill="#CFEBE5"/>
<path d="M145.347 58.9234C145.347 31.3091 167.733 8.92334 195.347 8.92334H203.328C230.942 8.92334 253.328 31.3091 253.328 58.9233V171.122C253.328 173.331 251.537 175.122 249.328 175.122H149.347C147.138 175.122 145.347 173.331 145.347 171.122V58.9234Z" fill="#C5CCD8"/>
<path d="M165.385 109.081C165.385 107.976 166.28 107.081 167.385 107.081H232.404C233.508 107.081 234.404 107.976 234.404 109.081V159.968C234.404 162.177 232.613 163.968 230.404 163.968H169.385C167.176 163.968 165.385 162.177 165.385 159.968V109.081Z" fill="#BBC3CF"/>
<path fill-rule="evenodd" clip-rule="evenodd" d="M194.834 23.9712C177.907 26.4348 164.906 41.0089 164.906 58.6196V90.944C164.906 93.1532 166.697 94.944 168.906 94.944H194.834V23.9712ZM205.919 94.944H230.936C233.146 94.944 234.936 93.1532 234.936 90.944V58.6196C234.936 41.3263 222.4 26.961 205.919 24.1161V94.944Z" fill="#BBC3CF"/>
<path d="M237.02 92.9399H246.827V115.224H237.02V92.9399Z" fill="#FAFAFA"/>
<path opacity="0.05" d="M246.827 99.0723L237.02 100.129V104.489L246.827 103.439V99.0723Z" fill="black"/>
<path d="M240.779 98.2445L245.273 101.582L247.072 99.8507L242.578 96.5132C242.352 96.3394 242.032 96.256 241.674 96.2977C240.967 96.3742 240.402 96.9235 240.402 97.5214C240.411 97.8135 240.553 98.0707 240.779 98.2445Z" fill="#E0E0E0"/>
<path opacity="0.1" d="M237.02 100.17L244.17 100.754V99.1691L245.913 98.9814L244.274 97.7646L237.02 98.5851V100.17Z" fill="black"/>
<path d="M222.294 102.083V105.559L247.845 102.736V99.2598L222.294 102.083Z" fill="#FAFAFA"/>
<path d="M222.294 102.082L220.664 100.866V104.349L222.294 105.559V102.082Z" fill="#E0E0E0"/>
<path d="M247.845 99.2597L246.205 98.043L220.664 100.866L222.294 102.083L247.845 99.2597Z" fill="#EBEBEB"/>
<path d="M240.089 107.799C240.089 107.003 240.609 106.063 241.583 106.063C243.077 106.063 243.568 106.987 243.568 107.765C243.568 108.342 243.153 109.157 242.569 109.435V111.576C242.569 111.84 242.313 111.972 242.013 111.972L241.812 111.972C241.519 111.972 241.269 111.832 241.269 111.576V109.435C240.685 109.296 240.089 108.383 240.089 107.799Z" fill="#455A64"/>
<path opacity="0.731934" d="M282.527 165.335C282.527 165.335 299.172 184.197 329.093 184.197C360.401 184.197 378.63 161.96 378.63 137.936C378.63 113.515 359.608 99.6167 340.189 96.8371L374.667 56.9294V40.8472H288.67V62.8857H330.678C339 62.8857 343.161 62.2901 343.161 62.2901V62.6872C343.161 62.6872 338.604 66.8566 333.056 73.4087L307.296 103.985L313.043 117.089H322.752C339.198 117.089 352.871 124.038 352.871 138.929C352.871 151.04 342.171 159.975 327.508 159.975C308.881 159.975 295.605 145.679 295.605 145.679L282.527 165.335Z" fill="url(#paint0_linear_218_8239)"/>
<path opacity="0.731934" d="M94.3093 178.45V141.433H113.086V119.789H94.3093V34.8315H63.083L0.630371 125.453V141.433H68.3894V178.45H94.3093ZM68.3718 119.88H28.1375V119.47L61.8029 73.0082C65.7032 67.4818 68.9876 59.7041 68.9876 59.7041H69.3982C69.3982 59.7041 68.3718 67.6865 68.3718 74.8503V119.88Z" fill="url(#paint1_linear_218_8239)"/>
<mask id="mask0_218_8239" style="mask-type:alpha" maskUnits="userSpaceOnUse" x="156" y="139" width="86" height="55">
<path d="M156.761 139.038L241.356 139.057L241.39 188.838C241.391 191.587 239.289 193.816 236.693 193.815L161.498 193.798C158.902 193.797 156.796 191.568 156.794 188.819L156.761 139.038Z" fill="white"/>
</mask>
<g mask="url(#mask0_218_8239)">
<path d="M156.761 139.038L241.356 139.057L241.39 188.838C241.391 191.587 239.289 193.816 236.693 193.815L161.498 193.798C158.902 193.797 156.796 191.568 156.794 188.819L156.761 139.038Z" fill="black"/>
<path d="M156.761 139.038L241.356 139.057L241.39 188.838C241.391 191.587 239.289 193.816 236.693 193.815L161.498 193.798C158.902 193.797 156.796 191.568 156.794 188.819L156.761 139.038Z" fill="#FEFEFE" stroke="#242A33" stroke-opacity="0.15"/>
<path d="M203.616 169.783C203.616 168.062 202.087 166.667 200.2 166.667C198.313 166.667 196.783 168.062 196.783 169.783L196.783 173.331C196.783 175.052 198.313 176.447 200.2 176.447C202.087 176.447 203.616 175.052 203.616 173.331L203.616 169.783Z" fill="#4E545C"/>
</g>
<path d="M161.462 124.619L236.653 124.632C239.248 124.632 241.354 127.212 241.356 130.393L241.361 139.034L156.771 139.02L156.766 130.379C156.764 127.198 158.866 124.619 161.462 124.619Z" fill="black"/>
<path d="M161.462 124.619L236.653 124.632C239.248 124.632 241.354 127.212 241.356 130.393L241.361 139.034L156.771 139.02L156.766 130.379C156.764 127.198 158.866 124.619 161.462 124.619Z" fill="#D1EEE8"/>
<path fill-rule="evenodd" clip-rule="evenodd" d="M192.549 151.489L192.815 151.492C193.787 151.504 194.573 152.291 194.586 153.265L194.652 158.049C194.666 159.04 193.875 159.855 192.885 159.867C192.87 159.868 192.855 159.868 192.84 159.867L192.574 159.864C191.602 159.852 190.816 159.066 190.803 158.092L190.737 153.308C190.723 152.316 191.514 151.502 192.504 151.489C192.519 151.489 192.534 151.489 192.549 151.489Z" fill="#4E545C"/>
<path fill-rule="evenodd" clip-rule="evenodd" d="M208.043 151.467L208.31 151.47C209.282 151.482 210.068 152.268 210.081 153.242L210.147 158.026C210.161 159.018 209.369 159.832 208.38 159.845C208.365 159.845 208.35 159.845 208.335 159.845L208.069 159.842C207.097 159.83 206.311 159.043 206.297 158.069L206.232 153.285C206.218 152.294 207.009 151.479 207.998 151.467C208.013 151.467 208.028 151.467 208.043 151.467Z" fill="#4E545C"/>
<path d="M168.716 186.57L180.706 207.624L178.028 209.156L166.038 188.102L168.716 186.57Z" fill="#BBC3D0"/>
<path d="M173.451 207.596C173.125 207.026 172.285 206.896 171.576 207.301L170.371 205.183L175.779 202.091L179.363 208.389L173.954 211.481L172.749 209.363C173.459 208.958 173.77 208.166 173.451 207.596Z" fill="#BBC3D0"/>
<path d="M153.686 180.55L159.853 174.125L168.515 172.076C169.497 171.839 170.493 172.417 170.793 173.384L174.599 185.785C174.865 186.645 174.495 187.576 173.715 188.021L169.233 190.583L164.752 193.145C163.972 193.597 162.987 193.437 162.376 192.771L153.661 183.182C152.974 182.426 152.99 181.279 153.686 180.55ZM157.807 180.353L166.258 175.524L166.156 175.341C165.628 174.419 164.456 174.094 163.536 174.624L158.422 177.545C157.502 178.074 157.178 179.248 157.706 180.17L157.807 180.353Z" fill="#BBC3D0"/>
<path d="M179.362 208.387L162.029 177.939L166.25 175.524L166.149 175.341C165.621 174.42 164.449 174.095 163.529 174.624L160.972 176.088L159.852 174.125L168.515 172.076C169.498 171.84 170.493 172.417 170.793 173.384L174.599 185.785C174.866 186.646 174.495 187.577 173.715 188.021L170.568 189.813L180.704 207.617L179.362 208.387Z" fill="#AFB8C3"/>
<path d="M155.156 217C155.156 217 159.807 213.118 159.9 213.039C160.338 212.679 159.167 211.152 159.325 210.576C159.44 210.144 159.828 209.611 159.857 209.193C159.893 208.733 159.469 208.322 159.44 207.854C159.397 207.047 160.216 206.363 160.058 205.535C159.9 204.721 158.764 204.376 158.714 203.497C158.671 202.597 159.979 202.338 159.706 201.25C159.483 200.343 158.671 200.336 158.829 199.277C158.922 198.622 159.267 198.254 159.598 197.714C159.929 197.174 159.9 196.8 159.9 196.137C159.9 194.581 159.9 193.033 159.9 191.478C159.9 191.449 159.9 191.42 159.9 191.391H155.156V217Z" fill="#C5CCD8"/>
<path d="M157.614 174.324C163.07 174.324 167.497 178.76 167.497 184.226C167.497 189.692 163.07 194.128 157.614 194.128C152.159 194.128 147.732 189.692 147.732 184.226C147.732 178.76 152.159 174.324 157.614 174.324ZM157.614 179.869C158.779 179.869 159.72 178.926 159.72 177.759C159.72 176.592 158.779 175.649 157.614 175.649C156.45 175.649 155.509 176.592 155.509 177.759C155.509 178.926 156.45 179.869 157.614 179.869Z" fill="#C5CCD8"/>
<path d="M155.509 177.758C155.509 178.925 156.45 179.868 157.615 179.868V214.947C156.4 215.963 155.156 217 155.156 217V193.804C150.894 192.709 147.732 188.842 147.732 184.225C147.732 178.759 152.159 174.323 157.615 174.323V175.641C156.45 175.648 155.509 176.592 155.509 177.758Z" fill="#AFB8C3"/>
<path d="M148.889 175.088C149.529 175.794 150.219 176.421 150.93 176.946C151.735 177.559 152.576 178.041 153.417 178.401C153.863 178.596 154.308 178.754 154.754 178.877C155.178 178.985 155.602 179.078 156.012 179.121C156.342 179.172 156.673 179.193 157.003 179.193C157.852 179.193 158.649 179.042 159.375 178.732L159.39 178.725C159.433 178.718 159.476 178.696 159.519 178.682C159.519 178.675 159.526 178.675 159.526 178.668V178.66C159.663 178.387 159.735 178.084 159.735 177.76C159.735 177.436 159.663 177.127 159.526 176.846C158.793 177.407 157.873 177.659 156.852 177.645C156.428 177.638 155.976 177.573 155.523 177.472C155.235 177.407 154.948 177.321 154.66 177.22C153.841 176.932 153.014 176.507 152.21 175.938C151.462 175.413 150.736 174.772 150.068 174.03C146.963 170.559 146.258 166.101 148.501 164.077C150.743 162.061 155.099 163.242 158.204 166.706C160.231 168.96 161.115 172.15 160.985 174.296L162.581 173.987C162.595 171.567 161.661 168.197 159.375 165.647C155.688 161.528 150.341 160.296 147.444 162.896C144.555 165.503 145.202 170.969 148.889 175.088Z" fill="#BCC5D2"/>
<path fill-rule="evenodd" clip-rule="evenodd" d="M166.087 153.615C166.483 154.572 166.029 155.669 165.073 156.065C162.561 157.106 158.757 158.798 155.504 160.645C153.873 161.571 152.439 162.503 151.388 163.377C150.249 164.326 149.889 164.94 149.837 165.166C149.634 166.048 149.669 166.62 149.764 166.987C149.854 167.336 150.025 167.607 150.288 167.857C150.921 168.46 151.915 168.834 153.353 169.373C154.321 169.736 157.26 170.276 156.897 171.246C156.535 172.216 156.404 173.147 155.933 173.287C155.215 173.502 151.858 172.818 151.762 172.782C150.591 172.348 148.917 171.727 147.707 170.575C146.999 169.9 146.424 169.032 146.138 167.926C145.857 166.837 145.885 165.636 146.187 164.323C146.538 162.796 147.788 161.496 148.994 160.492C150.289 159.414 151.938 158.357 153.657 157.381C157.104 155.425 161.069 153.664 163.641 152.599C164.596 152.203 165.692 152.658 166.087 153.615Z" fill="white"/>
<path d="M154.269 169.658C153.634 168.216 154.286 166.531 155.727 165.893L156.964 165.345C157.721 165.01 158.606 165.353 158.94 166.11C159.274 166.868 158.931 167.754 158.174 168.089L154.328 169.791L154.269 169.658Z" fill="white"/>
<path d="M154.332 169.799L159.143 167.669C159.9 167.334 160.784 167.676 161.118 168.434C161.452 169.191 161.109 170.077 160.352 170.412L155.541 172.542L154.332 169.799Z" fill="white"/>
<path d="M155.543 172.544L160.117 170.519C160.874 170.184 161.759 170.527 162.093 171.284C162.427 172.042 162.084 172.928 161.327 173.263L159.494 174.074C157.98 174.744 156.211 174.06 155.543 172.544Z" fill="white"/>
<path fill-rule="evenodd" clip-rule="evenodd" d="M199.717 41.647L173.227 60.332C172.922 60.5468 172.844 60.9749 173.051 61.2881C173.178 61.479 173.389 61.5912 173.614 61.5866L227.904 60.4886C228.273 60.4812 228.567 60.1673 228.56 59.7876C228.557 59.5503 228.434 59.3322 228.237 59.2106L199.717 41.647Z" stroke="#263238"/>
<g filter="url(#filter0_d_218_8239)">
<path d="M200.244 42.9065C201.002 42.9065 201.615 42.2907 201.615 41.5311C201.615 40.7715 201.002 40.1558 200.244 40.1558C199.487 40.1558 198.873 40.7715 198.873 41.5311C198.873 42.2907 199.487 42.9065 200.244 42.9065Z" fill="black"/>
</g>
<path d="M200.244 42.9065C201.002 42.9065 201.615 42.2907 201.615 41.5311C201.615 40.7715 201.002 40.1558 200.244 40.1558C199.487 40.1558 198.873 40.7715 198.873 41.5311C198.873 42.2907 199.487 42.9065 200.244 42.9065Z" fill="white"/>
<g filter="url(#filter1_d_218_8239)">
<rect x="166.868" y="60.0723" width="69.9446" height="19.0228" rx="1" fill="white"/>
</g>
<path d="M177.265 72.6948H178.297V69.4228C178.297 69.0868 178.241 68.5428 178.241 68.5428H178.257C178.257 68.5428 178.513 69.0948 178.729 69.4228L180.881 72.6948H181.905V67.0148H180.881V70.2948C180.881 70.6308 180.937 71.1748 180.937 71.1748H180.921C180.921 71.1748 180.665 70.6228 180.449 70.2948L178.297 67.0148H177.265V72.6948ZM183.151 69.8148C183.151 71.4868 184.415 72.7908 186.087 72.7908C187.759 72.7908 189.023 71.4868 189.023 69.8148C189.023 68.1908 187.759 66.9188 186.087 66.9188C184.415 66.9188 183.151 68.1908 183.151 69.8148ZM184.215 69.8148C184.215 68.6948 185.047 67.8628 186.087 67.8628C187.127 67.8628 187.959 68.6948 187.959 69.8148C187.959 70.9828 187.127 71.8468 186.087 71.8468C185.047 71.8468 184.215 70.9828 184.215 69.8148ZM195.724 72.6948H196.788L194.788 67.0148H193.708L191.708 72.6948H192.772L193.252 71.2388H195.244L195.724 72.6948ZM194.26 67.9988C194.26 67.9988 194.38 68.5588 194.484 68.8788L194.988 70.3988H193.5L194.004 68.8788C194.116 68.5588 194.244 67.9988 194.244 67.9988H194.26ZM197.29 69.8308C197.29 71.5028 198.49 72.7908 200.226 72.7908C201.674 72.7908 202.458 71.8708 202.458 71.8708L201.914 71.1268C201.914 71.1268 201.25 71.8468 200.266 71.8468C199.082 71.8468 198.354 70.8948 198.354 69.8148C198.354 68.7588 199.058 67.8628 200.258 67.8628C201.162 67.8628 201.81 68.4628 201.81 68.4628L202.306 67.6948C202.306 67.6948 201.594 66.9188 200.21 66.9188C198.538 66.9188 197.29 68.1828 197.29 69.8308ZM203.185 69.8308C203.185 71.5028 204.385 72.7908 206.121 72.7908C207.569 72.7908 208.353 71.8708 208.353 71.8708L207.809 71.1268C207.809 71.1268 207.145 71.8468 206.161 71.8468C204.977 71.8468 204.249 70.8948 204.249 69.8148C204.249 68.7588 204.953 67.8628 206.153 67.8628C207.057 67.8628 207.705 68.4628 207.705 68.4628L208.201 67.6948C208.201 67.6948 207.489 66.9188 206.105 66.9188C204.433 66.9188 203.185 68.1828 203.185 69.8308ZM209.504 72.6948H213.032V71.8068H210.536V70.2788H212.448V69.3908H210.536V67.9028H212.904V67.0148H209.504V72.6948ZM213.873 72.0148C213.873 72.0148 214.569 72.7908 215.833 72.7908C217.017 72.7908 217.705 72.0308 217.705 71.1268C217.705 69.3108 215.033 69.5588 215.033 68.5508C215.033 68.1508 215.409 67.8708 215.889 67.8708C216.601 67.8708 217.145 68.3668 217.145 68.3668L217.593 67.5268C217.593 67.5268 217.017 66.9188 215.897 66.9188C214.809 66.9188 213.993 67.6228 213.993 68.5668C213.993 70.3108 216.673 70.1348 216.673 71.1508C216.673 71.6148 216.281 71.8388 215.849 71.8388C215.049 71.8388 214.433 71.2388 214.433 71.2388L213.873 72.0148ZM218.503 72.0148C218.503 72.0148 219.199 72.7908 220.463 72.7908C221.647 72.7908 222.335 72.0308 222.335 71.1268C222.335 69.3108 219.663 69.5588 219.663 68.5508C219.663 68.1508 220.039 67.8708 220.519 67.8708C221.231 67.8708 221.775 68.3668 221.775 68.3668L222.223 67.5268C222.223 67.5268 221.647 66.9188 220.527 66.9188C219.439 66.9188 218.623 67.6228 218.623 68.5668C218.623 70.3108 221.303 70.1348 221.303 71.1508C221.303 71.6148 220.911 71.8388 220.479 71.8388C219.679 71.8388 219.063 71.2388 219.063 71.2388L218.503 72.0148ZM223.717 71.0548H224.605L224.685 67.0148H223.629L223.717 71.0548ZM223.669 72.6948H224.653V71.7508H223.669V72.6948Z" fill="#0A0A48"/>
<defs>
<filter id="filter0_d_218_8239" x="194.873" y="38.1558" width="10.7423" height="10.751" filterUnits="userSpaceOnUse" color-interpolation-filters="sRGB">
<feFlood flood-opacity="0" result="BackgroundImageFix"/>
<feColorMatrix in="SourceAlpha" type="matrix" values="0 0 0 0 0 0 0 0 0 0 0 0 0 0 0 0 0 0 127 0" result="hardAlpha"/>
<feOffset dy="2"/>
<feGaussianBlur stdDeviation="2"/>
<feColorMatrix type="matrix" values="0 0 0 0 0 0 0 0 0 0 0 0 0 0 0 0 0 0 0.5 0"/>
<feBlend mode="normal" in2="BackgroundImageFix" result="effect1_dropShadow_218_8239"/>
<feBlend mode="normal" in="SourceGraphic" in2="effect1_dropShadow_218_8239" result="shape"/>
</filter>
<filter id="filter1_d_218_8239" x="162.868" y="60.0723" width="77.9446" height="28.0229" filterUnits="userSpaceOnUse" color-interpolation-filters="sRGB">
<feFlood flood-opacity="0" result="BackgroundImageFix"/>
<feColorMatrix in="SourceAlpha" type="matrix" values="0 0 0 0 0 0 0 0 0 0 0 0 0 0 0 0 0 0 127 0" result="hardAlpha"/>
<feOffset dy="5"/>
<feGaussianBlur stdDeviation="2"/>
<feColorMatrix type="matrix" values="0 0 0 0 0 0 0 0 0 0 0 0 0 0 0 0 0 0 0.1 0"/>
<feBlend mode="normal" in2="BackgroundImageFix" result="effect1_dropShadow_218_8239"/>
<feBlend mode="normal" in="SourceGraphic" in2="effect1_dropShadow_218_8239" result="shape"/>
</filter>
<linearGradient id="paint0_linear_218_8239" x1="329.026" y1="-5.57696" x2="329.026" y2="182.93" gradientUnits="userSpaceOnUse">
<stop stop-color="#C2C9D5"/>
<stop offset="1" stop-color="#8C99B2"/>
</linearGradient>
<linearGradient id="paint1_linear_218_8239" x1="56.8582" y1="34.8315" x2="56.8582" y2="178.45" gradientUnits="userSpaceOnUse">
<stop stop-color="#C2C9D5"/>
<stop offset="1" stop-color="#8C99B2"/>
</linearGradient>
</defs>
</svg>
