<?xml version="1.0" encoding="UTF-8"?>
<svg width="27px" height="20px" viewBox="0 0 27 20" version="1.1" xmlns="http://www.w3.org/2000/svg" xmlns:xlink="http://www.w3.org/1999/xlink">
    <title>Icons / Assets</title>
    <defs>
        <rect id="path-1" x="0" y="0" width="14.4" height="6.24" rx="2"></rect>
        <filter x="-24.3%" y="-40.1%" width="148.6%" height="212.2%" filterUnits="objectBoundingBox" id="filter-2">
            <feOffset dx="0" dy="1" in="SourceAlpha" result="shadowOffsetOuter1"></feOffset>
            <feGaussianBlur stdDeviation="1" in="shadowOffsetOuter1" result="shadowBlurOuter1"></feGaussianBlur>
            <feColorMatrix values="0 0 0 0 0   0 0 0 0 0   0 0 0 0 0  0 0 0 0.15 0" type="matrix" in="shadowBlurOuter1"></feColorMatrix>
        </filter>
        <rect id="path-3" x="0.24" y="0" width="6" height="6" rx="1.92"></rect>
        <filter x="-58.3%" y="-41.7%" width="216.7%" height="216.7%" filterUnits="objectBoundingBox" id="filter-4">
            <feOffset dx="0" dy="1" in="SourceAlpha" result="shadowOffsetOuter1"></feOffset>
            <feGaussianBlur stdDeviation="1" in="shadowOffsetOuter1" result="shadowBlurOuter1"></feGaussianBlur>
            <feColorMatrix values="0 0 0 0 0   0 0 0 0 0   0 0 0 0 0  0 0 0 0.15 0" type="matrix" in="shadowBlurOuter1"></feColorMatrix>
        </filter>
        <rect id="path-5" x="0" y="0" width="23.04" height="6.72" rx="2"></rect>
        <filter x="-15.2%" y="-37.2%" width="130.4%" height="204.2%" filterUnits="objectBoundingBox" id="filter-6">
            <feOffset dx="0" dy="1" in="SourceAlpha" result="shadowOffsetOuter1"></feOffset>
            <feGaussianBlur stdDeviation="1" in="shadowOffsetOuter1" result="shadowBlurOuter1"></feGaussianBlur>
            <feColorMatrix values="0 0 0 0 0   0 0 0 0 0   0 0 0 0 0  0 0 0 0.15 0" type="matrix" in="shadowBlurOuter1"></feColorMatrix>
        </filter>
    </defs>
    <g id="2d-iteration" stroke="none" stroke-width="1" fill="none" fill-rule="evenodd">
        <g id="1344-inventory" transform="translate(-719.000000, -94.000000)">
            <g id="Group-5" transform="translate(721.000000, 91.000000)">
                <g id="Icons-/-Assets">
                    <g id="Group-14-Copy-2" transform="translate(0.000000, 4.000000)">
                        <g id="Group-12">
                            <g id="Rectangle">
                                <use fill="black" fill-opacity="1" filter="url(#filter-2)" xlink:href="#path-1"></use>
                                <use fill="#A7EADB" fill-rule="evenodd" xlink:href="#path-1"></use>
                            </g>
                            <path d="M2,0 L12.4,0 C13.5045695,-2.02906125e-16 14.4,0.8954305 14.4,2 L14.4,3.36 L14.4,3.36 L0,3.36 L0,2 C-1.3527075e-16,0.8954305 0.8954305,2.02906125e-16 2,0 Z" id="Rectangle" fill="#29B094"></path>
                        </g>
                        <g id="Group-12-Copy" transform="translate(16.760000, 0.000000)">
                            <g id="Rectangle">
                                <use fill="black" fill-opacity="1" filter="url(#filter-4)" xlink:href="#path-3"></use>
                                <use fill="#A7EADB" fill-rule="evenodd" xlink:href="#path-3"></use>
                            </g>
                            <path d="M2.16,0 L4.24,0 C5.3445695,-2.02906125e-16 6.24,0.8954305 6.24,2 L6.24,3 L6.24,3 L0.24,3 L0.24,1.92 C0.24,0.85961328 1.09961328,4.16834485e-16 2.16,0 Z" id="Rectangle" fill="#29B094"></path>
                        </g>
                        <g id="Group-12" transform="translate(0.000000, 9.120000)">
                            <g id="Rectangle">
                                <use fill="black" fill-opacity="1" filter="url(#filter-6)" xlink:href="#path-5"></use>
                                <use fill="#A7EADB" fill-rule="evenodd" xlink:href="#path-5"></use>
                            </g>
                            <path d="M2,0 L21.04,0 C22.1445695,-2.02906125e-16 23.04,0.8954305 23.04,2 L23.04,3.36 L23.04,3.36 L0,3.36 L0,2 C-5.7935996e-16,0.8954305 0.8954305,2.02906125e-16 2,0 Z" id="Rectangle" fill="#29B094"></path>
                        </g>
                    </g>
                </g>
            </g>
        </g>
    </g>
</svg>