<?xml version="1.0" encoding="UTF-8"?>
<svg width="27px" height="20px" viewBox="0 0 27 20" version="1.1" xmlns="http://www.w3.org/2000/svg" xmlns:xlink="http://www.w3.org/1999/xlink">
    <title>Icons / Assets</title>
    <defs>
        <rect id="path-1" x="0" y="0" width="14.4" height="16" rx="2"></rect>
        <filter x="-24.3%" y="-15.6%" width="148.6%" height="143.8%" filterUnits="objectBoundingBox" id="filter-2">
            <feOffset dx="0" dy="1" in="SourceAlpha" result="shadowOffsetOuter1"></feOffset>
            <feGaussianBlur stdDeviation="1" in="shadowOffsetOuter1" result="shadowBlurOuter1"></feGaussianBlur>
            <feColorMatrix values="0 0 0 0 0   0 0 0 0 0   0 0 0 0 0  0 0 0 0.15 0" type="matrix" in="shadowBlurOuter1"></feColorMatrix>
        </filter>
        <rect id="path-3" x="0.24" y="0" width="6" height="16" rx="1.92"></rect>
        <filter x="-58.3%" y="-15.6%" width="216.7%" height="143.8%" filterUnits="objectBoundingBox" id="filter-4">
            <feOffset dx="0" dy="1" in="SourceAlpha" result="shadowOffsetOuter1"></feOffset>
            <feGaussianBlur stdDeviation="1" in="shadowOffsetOuter1" result="shadowBlurOuter1"></feGaussianBlur>
            <feColorMatrix values="0 0 0 0 0   0 0 0 0 0   0 0 0 0 0  0 0 0 0.15 0" type="matrix" in="shadowBlurOuter1"></feColorMatrix>
        </filter>
    </defs>
    <g id="Symbols" stroke="none" stroke-width="1" fill="none" fill-rule="evenodd">
        <g id="Group" transform="translate(-38.000000, -35.000000)">
            <g id="Group-3">
                <g transform="translate(40.000000, 32.000000)">
                    <g id="Icons-/-CC">
                        <g id="Group-14-Copy-2" transform="translate(0.000000, 4.000000)">
                            <g id="Group-12">
                                <g id="Rectangle">
                                    <use fill="black" fill-opacity="1" filter="url(#filter-2)" xlink:href="#path-1"></use>
                                    <use fill="#A7EADB" fill-rule="evenodd" xlink:href="#path-1"></use>
                                </g>
                                <path d="M2,0 L12.4,0 C13.5045695,7.78148667e-16 14.4,0.8954305 14.4,2 L14.4,3.36 L14.4,3.36 L0,3.36 L0,2 C-1.3527075e-16,0.8954305 0.8954305,2.02906125e-16 2,0 Z" id="Rectangle" fill="#29B094"></path>
                            </g>
                            <g id="Group-12-Copy" transform="translate(16.760000, 0.000000)">
                                <g id="Rectangle">
                                    <use fill="black" fill-opacity="1" filter="url(#filter-4)" xlink:href="#path-3"></use>
                                    <use fill="#A7EADB" fill-rule="evenodd" xlink:href="#path-3"></use>
                                </g>
                                <path d="M2.16,0 L4.24,0 C5.3445695,-2.02906125e-16 6.24,0.8954305 6.24,2 L6.24,3 L6.24,3 L0.24,3 L0.24,1.92 C0.24,0.85961328 1.09961328,4.16834485e-16 2.16,0 Z" id="Rectangle" fill="#29B094"></path>
                            </g>
                        </g>
                    </g>
                </g>
            </g>
        </g>
    </g>
</svg>