<svg width="40" height="33" viewBox="0 0 40 33" fill="none" xmlns="http://www.w3.org/2000/svg">
<rect x="0.5" y="3.52423" width="2" height="2" rx="0.5" transform="rotate(-68.0146 0.5 3.52423)" fill="#584EC7"/>
<rect x="36.5957" y="8.71173" width="2" height="2" rx="0.5" transform="rotate(-76.5609 36.5957 8.71173)" fill="#584EC7"/>
<rect x="21.168" y="22.7078" width="2" height="2" rx="0.5" transform="rotate(18.4033 21.168 22.7078)" fill="#584EC7"/>
<rect x="12.5" y="15.0223" width="1.5" height="1.5" rx="0.2" transform="rotate(-13.6012 12.5 15.0223)" fill="#584EC7"/>
<rect x="4.51172" y="30.5203" width="1.5" height="1.5" rx="0.2" transform="rotate(50.7859 4.51172 30.5203)" fill="#584EC7"/>
<rect x="20.5938" y="7.23511" width="2" height="2" rx="0.5" transform="rotate(-13.6012 20.5938 7.23511)" fill="#584EC7"/>
<rect x="4.59375" y="16.2351" width="1" height="1" rx="0.5" transform="rotate(-13.6012 4.59375 16.2351)" fill="#584EC7"/>
<rect x="28.5938" y="0.235107" width="1" height="1" rx="0.5" transform="rotate(-13.6012 28.5938 0.235107)" fill="#584EC7"/>
<rect x="12.5938" y="0.235107" width="1" height="1" rx="0.5" transform="rotate(-13.6012 12.5938 0.235107)" fill="#584EC7"/>
<rect x="36.5938" y="27.2351" width="1" height="1" rx="0.5" transform="rotate(-13.6012 36.5938 27.2351)" fill="#584EC7"/>
<rect x="36.5938" y="11.2351" width="1" height="1" rx="0.5" transform="rotate(-13.6012 36.5938 11.2351)" fill="#584EC7"/>
</svg>
