<?xml version="1.0" encoding="UTF-8"?>
<svg width="70px" height="25px" viewBox="0 0 70 25" version="1.1" xmlns="http://www.w3.org/2000/svg" xmlns:xlink="http://www.w3.org/1999/xlink">
    <!-- Generator: sketchtool 63.1 (101010) - https://sketch.com -->
    <title>C38C860F-1195-4B11-A19D-94A6FBE458B7</title>
    <desc>Created with sketchtool.</desc>
    <g id="Desktop" stroke="none" stroke-width="1" fill="none" fill-rule="evenodd">
        <g id="2.1.0.9-Solution-Details---COVID-banner" transform="translate(-1147.000000, -510.000000)" fill="#FFFFFF">
            <g id="Banner_Desktop" transform="translate(1082.000000, 413.000000)">
                <g id="Banner-Copy">
                    <g id="Group" transform="translate(21.000000, 40.000000)">
                        <g id="Group-12" transform="translate(44.000000, 57.000000)">
                            <g id="Group-9" transform="translate(10.000000, 0.000000)">
                                <path d="M2.76877736,11.3386381 L2.79133585,15.8778172 C2.79484906,17.0294963 3.36694717,17.6035634 4.50763019,17.6000187 L5.00669057,17.5985261 C6.14737358,17.5947948 6.71595849,17.0171828 6.71226038,15.8656903 L6.70541887,13.6345336 L9.34328302,13.6263246 L9.34979503,15.7496455 C9.35863019,18.6645709 7.9019434,20.1442351 5.0144566,20.1533769 L4.44439245,20.1550983 C1.55672075,20.1641978 0.0911584906,18.6934888 0.0832075472,16.1197948 L0.0489490167,5.03583955 C0.0390150943,1.77968284 1.49570189,0.299458955 4.38318868,0.290317164 L4.95343774,0.288597415 C7.84092453,0.279682836 9.3066717,1.75057836 9.31554717,4.6656903 L9.32756604,11.3183022 L2.76877736,11.3386381 Z M2.76933208,8.70524254 L6.61869811,8.69311567 L6.60612453,4.56606343 C6.60261132,3.4145709 6.03106792,2.84050373 4.8902,2.84403219 L4.4623283,2.84554104 C3.32164528,2.84889925 2.75306038,3.42669776 2.75674057,4.5781903 L2.76933208,8.70524254 Z" id="Fill-1"></path>
                                <path d="M11.0627947,0.485485075 L13.7718475,0.476902985 L13.7759155,1.73660448 C14.4155042,1.05078358 15.5179117,0.255634328 17.0862815,0.2505727 C19.4033343,0.243507463 20.54864,1.78735075 20.5558513,4.09052239 L20.5930498,16.2541418 C20.6000438,18.5571269 19.4643532,20.1082463 17.1473004,20.1153358 C15.5789306,20.1201866 14.4717155,19.3681343 13.8280589,18.7224254 L13.8472891,24.9916418 L11.1380513,24.9998507 L11.0627947,0.485485075 Z M13.8212174,16.5270896 C14.5717494,17.1726119 15.4282325,17.5295149 16.3194777,17.5269172 C17.3175985,17.5237313 17.8865532,17.0545149 17.8832394,15.9388433 L17.847723,4.42298507 C17.8443947,3.30731343 17.2724815,2.84126866 16.2743608,2.84442423 C15.3831155,2.84723881 14.5288513,3.20992537 13.7823872,3.85992537 L13.8212174,16.5270896 Z" id="Fill-3"></path>
                                <path d="M42.3923962,19.8205224 L39.6833434,19.8291045 L39.6352679,4.17518657 C39.6321245,3.20335821 39.1678264,2.77294776 38.3479547,2.7755597 C37.5990868,2.77779851 36.8160113,3.06809701 35.8554264,3.75503731 L35.9049811,19.8408582 L33.1961132,19.8492537 L33.1362038,0.41641791 L35.8452566,0.408022388 L35.8491396,1.66753731 C36.6311057,0.909701493 37.6626943,0.186567164 39.1598755,0.181716418 C40.5498113,0.177425373 41.4784075,0.750373134 41.9804264,1.75671642 C42.9404566,0.925932836 44.0787358,0.16641791 45.6471057,0.16154254 C47.7504075,0.155037313 48.8236,1.44757463 48.8300717,3.57033582 L48.8799962,19.8003731 L46.1707585,19.8089552 L46.122683,4.15485075 C46.1197245,3.18302239 45.6550566,2.75261194 44.8351849,2.75503731 C44.0866868,2.75746269 43.3032415,3.04776119 42.3430264,3.73470149 L42.3923962,19.8205224" id="Fill-5"></path>
                                <path d="M22.2185415,13.1183022 C22.2111453,10.7071082 22.9925566,9.73304104 25.057583,9.00710821 L28.6896849,7.73602612 L28.6795151,4.49703358 C28.6761868,3.34554104 28.1037189,2.73565299 26.9632208,2.73901119 L26.5218509,2.74050373 C25.3811679,2.74423507 24.812583,3.35766791 24.8162811,4.50916045 L24.8247868,7.26139925 L22.1869226,7.26960821 L22.1787465,4.62557836 C22.1699113,1.71046642 23.6269679,0.230242537 26.5140849,0.221287313 L27.0266434,0.219565863 C29.9139453,0.210466418 31.3800623,1.68154851 31.3889377,4.59666045 L31.4359038,19.8546828 L28.7268509,19.8632649 L28.7231528,18.639944 C27.9768736,19.361959 26.9809717,20.0847201 25.412417,20.0895977 C23.2382962,20.0962873 22.2361075,18.839944 22.2296358,16.6809888 L22.2185415,13.1183022 Z M28.716866,16.5888246 L28.6970811,10.1785634 L26.2406094,11.1263246 C25.2435981,11.5253918 24.9244509,12.030056 24.9277535,13.145541 L24.9368396,16.096847 C24.9397981,17.0322948 25.404466,17.4985261 26.2600245,17.4957401 C27.0797113,17.4931157 27.8274698,17.2031903 28.716866,16.5888246 L28.716866,16.5888246 Z" id="Fill-7"></path>
                            </g>
                            <polygon id="Fill-10" points="0 9.74163485 0.00755541053 12.383955 7 19 6.98963327 15.329626 2.40947313 11.0153667 6.96450714 6.59164315 6.95414042 3"></polygon>
                            <polygon id="Fill-11" points="63.0103662 5.59145344 67.5902964 9.98463326 63.0353154 14.3294363 63.0458573 18 70 11.337096 69.992445 8.69477578 63 2"></polygon>
                        </g>
                    </g>
                </g>
            </g>
        </g>
    </g>
</svg>