<?xml version="1.0" encoding="UTF-8"?>
<svg width="260px" height="260px" viewBox="0 0 260 260" version="1.1" xmlns="http://www.w3.org/2000/svg" xmlns:xlink="http://www.w3.org/1999/xlink">
    <!-- Generator: Sketch 57.1 (83088) - https://sketch.com -->
    <title>favicon browser</title>
    <desc>Created with Sketch.</desc>
    <g id="favicon-browser" stroke="none" stroke-width="1" fill="none" fill-rule="evenodd">
        <rect id="Rectangle" fill="#30A78E" x="0" y="0" width="260" height="260" rx="24"></rect>
        <circle id="Oval" fill="#30A78E" cx="130" cy="130" r="130"></circle>
        <path d="M33,0 L236,0 C249.254834,-2.4348735e-15 260,10.745166 260,24 L260,236 C260,249.254834 249.254834,260 236,260 L33,260 L33,260 L33,0 Z" id="Rectangle" fill="#000000"></path>
        <path d="M100.579102,195.318359 C88.7626362,195.318359 79.7417303,191.851597 73.5161133,184.917969 C67.2904962,177.98434 63.8115271,168.511779 63.0791016,156.5 L81.8291016,151.8125 C82.7568406,170.562594 89.0067781,179.9375 100.579102,179.9375 C109.954148,179.9375 114.641602,175.250047 114.641602,165.875 C114.641602,163.091783 114.263187,160.516125 113.506348,158.147949 C112.749508,155.779773 111.589852,153.606943 110.027344,151.629395 C108.464836,149.651846 107.048834,148.064947 105.779297,146.868652 C104.509759,145.672357 102.776378,144.195321 100.579102,142.4375 L77.1416016,123.6875 C72.8447051,120.318343 69.4145636,116.033717 66.8510742,110.833496 C64.2875848,105.633275 63.0058594,99.7129238 63.0058594,93.0722656 C63.0058594,83.4042485 66.008759,75.7138958 72.0146484,70.0009766 C78.0205378,64.2880574 85.9794426,61.4316406 95.8916016,61.4316406 C106.536186,61.4316406 114.995574,64.0317123 121.27002,69.2319336 C127.544465,74.4321549 131.414055,81.7929211 132.878906,91.3144531 C133.025391,92.3398489 133.196288,93.7558503 133.391602,95.5625 L114.641602,100.25 C114.592773,99.4199177 114.470704,98.174813 114.275391,96.5146484 C113.445308,90.5575874 111.577651,85.7846859 108.672363,82.1958008 C105.767075,78.6069156 101.506864,76.8125 95.8916016,76.8125 C91.3993916,76.8125 87.9326294,78.0698116 85.4912109,80.5844727 C83.0497925,83.0991337 81.8291016,86.6025166 81.8291016,91.0947266 C81.8291016,98.4678103 84.9540703,104.644506 91.2041016,109.625 L114.641602,128.375 C127.141664,138.482472 133.391602,150.567313 133.391602,164.629883 C133.391602,174.249072 130.425323,181.768528 124.492676,187.188477 C118.560029,192.608426 110.588917,195.318359 100.579102,195.318359 Z M152.087891,194 L152.087891,62.75 L170.837891,62.75 L170.837891,119 L203.650391,119 L203.650391,62.75 L222.400391,62.75 L222.400391,194 L203.650391,194 L203.650391,133.0625 L170.837891,133.0625 L170.837891,194 L152.087891,194 Z" id="SH" fill="#FFFFFF" fill-rule="nonzero"></path>
    </g>
</svg>