<svg width="56" height="56" viewBox="0 0 56 56" fill="none" xmlns="http://www.w3.org/2000/svg">
<circle cx="28" cy="28" r="28" fill="white"/>
<circle cx="28" cy="28" r="28" fill="#202025" fill-opacity="0.15"/>
<path d="M16.7095 42V34.608H14.2035V32.872H21.2875V34.608H18.7815V42H16.7095ZM27.5243 42.168C26.9083 42.168 26.3437 42.0607 25.8303 41.846C25.3263 41.622 24.8923 41.3047 24.5283 40.894C24.1643 40.4833 23.8797 39.984 23.6743 39.396C23.4783 38.808 23.3803 38.1407 23.3803 37.394C23.3803 36.6473 23.4783 35.9847 23.6743 35.406C23.8797 34.818 24.1643 34.328 24.5283 33.936C24.8923 33.5347 25.3263 33.2313 25.8303 33.026C26.3437 32.8113 26.9083 32.704 27.5243 32.704C28.1403 32.704 28.7003 32.8113 29.2043 33.026C29.7177 33.2313 30.1563 33.5347 30.5203 33.936C30.8843 34.3373 31.1643 34.832 31.3603 35.42C31.5657 35.9987 31.6683 36.6567 31.6683 37.394C31.6683 38.1407 31.5657 38.808 31.3603 39.396C31.1643 39.984 30.8843 40.4833 30.5203 40.894C30.1563 41.3047 29.7177 41.622 29.2043 41.846C28.7003 42.0607 28.1403 42.168 27.5243 42.168ZM27.5243 40.39C28.1497 40.39 28.6443 40.124 29.0083 39.592C29.3723 39.0507 29.5543 38.318 29.5543 37.394C29.5543 36.4793 29.3723 35.7653 29.0083 35.252C28.6443 34.7387 28.1497 34.482 27.5243 34.482C26.899 34.482 26.4043 34.7387 26.0403 35.252C25.6763 35.7653 25.4943 36.4793 25.4943 37.394C25.4943 38.318 25.6763 39.0507 26.0403 39.592C26.4043 40.124 26.899 40.39 27.5243 40.39ZM34.8846 42V32.872H38.0206C38.5246 32.872 38.996 32.9233 39.4346 33.026C39.8733 33.1193 40.256 33.2827 40.5826 33.516C40.9093 33.74 41.166 34.0433 41.3526 34.426C41.5486 34.7993 41.6466 35.2613 41.6466 35.812C41.6466 36.344 41.5486 36.806 41.3526 37.198C41.166 37.59 40.9093 37.912 40.5826 38.164C40.256 38.416 39.878 38.6027 39.4486 38.724C39.0193 38.8453 38.562 38.906 38.0766 38.906H36.9426V42H34.8846ZM36.9426 37.268H37.9506C39.0706 37.268 39.6306 36.7827 39.6306 35.812C39.6306 35.336 39.4813 35 39.1826 34.804C38.884 34.608 38.4546 34.51 37.8946 34.51H36.9426V37.268Z" fill="#202025" fill-opacity="0.45"/>
<g clip-path="url(#clip0_476_11928)">
<path fill-rule="evenodd" clip-rule="evenodd" d="M32.59 21.4199L28 16.8299L23.41 21.4199L22 19.9999L28 13.9999L34 19.9999L32.59 21.4199Z" fill="#202025" fill-opacity="0.45"/>
<path fill-rule="evenodd" clip-rule="evenodd" d="M32.59 26.4199L28 21.8299L23.41 26.4199L22 24.9999L28 18.9999L34 24.9999L32.59 26.4199Z" fill="#202025" fill-opacity="0.45"/>
</g>
<defs>
<clipPath id="clip0_476_11928">
<rect width="24" height="24" fill="white" transform="translate(16 9)"/>
</clipPath>
</defs>
</svg>
