<svg width="189" height="213" viewBox="0 0 189 213" fill="none" xmlns="http://www.w3.org/2000/svg">
<path fill-rule="evenodd" clip-rule="evenodd" d="M27.2732 204.952C-8.08194 198.971 -8.08194 189.272 27.2732 183.291C62.6282 177.309 119.946 177.309 155.296 183.291C190.647 189.272 190.651 198.971 155.296 204.952C119.941 210.934 62.6282 210.934 27.2732 204.952Z" fill="url(#paint0_radial_275_1544)"/>
<rect x="45.4326" y="59.4102" width="84.6487" height="142.959" rx="8" fill="#D1EEE8"/>
<rect x="50.1353" y="78.262" width="75.2433" height="102.114" rx="4" fill="white"/>
<path d="M83.8381 131.667C83.8381 129.502 85.5927 127.748 87.7571 127.748C89.9214 127.748 91.676 129.502 91.676 131.667V135.603C91.676 136.037 91.3243 136.388 90.8905 136.388H84.6236C84.1898 136.388 83.8381 136.037 83.8381 135.603V131.667Z" fill="#4E545C"/>
<path fill-rule="evenodd" clip-rule="evenodd" d="M78.0363 111.62C79.153 111.633 80.0553 112.537 80.07 113.656L80.1317 118.381C80.1459 119.465 79.2809 120.355 78.1998 120.369C78.1834 120.369 78.167 120.369 78.1506 120.369C77.0339 120.355 76.1315 119.452 76.1169 118.333L76.0552 113.608C76.041 112.524 76.906 111.634 77.9871 111.62C78.0035 111.62 78.0199 111.62 78.0363 111.62Z" fill="#4E545C"/>
<path fill-rule="evenodd" clip-rule="evenodd" d="M97.2072 111.62C98.3239 111.633 99.2262 112.537 99.2409 113.656L99.3026 118.381C99.3168 119.465 98.4518 120.355 97.3707 120.369C97.3543 120.369 97.3379 120.369 97.3215 120.369C96.2048 120.355 95.3024 119.452 95.2878 118.333L95.2261 113.608C95.2119 112.524 96.0769 111.634 97.158 111.62C97.1744 111.62 97.1908 111.62 97.2072 111.62Z" fill="#4E545C"/>
<rect x="68.946" y="68.5547" width="23.5135" height="2.28613" rx="1.14306" fill="white"/>
<rect x="79.1353" y="188.23" width="17.2432" height="5.49843" rx="2.74921" fill="white"/>
<rect x="94.811" y="68.5547" width="4.7027" height="2.28613" rx="1.14306" fill="white"/>
<path d="M163.969 65.2759L163.962 65.2782C161.846 66.1257 159.659 66.5391 157.508 66.5692L157.542 71.242C154.346 71.2818 151.205 70.6426 148.319 69.4005L150.174 65.1043C147.921 64.1343 145.872 62.7007 144.167 60.8776L140.77 64.0838C138.866 62.0516 137.31 59.6326 136.227 56.8758L140.554 55.1434C139.713 52.9965 139.312 50.787 139.298 48.609L134.651 48.6617C134.632 45.4462 135.293 42.2857 136.55 39.3837L140.805 41.2259C141.789 38.9614 143.228 36.8986 145.05 35.1836L141.875 31.7805C143.893 29.8777 146.295 28.3102 149.023 27.2194C149.038 27.2148 149.056 27.2053 149.071 27.2007L150.776 31.5455C152.905 30.6984 155.093 30.2926 157.252 30.2727L157.218 25.5999C160.409 25.57 163.539 26.2164 166.415 27.4658L164.56 31.7619C166.798 32.7365 168.842 34.1675 170.535 35.9902L173.932 32.784C175.826 34.8109 177.38 37.2223 178.456 39.9689L174.128 41.7012C174.969 43.8356 175.369 46.0375 175.387 48.2056L180.035 48.1529C180.059 51.3585 179.413 54.5145 178.166 57.4092L173.902 55.5617C172.936 57.8041 171.528 59.8452 169.738 61.5587L172.874 64.9983C170.853 66.9186 168.443 68.5009 165.71 69.6016L163.969 65.2759ZM164.463 45.571C162.912 41.6225 158.468 39.6969 154.535 41.2725C150.602 42.8481 148.669 47.3253 150.22 51.2737C151.77 55.2222 156.215 57.1478 160.148 55.5722C164.081 53.9966 166.014 49.5194 164.463 45.571Z" fill="#C5CCD8"/>
<path opacity="0.87" d="M163.956 65.2721C162.382 65.9018 160.778 66.2921 159.174 66.4588C159.261 66.2378 159.346 66.0217 159.428 65.798C160.858 62.0319 161.947 58.1001 162.447 54.1184C164.759 52.0233 165.67 48.6338 164.46 45.5592C163.925 44.1973 163.04 43.0864 161.961 42.2662C160.958 37.9241 158.937 33.9769 156.494 30.2861C156.741 30.2732 156.994 30.263 157.241 30.2627L157.208 25.5898C160.398 25.5599 163.529 26.2063 166.405 27.4558L164.55 31.752C166.788 32.7266 168.831 34.1577 170.525 35.9805L173.922 32.7741C175.816 34.8011 177.37 37.2126 178.446 39.9593L174.118 41.6917C174.959 43.8261 175.359 46.0281 175.377 48.1963L180.025 48.1435C180.049 51.3493 179.403 54.5053 178.156 57.4002L173.891 55.5526C172.926 57.7951 171.518 59.8363 169.728 61.5498L172.864 64.9896C170.843 66.9099 168.433 68.4923 165.699 69.593L163.961 65.2622C163.961 65.2748 163.961 65.2748 163.956 65.2721Z" fill="#AFB8C3"/>
<path d="M119.182 44.8219L119.177 44.8232C117.974 45.3051 116.731 45.5401 115.508 45.5572L115.527 48.214C113.71 48.2366 111.925 47.8732 110.284 47.167L111.338 44.7244C110.057 44.1729 108.893 43.3577 107.923 42.3212L105.991 44.1442C104.909 42.9887 104.024 41.6134 103.408 40.046L105.869 39.061C105.391 37.8404 105.162 36.5842 105.155 35.3458L102.513 35.3758C102.502 33.5476 102.878 31.7507 103.592 30.1007L106.012 31.1481C106.571 29.8606 107.389 28.6878 108.425 27.7127L106.62 25.7778C107.767 24.696 109.133 23.8048 110.684 23.1846C110.693 23.182 110.703 23.1766 110.711 23.174L111.681 25.6442C112.891 25.1626 114.135 24.9319 115.362 24.9206L115.343 22.2638C117.157 22.2468 118.937 22.6144 120.572 23.3247L119.518 25.7673C120.79 26.3214 121.952 27.135 122.915 28.1713L124.846 26.3484C125.923 27.5008 126.806 28.8718 127.418 30.4334L124.958 31.4183C125.436 32.6319 125.663 33.8838 125.674 35.1165L128.316 35.0865C128.33 36.9091 127.962 38.7034 127.254 40.3493L124.829 39.2988C124.28 40.5738 123.479 41.7343 122.462 42.7085L124.245 44.6641C123.096 45.7559 121.726 46.6555 120.171 47.2813L119.182 44.8219ZM119.462 33.6185C118.581 31.3736 116.054 30.2788 113.818 31.1746C111.582 32.0704 110.482 34.6159 111.364 36.8609C112.246 39.1058 114.773 40.2006 117.009 39.3048C119.245 38.409 120.344 35.8634 119.462 33.6185Z" fill="#C5CCD8"/>
<path opacity="0.87" d="M119.174 44.8198C118.279 45.1778 117.367 45.3997 116.455 45.4945C116.505 45.3688 116.553 45.246 116.6 45.1188C117.413 42.9776 118.032 40.7421 118.317 38.4783C119.631 37.2871 120.149 35.36 119.461 33.6119C119.157 32.8376 118.654 32.2059 118.04 31.7396C117.469 29.2709 116.321 27.0267 114.931 24.9283C115.072 24.9209 115.216 24.9151 115.356 24.915L115.337 22.2581C117.151 22.2411 118.931 22.6087 120.566 23.319L119.512 25.7617C120.784 26.3158 121.946 27.1295 122.909 28.1658L124.84 26.3428C125.917 27.4953 126.801 28.8664 127.412 30.428L124.952 31.413C125.43 32.6265 125.657 33.8785 125.668 35.1112L128.31 35.0812C128.324 36.9039 127.957 38.6983 127.248 40.3442L124.823 39.2937C124.274 40.5687 123.473 41.7292 122.456 42.7035L124.239 44.6592C123.09 45.751 121.72 46.6507 120.165 47.2765L119.177 44.8142C119.177 44.8213 119.177 44.8213 119.174 44.8198Z" fill="#AFB8C3"/>
<path d="M139.305 22.5412L139.303 22.5419C138.702 22.7828 138.08 22.9003 137.469 22.9089L137.478 24.2373C136.57 24.2486 135.677 24.0669 134.856 23.7138L135.384 22.4925C134.743 22.2167 134.161 21.8092 133.676 21.2909L132.71 22.2024C132.169 21.6246 131.727 20.937 131.419 20.1533L132.649 19.6608C132.41 19.0505 132.296 18.4224 132.292 17.8032L130.971 17.8182C130.966 16.9041 131.153 16.0056 131.511 15.1806L132.72 15.7043C133 15.0606 133.409 14.4742 133.927 13.9866L133.025 13.0192C133.598 12.4783 134.281 12.0327 135.057 11.7226C135.061 11.7213 135.066 11.7185 135.07 11.7172L135.555 12.9524C136.16 12.7116 136.782 12.5962 137.396 12.5905L137.386 11.2622C138.293 11.2537 139.183 11.4374 140.001 11.7926L139.473 13.0139C140.11 13.291 140.69 13.6978 141.172 14.2159L142.138 13.3045C142.676 13.8807 143.118 14.5662 143.424 15.347L142.193 15.8394C142.432 16.4462 142.546 17.0722 142.551 17.6885L143.872 17.6735C143.879 18.5848 143.696 19.482 143.341 20.3049L142.129 19.7797C141.854 20.4172 141.454 20.9974 140.945 21.4845L141.837 22.4623C141.262 23.0082 140.577 23.4581 139.8 23.771L139.305 22.5412ZM139.446 16.9395C139.005 15.8171 137.741 15.2697 136.623 15.7176C135.505 16.1655 134.956 17.4382 135.397 18.5607C135.837 19.6832 137.101 20.2306 138.219 19.7827C139.337 19.3348 139.887 18.062 139.446 16.9395Z" fill="#C5CCD8"/>
<path opacity="0.87" d="M139.302 22.54C138.854 22.719 138.398 22.83 137.942 22.8774C137.967 22.8145 137.991 22.7531 138.014 22.6895C138.421 21.6189 138.73 20.5012 138.873 19.3693C139.53 18.7737 139.789 17.8101 139.445 16.9361C139.293 16.5489 139.041 16.2331 138.734 15.9999C138.449 14.7656 137.875 13.6435 137.18 12.5943C137.251 12.5906 137.322 12.5877 137.393 12.5876L137.383 11.2592C138.29 11.2507 139.18 11.4345 139.998 11.7896L139.47 13.011C140.107 13.288 140.688 13.6949 141.169 14.213L142.135 13.3015C142.673 13.8778 143.115 14.5633 143.421 15.3441L142.19 15.8366C142.43 16.4434 142.543 17.0693 142.548 17.6857L143.87 17.6707C143.876 18.5821 143.693 19.4793 143.338 20.3022L142.126 19.777C141.852 20.4145 141.451 20.9947 140.942 21.4819L141.834 22.4597C141.259 23.0056 140.574 23.4554 139.797 23.7684L139.303 22.5372C139.303 22.5408 139.303 22.5408 139.302 22.54Z" fill="#AFB8C3"/>
<ellipse cx="50.72" cy="190.194" rx="23.0252" ry="22.3864" fill="#C64552"/>
<rect width="27.9493" height="3.49366" transform="matrix(0.716958 0.697069 -0.716958 0.697069 41.9531 179.235)" fill="white"/>
<rect width="27.9493" height="3.49366" transform="matrix(0.716958 -0.697069 0.716958 0.697069 39.4485 198.718)" fill="white"/>
<defs>
<radialGradient id="paint0_radial_275_1544" cx="0" cy="0" r="1" gradientUnits="userSpaceOnUse" gradientTransform="translate(91.2839 192.134) rotate(90) scale(17.3044 102.273)">
<stop offset="0.595324" stop-color="#EEF1F9"/>
<stop offset="1" stop-color="#D3D9E7"/>
</radialGradient>
</defs>
</svg>
