<svg viewBox="0 0 24 24" xmlns="http://www.w3.org/2000/svg" xmlns:xlink= "http://www.w3.org/1999/xlink">
  <g fillRule="nonzero" fill="none">
    <path d="M20.813 12.383l-3.402-1.97v5.475H21v-3.182a.374.374 0 00-.187-.323z" fill="#9ECDE3" />
    <path d="M7.67 12.955v3.224a.82.82 0 00.822.818h3.455v-4.041H7.67z" fill="#2B3666" />
    <path fill="#ABDAF3" d="M7.67 5.955h12.838v11H7.67z" />
    <path d="M7.434 21h12.764a.8.8 0 00.802-.798v-7.495s-.014.31-.832.763c-.617.342-13.065 7.325-13.065 7.325s.112.205.331.205z" fill="#D2EDFA" />
    <path d="M16.212 6.341h4.296V4.818A.82.82 0 0019.686 4H8.492a.82.82 0 00-.823.818V6.34h8.543z" fill="#D3EEFB" />
    <path d="M20.183 20.999L7.553 21a.8.8 0 01-.803-.798v-7.198l13.947 7.82a.765.765 0 01-.514.175z" fill="#D2EDFA" />
    <path d="M10.702 17.222H2.798A.796.796 0 012 16.428V8.572c0-.439.358-.794.798-.794h7.904c.44 0 .798.355.798.794v7.856a.796.796 0 01-.798.794z" fill="#DFF3FC" />
    <path d="M6.71 10.013c-1.488 0-2.384 1.13-2.384 2.523 0 1.394.893 2.523 2.383 2.523 1.491 0 2.383-1.13 2.383-2.523 0-1.393-.896-2.523-2.383-2.523zm0 4.195c-.844 0-1.349-.748-1.349-1.672 0-.923.507-1.67 1.348-1.67.841 0 1.349.748 1.349 1.67 0 .923-.506 1.672-1.349 1.672z" fill="#3084C5" />
  </g>
</svg>