<svg width="20px" height="20px" viewBox="0 0 20 20" xmlns="http://www.w3.org/2000/svg" xmlns:xlink= "http://www.w3.org/1999/xlink">
  <g id="🖥-Desktop-" stroke="none" strokeWidth="1" fill="none" fillRule="evenodd">
    <g id="Desktop.-SDP-Contact-Banners_Solution-Headers" transform="translate(-1123.000000, -631.000000)" fillRule="nonzero">
      <g id="Group" transform="translate(865.000000, 461.000000)">
        <g id="2.0-Form-/-Tooltip--Copy" transform="translate(24.000000, 138.000000)">
          <g id="Group-4-Copy">
            <g id="Group-15" transform="translate(20.000000, 28.000000)">
              <g id="Group-14">
                <g id="Group-13" transform="translate(178.000000, 2.000000)">
                  <g id="2.0-Icons-/-Contacts-/-Teams-" transform="translate(36.000000, 2.000000)">
                    <g id="microsoft-teams-1">
                      <circle id="Oval" fill="#7B83EB" cx="10.5749961" cy="3.73235157" r="2.90314746" />
                      <path d="M10.3678506,4.35441017 L7.73840893,4.35441017 L7.75147216,4.41226162 L7.75271627,4.41723809 L7.76640156,4.47073512 C8.16336809,5.97607628 9.67623067,6.90107585 11.1970547,6.56831671 L11.1970547,5.18361428 C11.1956883,4.72622466 10.8252402,4.35577654 10.3678506,4.35441017 L10.3678506,4.35441017 Z" id="Path" fill="#000000" opacity="0.1" />
                      <path d="M9.74579201,4.97646876 L7.95177502,4.97646876 C8.43235956,5.98971858 9.4535521,6.63556172 10.5749961,6.63549904 L10.5749961,5.80567287 C10.5736298,5.34828325 10.2031816,4.97783513 9.74579201,4.97646876 L9.74579201,4.97646876 Z" id="Path" fill="#000000" opacity="0.2" />
                      <circle id="Oval" fill="#5059C9" cx="17.1066114" cy="4.66543947" r="2.17720508" />
                      <path d="M18.9727872,7.46470314 L14.0827845,7.46470314 C13.8629103,7.46470314 13.684667,7.64294642 13.684667,7.86282065 L13.684667,12.9077159 C13.6568893,14.4124727 14.6860119,15.7313685 16.1523735,16.0702618 C17.0701109,16.2628266 18.0257616,16.0315797 18.7539321,15.4407406 C19.4821027,14.8499016 19.9052548,13.962385 19.9058751,13.0246629 L19.9058751,8.39779104 C19.9058751,7.88246082 19.4881174,7.46470314 18.9727872,7.46470314 Z" id="Path" fill="#5059C9" />
                      <path d="M15.5514657,8.39779104 L15.5514657,14.3073477 C15.5527195,16.5590937 14.0409071,18.5307434 11.8659674,19.1138372 C9.69102756,19.6969309 7.39567329,18.7459693 6.27035064,16.7955821 C6.15064777,16.5966372 6.04665553,16.3886527 5.95932134,16.1735235 C5.87790145,15.9706865 5.80933926,15.7629223 5.75404201,15.5514649 C5.65148797,15.1446856 5.59925913,14.7268548 5.59852653,14.3073477 L5.59852653,8.39779104 C5.5981966,8.15021949 5.69639757,7.91269271 5.87145725,7.73763304 C6.04651692,7.56257336 6.28404371,7.46437239 6.53161525,7.46470231 L14.618377,7.46470231 C14.8659485,7.46437239 15.1034753,7.56257336 15.278535,7.73763304 C15.4535947,7.91269271 15.5517956,8.15021949 15.5514657,8.39779104 Z" id="Path" fill="#7B83EB" />
                      <path d="M9.74579201,4.97646876 L7.95177502,4.97646876 C8.43235956,5.98971858 9.4535521,6.63556172 10.5749961,6.63549904 L10.5749961,5.80567287 C10.5736298,5.34828325 10.2031816,4.97783513 9.74579201,4.97646876 L9.74579201,4.97646876 Z" id="Path" fill="#000000" opacity="0.2" />
                      <path d="M11.1970547,7.46470231 L11.1970547,15.3461855 C11.1970547,15.7325661 10.9277016,16.0666816 10.5501138,16.1486411 C10.4915947,16.1660515 10.430764,16.174442 10.3697168,16.1735915 L5.95932134,16.1735915 C5.87790145,15.9706865 5.80933926,15.7629223 5.75404201,15.5514649 C5.65148797,15.1446856 5.59925913,14.7268548 5.59852653,14.3073477 L5.59852653,8.39779104 C5.5981966,8.15021949 5.69639757,7.91269271 5.87145725,7.73763304 C6.04651692,7.56257336 6.28404371,7.46437239 6.53161525,7.46470231 L11.1970547,7.46470231 Z" id="Path" fill="#000000" opacity="0.1" />
                      <path d="M10.5749961,7.46470231 L10.5749961,15.9682441 C10.5759049,16.0292908 10.5675147,16.09012 10.5501138,16.1486411 C10.4681543,16.5262289 10.1340387,16.7955821 9.74765819,16.7955821 L6.27035064,16.7955821 C6.15064777,16.5966372 6.04665553,16.3886527 5.95932134,16.1735235 C5.87790145,15.9706865 5.80933926,15.7629223 5.75404201,15.5514649 C5.65148797,15.1446856 5.59925913,14.7268548 5.59852653,14.3073477 L5.59852653,8.39779104 C5.5981966,8.15021949 5.69639757,7.91269271 5.87145725,7.73763304 C6.04651692,7.56257336 6.28404371,7.46437239 6.53161525,7.46470231 L10.5749961,7.46470231 Z" id="Path" fill="#000000" opacity="0.2" />
                      <path d="M10.5749961,7.46470231 L10.5749961,14.724127 C10.5729524,15.1802039 10.2037351,15.5494212 9.74765819,15.5514649 L5.75404201,15.5514649 C5.65148797,15.1446856 5.59925913,14.7268548 5.59852653,14.3073477 L5.59852653,8.39779104 C5.5981966,8.15021949 5.69639757,7.91269271 5.87145725,7.73763304 C6.04651692,7.56257336 6.28404371,7.46437239 6.53161525,7.46470231 L10.5749961,7.46470231 Z" id="Path" fill="#000000" opacity="0.2" />
                      <path d="M6.53161525,7.46470231 C6.28404371,7.46437239 6.04651692,7.56257336 5.87145725,7.73763304 C5.69639757,7.91269271 5.5981966,8.15021949 5.59852653,8.39779104 L5.59852653,14.3073477 C5.59925913,14.7268548 5.65148797,15.1446856 5.75404201,15.5514649 L9.12559959,15.5514649 C9.58167651,15.5494212 9.95089383,15.1802039 9.95293753,14.724127 L9.95293753,7.46470231 L6.53161525,7.46470231 Z" id="Path" fill="#000000" opacity="0.2" />
                      <path d="M0.829204108,4.97646876 L9.12373342,4.97646876 C9.5816902,4.97646876 9.95293753,5.34771609 9.95293753,5.80567287 L9.95293753,14.1002022 C9.95293753,14.558159 9.5816902,14.9294063 9.12373342,14.9294063 L0.829204108,14.9294063 C0.371247324,14.9294063 0,14.558159 0,14.1002022 L0,5.80567287 C0,5.34771609 0.371247324,4.97646876 0.829204108,4.97646876 Z" id="Path" fill="#4B53BC" />
                      <polygon id="Path" fill="#FFFFFF" points="7.45226197 8.07121027 5.59230677 8.07121027 5.59230677 13.0601202 4.37182781 13.0601202 4.37182781 8.07121027 2.50067555 8.07121027 2.50067555 6.84575484 7.45226197 6.84575484" />
                    </g>
                  </g>
                </g>
              </g>
            </g>
          </g>
        </g>
      </g>
    </g>
  </g>
</svg>