<svg viewBox="0 0 23 19" xmlns="http://www.w3.org/2000/svg" xmlns:xlink= "http://www.w3.org/1999/xlink">
  <path d="M22.4 2.21a8.976 8.976 0 0 1-2.639.741A4.702 4.702 0 0 0 21.782.345c-.889.54-1.87.932-2.92 1.142A4.532 4.532 0 0 0 15.508 0c-2.536 0-4.594 2.11-4.594 4.712 0 .37.04.728.118 1.073C7.212 5.59 3.827 3.715 1.56.86a4.798 4.798 0 0 0-.622 2.372c0 1.634.812 3.077 2.045 3.922a4.512 4.512 0 0 1-2.083-.588v.058c0 2.284 1.585 4.189 3.688 4.62-.385.111-.791.166-1.21.166-.296 0-.586-.028-.866-.083.585 1.871 2.281 3.234 4.293 3.27A9.074 9.074 0 0 1 0 16.552a12.795 12.795 0 0 0 7.045 2.116c8.454 0 13.075-7.18 13.075-13.407 0-.205-.004-.41-.012-.611a9.432 9.432 0 0 0 2.292-2.44" fill="#202025" fillRule="evenodd" />
</svg>