<?xml version="1.0" encoding="UTF-8"?>
<svg width="32px" height="40px" viewBox="0 0 32 40" version="1.1" xmlns="http://www.w3.org/2000/svg" xmlns:xlink="http://www.w3.org/1999/xlink">
    <title>Group Copy 13</title>
    <defs>
        <linearGradient x1="82.9913716%" y1="71.1895102%" x2="17.0086284%" y2="45.4079641%" id="linearGradient-1">
            <stop stop-color="#956D13" offset="0%"></stop>
            <stop stop-color="#9D751C" offset="18.77%"></stop>
            <stop stop-color="#B48C33" offset="49.01%"></stop>
            <stop stop-color="#D8B05A" offset="86.76%"></stop>
            <stop stop-color="#E6BE69" offset="100%"></stop>
        </linearGradient>
        <linearGradient x1="49.9981873%" y1="98.7223155%" x2="49.9981873%" y2="4.46838922%" id="linearGradient-2">
            <stop stop-color="#956D13" offset="0%"></stop>
            <stop stop-color="#E6BE69" offset="50%"></stop>
            <stop stop-color="#FFEC94" offset="100%"></stop>
        </linearGradient>
        <linearGradient x1="81.1852666%" y1="84.2719166%" x2="30.1975543%" y2="28.236253%" id="linearGradient-3">
            <stop stop-color="#492001" offset="0%"></stop>
            <stop stop-color="#281201" offset="100%"></stop>
        </linearGradient>
        <linearGradient x1="81.1833351%" y1="84.2720602%" x2="30.1955931%" y2="28.2363679%" id="linearGradient-4">
            <stop stop-color="#956D13" offset="0%"></stop>
            <stop stop-color="#E6BE69" offset="50%"></stop>
            <stop stop-color="#FFEC94" offset="100%"></stop>
        </linearGradient>
        <linearGradient x1="59.8553402%" y1="59.5253708%" x2="21.9766036%" y2="22.9102224%" id="linearGradient-5">
            <stop stop-color="#492001" offset="0%"></stop>
            <stop stop-color="#441E01" offset="5.65%"></stop>
            <stop stop-color="#341701" offset="31.44%"></stop>
            <stop stop-color="#2B1301" offset="60.6%"></stop>
            <stop stop-color="#281201" offset="100%"></stop>
        </linearGradient>
        <linearGradient x1="49.9996996%" y1="98.7199189%" x2="49.9996996%" y2="4.46676431%" id="linearGradient-6">
            <stop stop-color="#956D13" offset="0%"></stop>
            <stop stop-color="#9E761C" offset="8.13%"></stop>
            <stop stop-color="#C59D46" offset="48.82%"></stop>
            <stop stop-color="#DDB55F" offset="80.83%"></stop>
            <stop stop-color="#E6BE69" offset="100%"></stop>
        </linearGradient>
    </defs>
    <g id="Symbols" stroke="none" stroke-width="1" fill="none" fill-rule="evenodd">
        <g id="Awards/1344" transform="translate(-148.000000, -216.000000)" fill-rule="nonzero">
            <g id="Awards" transform="translate(40.000000, 52.000000)">
                <g id="Award-Card" transform="translate(0.000000, 68.000000)">
                    <g id="Award-Image" transform="translate(28.000000, 20.000000)">
                        <g id="Group" transform="translate(80.000000, 76.000000)">
                            <path d="M22.5642478,39.8051044 L16.4710324,35.2454756 C16.2661947,35.0923434 15.9839528,35.0895592 15.7762832,35.2389791 L9.36684366,39.8403712 C8.98265487,40.1160093 8.44271386,39.8468677 8.44271386,39.3791183 L8.44271386,21.9925754 C8.44271386,21.6770302 8.70324484,21.4208817 9.02324484,21.4208817 L22.9144543,21.4208817 C23.2353982,21.4208817 23.4949961,21.6770302 23.4949961,21.9925754 L23.4949961,39.350348 C23.4978171,39.8227378 22.9465487,40.0909513 22.5642478,39.8051044 Z" id="Path" fill="url(#linearGradient-1)"></path>
                            <path d="M16.7306195,0.381438515 L18.1710914,2.00185615 L20.0505015,0.89837587 C20.5753392,0.59025522 21.2549853,0.807424594 21.4956932,1.35962877 L22.3565782,3.33828306 L24.4899115,2.86032483 C25.0855457,2.72668213 25.6641888,3.14060325 25.7189381,3.73828306 L25.9152802,5.8812065 L28.0948673,6.07424594 C28.7037168,6.12807425 29.1237758,6.69698376 28.9878466,7.28259861 L28.5017109,9.3800464 L30.5142183,10.2264501 C31.0758702,10.462181 31.2967552,11.1313225 30.9833628,11.6473318 L29.8610029,13.4951276 L31.5091445,14.9113689 C31.9688496,15.3067285 31.9688496,16.0102088 31.5091445,16.4046404 L29.8610029,17.8208817 L30.9833628,19.6686775 C31.2967552,20.1846868 31.0758702,20.8529002 30.5142183,21.0895592 L28.5017109,21.9359629 L28.9878466,24.0334107 C29.1237758,24.6190255 28.7027729,25.187935 28.0948673,25.2417633 L25.9152802,25.4348028 L25.7189381,27.5777262 C25.6641888,28.1763341 25.0855457,28.5893271 24.4899115,28.4556845 L22.3565782,27.9777262 L21.4956932,29.9563805 C21.2559292,30.5085847 20.5753392,30.7257541 20.0505015,30.4176334 L18.1710914,29.3141531 L16.7306195,30.9345708 C16.3284956,31.3865429 15.6129794,31.3865429 15.2117994,30.9345708 L13.7713274,29.3141531 L11.8919174,30.4176334 C11.3670796,30.7257541 10.6874336,30.5085847 10.4467257,29.9563805 L9.58584071,27.9777262 L7.45250737,28.4556845 C6.85687316,28.5893271 6.27823009,28.175406 6.22348083,27.5777262 L6.02713864,25.4348028 L3.84755162,25.2417633 C3.23964602,25.187935 2.81864307,24.6190255 2.95457227,24.0334107 L3.44070796,21.9359629 L1.42820059,21.0895592 C0.866548673,20.8538283 0.645663717,20.1846868 0.959056047,19.6686775 L2.08141593,17.8208817 L0.433274336,16.4046404 C-0.0264306785,16.0092807 -0.0264306785,15.3058005 0.433274336,14.9113689 L2.08141593,13.4951276 L0.959056047,11.6473318 C0.645663717,11.1313225 0.866548673,10.463109 1.42820059,10.2264501 L3.44070796,9.3800464 L2.95457227,7.28259861 C2.81864307,6.69698376 3.23964602,6.12807425 3.84755162,6.07424594 L6.02713864,5.8812065 L6.22348083,3.73828306 C6.27823009,3.14060325 6.85687316,2.72668213 7.45250737,2.86032483 L9.58584071,3.33828306 L10.4467257,1.35962877 C10.6864897,0.807424594 11.3670796,0.59025522 11.8919174,0.89837587 L13.7713274,2.00185615 L15.2117994,0.381438515 C15.6129794,-0.0705336427 16.3284956,-0.0705336427 16.7306195,0.381438515 Z" id="Path" fill="url(#linearGradient-2)"></path>
                            <path d="M16.820295,0.426914153 L18.260767,2.04733179 L20.140177,0.943851508 C20.6650147,0.635730858 21.3446608,0.852900232 21.5853687,1.40510441 L22.4462537,3.3837587 L24.579587,2.90580046 C25.1752212,2.77215777 25.7538643,3.18607889 25.8086136,3.7837587 L26.0049558,5.92668213 L28.1845428,6.11972158 C28.7924484,6.17354988 29.2134513,6.7424594 29.0775221,7.32807425 L28.5913864,9.42552204 L30.6038938,10.2719258 C31.1655457,10.5076566 31.3864307,11.1767981 31.0730383,11.6928074 L29.9506785,13.5406032 L31.5988201,14.9568445 C32.0585251,15.3522042 32.0585251,16.0556845 31.5988201,16.450116 L29.9506785,17.8663573 L31.0730383,19.7141531 C31.3864307,20.2301624 31.1655457,20.8983759 30.6038938,21.1350348 L28.5913864,21.9814385 L29.0775221,24.0788863 C29.2134513,24.6645012 28.7924484,25.2334107 28.1845428,25.287239 L26.0049558,25.4802784 L25.8086136,27.6232019 C25.7538643,28.2208817 25.1752212,28.6348028 24.579587,28.5011601 L22.4462537,28.0232019 L21.5853687,30.0018561 C21.3456047,30.5540603 20.6650147,30.7712297 20.140177,30.463109 L18.260767,29.3596288 L16.820295,30.9800464 C16.4181711,31.4320186 15.7026549,31.4320186 15.3014749,30.9800464 L13.8610029,29.3596288 L11.9815929,30.463109 C11.4567552,30.7712297 10.7771091,30.5540603 10.5364012,30.0018561 L9.67551622,28.0232019 L7.54123894,28.5011601 C6.94560472,28.6348028 6.36696165,28.2208817 6.31221239,27.6232019 L6.11587021,25.4802784 L3.93628319,25.287239 C3.32837758,25.2334107 2.90737463,24.6645012 3.04330383,24.0788863 L3.52943953,21.9814385 L1.51693215,21.1350348 C0.955280236,20.8993039 0.73439528,20.2301624 1.04778761,19.7141531 L2.17109145,17.8663573 L0.522949853,16.450116 C0.0632448378,16.0547564 0.0632448378,15.3512761 0.522949853,14.9568445 L2.17109145,13.5406032 L1.04873156,11.6928074 C0.735339233,11.1767981 0.956224189,10.5085847 1.51787611,10.2719258 L3.53038348,9.42552204 L3.04424779,7.32807425 C2.90831858,6.7424594 3.32932153,6.17354988 3.93722714,6.11972158 L6.11681416,5.92668213 L6.31315634,3.7837587 C6.3679056,3.18515081 6.94654867,2.77215777 7.54218289,2.90580046 L9.67646018,3.3837587 L10.5373451,1.40510441 C10.7771091,0.852900232 11.4576991,0.635730858 11.9825369,0.943851508 L13.8619469,2.04733179 L15.3024189,0.426914153 C15.7035988,-0.0250580046 16.4181711,-0.0250580046 16.820295,0.426914153 Z" id="Path" fill="url(#linearGradient-3)"></path>
                            <path d="M16.7306195,0.381438515 L18.1710914,2.00185615 L20.0505015,0.89837587 C20.5753392,0.59025522 21.2549853,0.807424594 21.4956932,1.35962877 L22.3565782,3.33828306 L24.4899115,2.86032483 C25.0855457,2.72668213 25.6641888,3.14060325 25.7189381,3.73828306 L25.9152802,5.8812065 L28.0948673,6.07424594 C28.7037168,6.12807425 29.1237758,6.69698376 28.9878466,7.28259861 L28.5017109,9.3800464 L30.5142183,10.2264501 C31.0758702,10.462181 31.2967552,11.1313225 30.9833628,11.6473318 L29.8610029,13.4951276 L31.5091445,14.9113689 C31.9688496,15.3067285 31.9688496,16.0102088 31.5091445,16.4046404 L29.8610029,17.8208817 L30.9833628,19.6686775 C31.2967552,20.1846868 31.0758702,20.8529002 30.5142183,21.0895592 L28.5017109,21.9359629 L28.9878466,24.0334107 C29.1237758,24.6190255 28.7027729,25.187935 28.0948673,25.2417633 L25.9152802,25.4348028 L25.7189381,27.5777262 C25.6641888,28.1763341 25.0855457,28.5893271 24.4899115,28.4556845 L22.3565782,27.9777262 L21.4956932,29.9563805 C21.2559292,30.5085847 20.5753392,30.7257541 20.0505015,30.4176334 L18.1710914,29.3141531 L16.7306195,30.9345708 C16.3284956,31.3865429 15.6129794,31.3865429 15.2117994,30.9345708 L13.7713274,29.3141531 L11.8919174,30.4176334 C11.3670796,30.7257541 10.6874336,30.5085847 10.4467257,29.9563805 L9.58584071,27.9777262 L7.45250737,28.4556845 C6.85687316,28.5893271 6.27823009,28.175406 6.22348083,27.5777262 L6.02713864,25.4348028 L3.84755162,25.2417633 C3.23964602,25.187935 2.81864307,24.6190255 2.95457227,24.0334107 L3.44070796,21.9359629 L1.42820059,21.0895592 C0.866548673,20.8538283 0.645663717,20.1846868 0.959056047,19.6686775 L2.08141593,17.8208817 L0.433274336,16.4046404 C-0.0264306785,16.0092807 -0.0264306785,15.3058005 0.433274336,14.9113689 L2.08141593,13.4951276 L0.959056047,11.6473318 C0.645663717,11.1313225 0.866548673,10.463109 1.42820059,10.2264501 L3.44070796,9.3800464 L2.95457227,7.28259861 C2.81864307,6.69698376 3.23964602,6.12807425 3.84755162,6.07424594 L6.02713864,5.8812065 L6.22348083,3.73828306 C6.27823009,3.14060325 6.85687316,2.72668213 7.45250737,2.86032483 L9.58584071,3.33828306 L10.4467257,1.35962877 C10.6864897,0.807424594 11.3670796,0.59025522 11.8919174,0.89837587 L13.7713274,2.00185615 L15.2117994,0.381438515 C15.6129794,-0.0705336427 16.3284956,-0.0705336427 16.7306195,0.381438515 Z" id="Path" fill="url(#linearGradient-4)"></path>
                            <path d="M16.0151032,3.34756381 C9.07421829,3.34756381 3.44731563,8.87981439 3.44731563,15.7039443 C3.44731563,22.5280742 9.07421829,28.0603248 16.0151032,28.0603248 C22.9559882,28.0603248 28.5828909,22.5280742 28.5828909,15.7039443 C28.5819469,8.87888631 22.9559882,3.34756381 16.0151032,3.34756381 Z M16.0151032,27.5962877 C9.33380531,27.5962877 3.91834808,22.2709977 3.91834808,15.7030162 C3.91834808,9.1350348 9.33474926,3.80974478 16.0151032,3.80974478 C22.6964012,3.80974478 28.1118584,9.1350348 28.1118584,15.7030162 C28.1118584,22.2709977 22.6954572,27.5962877 16.0151032,27.5962877 Z" id="Shape" fill="url(#linearGradient-5)"></path>
                            <path d="M15.9707375,3.30208817 C9.02985251,3.30208817 3.40294985,8.83433875 3.40294985,15.6584687 C3.40294985,22.4825986 9.02985251,28.0148492 15.9707375,28.0148492 C22.9116224,28.0148492 28.5385251,22.4825986 28.5385251,15.6584687 C28.5385251,8.83341067 22.9116224,3.30208817 15.9707375,3.30208817 Z M15.9707375,27.5517401 C9.28943953,27.5517401 3.8739823,22.2264501 3.8739823,15.6584687 C3.8739823,9.08955916 9.29038348,3.76519722 15.9707375,3.76519722 C22.6520354,3.76519722 28.0674926,9.09048724 28.0674926,15.6584687 C28.0674926,22.2264501 22.6520354,27.5517401 15.9707375,27.5517401 Z" id="Shape" fill="url(#linearGradient-6)"></path>
                            <path d="M15.7564602,27.1359629 C15.7564602,26.999536 15.8697345,26.8881671 16.0084956,26.8881671 L16.0084956,26.8881671 C16.1472566,26.8881671 16.260531,26.999536 16.2614749,27.1359629 L16.2614749,27.1359629 C16.2614749,27.2723898 16.1482006,27.3837587 16.0094395,27.3837587 L16.0094395,27.3837587 C15.8687906,27.3837587 15.7574041,27.2733179 15.7564602,27.1359629 Z M14.7662537,27.3215777 C14.6274926,27.3076566 14.5274336,27.1860789 14.5415929,27.049652 L14.5415929,27.049652 C14.5557522,26.9132251 14.67941,26.8148492 14.8181711,26.8287703 L14.8181711,26.8287703 C14.9569322,26.8426914 15.0569912,26.9642691 15.0428319,27.1006961 L15.0428319,27.1006961 C15.0296165,27.2287703 14.920118,27.3225058 14.7926844,27.3225058 L14.7926844,27.3225058 C14.7832448,27.3225058 14.7747493,27.3225058 14.7662537,27.3215777 Z M16.9751032,27.099768 C16.96,26.9642691 17.0610029,26.8417633 17.1988201,26.8269142 L17.1988201,26.8269142 C17.3375811,26.812993 17.4621829,26.912297 17.4763422,27.0477958 L17.4763422,27.0477958 C17.4905015,27.1832947 17.3894985,27.3058005 17.2516814,27.3206497 L17.2516814,27.3206497 C17.2422419,27.3215777 17.2346903,27.3215777 17.2252507,27.3215777 L17.2252507,27.3215777 C17.0978171,27.3215777 16.9883186,27.2259861 16.9751032,27.099768 Z M13.5362832,27.1322506 C13.400354,27.1044084 13.3125664,26.9726218 13.3418289,26.8389791 L13.3418289,26.8389791 C13.3701475,26.7053364 13.5041888,26.6190255 13.640118,26.6477958 L13.640118,26.6477958 C13.7760472,26.6756381 13.8638348,26.8074246 13.8345723,26.9410673 L13.8345723,26.9410673 C13.8090855,27.0580046 13.7043068,27.136891 13.5882006,27.136891 L13.5882006,27.136891 C13.5702655,27.136891 13.5532743,27.1359629 13.5362832,27.1322506 Z M18.1824189,26.9392111 C18.1531563,26.8055684 18.24,26.6737819 18.3759292,26.6450116 L18.3759292,26.6450116 C18.5118584,26.6162413 18.6458997,26.7025522 18.6751622,26.8361949 L18.6751622,26.8361949 C18.7034808,26.9698376 18.6166372,27.1016241 18.480708,27.1294664 L18.480708,27.1294664 C18.4627729,27.1331787 18.4457817,27.1350348 18.4278466,27.1350348 L18.4278466,27.1350348 C18.3117404,27.1350348 18.2079056,27.0552204 18.1824189,26.9392111 Z M12.3327434,26.8167053 C12.20059,26.7740139 12.1279056,26.6348028 12.1703835,26.5048724 L12.1703835,26.5048724 C12.2138053,26.374942 12.3553982,26.3034803 12.4875516,26.3452436 L12.4875516,26.3452436 C12.620649,26.387935 12.6923894,26.5271462 12.6499115,26.6570766 L12.6499115,26.6570766 C12.6159292,26.761949 12.5168142,26.8287703 12.4101475,26.8287703 L12.4101475,26.8287703 C12.3846608,26.8287703 12.359174,26.825058 12.3327434,26.8167053 Z M19.3661357,26.6533643 C19.3227139,26.5234339 19.3953982,26.3842227 19.5275516,26.3424594 L19.5275516,26.3415313 C19.660649,26.299768 19.8031858,26.3712297 19.8447198,26.5011601 L19.8447198,26.5011601 C19.8881416,26.6310905 19.8154572,26.7712297 19.6833038,26.812993 L19.6833038,26.812993 L19.6833038,26.812993 L19.6833038,26.812993 C19.6568732,26.8213457 19.6304425,26.825058 19.6058997,26.825058 L19.6058997,26.825058 C19.499233,26.825058 19.400118,26.7582367 19.3661357,26.6533643 Z M11.1707375,26.3786543 C11.0433038,26.3229698 10.9866667,26.1763341 11.0423599,26.0519722 L11.0423599,26.0519722 C11.0989971,25.9266821 11.2481416,25.8709977 11.3746313,25.9257541 L11.3746313,25.9257541 C11.5020649,25.9814385 11.5587021,26.1280742 11.5030088,26.2524362 L11.5030088,26.2524362 C11.460531,26.3443155 11.3689676,26.3990719 11.2717404,26.3990719 L11.2717404,26.3990719 C11.2377581,26.4 11.2037758,26.3935035 11.1707375,26.3786543 Z M20.5120944,26.2477958 C20.4554572,26.1225058 20.5130383,25.9758701 20.640472,25.9211137 L20.640472,25.9211137 C20.7679056,25.8654292 20.9170501,25.9211137 20.9727434,26.0473318 L20.9727434,26.0473318 C21.0293805,26.1726218 20.9727434,26.3183295 20.8453097,26.3740139 L20.8453097,26.3740139 C20.8122714,26.387935 20.7764012,26.3944316 20.7424189,26.3944316 L20.7424189,26.3944316 C20.6461357,26.3953596 20.5545723,26.3406032 20.5120944,26.2477958 Z M10.060649,25.8227378 C9.94076696,25.7540603 9.89923304,25.6027842 9.96908555,25.4839907 L9.96908555,25.4839907 C10.0389381,25.3661253 10.1928024,25.32529 10.3126844,25.3939675 L10.3126844,25.3939675 C10.4335103,25.462645 10.4750442,25.6139211 10.4051917,25.7327146 L10.4051917,25.7327146 C10.3579941,25.8116009 10.2730383,25.8570766 10.1861947,25.8570766 L10.1861947,25.8570766 C10.1427729,25.8570766 10.1012389,25.8459397 10.060649,25.8227378 Z M21.6089676,25.7271462 C21.539115,25.6083527 21.580649,25.4561485 21.7014749,25.3883991 L21.7014749,25.3883991 C21.8213569,25.3197216 21.9752212,25.3605568 22.0450737,25.4784223 L22.0450737,25.4784223 C22.1149263,25.5972158 22.0743363,25.7484919 21.9535103,25.8171694 L21.9535103,25.8171694 C21.9138643,25.8403712 21.8704425,25.85058 21.8279646,25.85058 L21.8279646,25.85058 C21.7411209,25.85058 21.6561652,25.8060325 21.6089676,25.7271462 Z M9.01663717,25.1563805 C8.90336283,25.0756381 8.87882006,24.9206497 8.96,24.8102088 L8.96,24.8102088 C9.04117994,24.6988399 9.19976401,24.67471 9.3120944,24.7554524 L9.3120944,24.7554524 C9.42536873,24.8352668 9.4499115,24.9902552 9.36873156,25.1016241 L9.36873156,25.1016241 C9.31964602,25.1684455 9.24318584,25.2037123 9.16389381,25.2037123 L9.16389381,25.2037123 C9.11292035,25.2037123 9.0619469,25.187935 9.01663717,25.1563805 Z M22.6454277,25.0941995 C22.5623599,24.9837587 22.5878466,24.8287703 22.700177,24.7480278 L22.700177,24.7480278 C22.8134513,24.6672854 22.9710914,24.6914153 23.0532153,24.8027842 L23.0532153,24.8027842 C23.1353392,24.9141531 23.1107965,25.0682135 22.9975221,25.1489559 L22.9975221,25.1489559 C22.9522124,25.1814385 22.900295,25.1962877 22.8493215,25.1962877 L22.8493215,25.1962877 C22.7709735,25.1962877 22.6945133,25.1610209 22.6454277,25.0941995 Z M8.04908555,24.3860789 C7.94525074,24.2951276 7.93675516,24.1382831 8.03020649,24.0361949 L8.03020649,24.0361949 C8.12271386,23.9341067 8.28318584,23.9266821 8.3860767,24.0176334 L8.3860767,24.0176334 C8.4899115,24.1095128 8.49840708,24.2663573 8.40495575,24.3675174 L8.40495575,24.3675174 C8.35492625,24.4222738 8.2860177,24.450116 8.21710914,24.450116 L8.21710914,24.450116 C8.15764012,24.4491879 8.09817109,24.4287703 8.04908555,24.3860789 Z M23.6082596,24.3600928 C23.5148083,24.2589327 23.5223599,24.1020882 23.6261947,24.0102088 L23.6261947,24.0102088 C23.7300295,23.9192575 23.8895575,23.9266821 23.9820649,24.0287703 L23.9820649,24.0287703 C24.0755162,24.1299304 24.0670206,24.2867749 23.9641298,24.3777262 L23.9641298,24.3777262 C23.9159882,24.4213457 23.8555752,24.4417633 23.7951622,24.4417633 L23.7951622,24.4417633 C23.7262537,24.4426914 23.6573451,24.4148492 23.6082596,24.3600928 Z M7.16837758,23.5220418 C7.07492625,23.4199536 7.08342183,23.263109 7.18631268,23.1712297 L7.18631268,23.1712297 C7.29014749,23.0802784 7.44967552,23.087703 7.54218289,23.1897912 L7.54218289,23.1897912 C7.63563422,23.2909513 7.6280826,23.4477958 7.52424779,23.5396752 L7.52424779,23.5396752 C7.47610619,23.5823666 7.41569322,23.6027842 7.35622419,23.6027842 L7.35622419,23.6027842 C7.28637168,23.6027842 7.21746313,23.574942 7.16837758,23.5220418 Z M24.4880236,23.5313225 C24.3841888,23.4394432 24.3756932,23.2825986 24.4691445,23.1814385 L24.4691445,23.1805104 C24.5625959,23.0793503 24.7221239,23.0719258 24.8250147,23.162877 L24.8250147,23.162877 C24.9288496,23.2538283 24.9373451,23.4116009 24.8438938,23.512761 L24.8438938,23.512761 L24.8438938,23.512761 L24.8438938,23.512761 C24.7938643,23.5675174 24.7249558,23.5953596 24.6560472,23.5953596 L24.6560472,23.5953596 C24.5956342,23.5953596 24.5352212,23.5740139 24.4880236,23.5313225 Z M6.3839528,22.5707657 L6.3839528,22.5707657 L6.3839528,22.5707657 C6.30088496,22.4603248 6.32637168,22.3053364 6.43870206,22.224594 L6.43870206,22.224594 C6.5519764,22.1429234 6.70867257,22.1679814 6.79174041,22.2793503 L6.79174041,22.2793503 C6.87292035,22.3897912 6.84837758,22.5447796 6.7360472,22.625522 L6.7360472,22.625522 C6.69073746,22.6570766 6.63976401,22.6728538 6.58784661,22.6728538 L6.58784661,22.6728538 C6.51044248,22.6728538 6.4320944,22.637587 6.3839528,22.5707657 Z M25.2752802,22.6171694 C25.1620059,22.5354988 25.1384071,22.3814385 25.219587,22.2709977 L25.219587,22.2709977 C25.3017109,22.1596288 25.4584071,22.1354988 25.5716814,22.2162413 L25.5716814,22.2162413 C25.6849558,22.2960557 25.7085546,22.4510441 25.6273746,22.562413 L25.6273746,22.562413 C25.5782891,22.6292343 25.5018289,22.6645012 25.4234808,22.6645012 L25.4234808,22.6645012 C25.3725074,22.6645012 25.319646,22.6487239 25.2752802,22.6171694 Z M5.70336283,21.5461717 C5.63351032,21.4273782 5.67504425,21.2761021 5.79492625,21.2074246 L5.79492625,21.2074246 C5.91575221,21.1387471 6.07056047,21.1786543 6.13946903,21.2974478 L6.13946903,21.2974478 C6.20932153,21.4162413 6.16778761,21.5675174 6.0479056,21.6361949 L6.0479056,21.6361949 C6.00825959,21.6593968 5.96389381,21.6686775 5.92235988,21.6686775 L5.92235988,21.6686775 C5.83551622,21.6696056 5.75056047,21.6259861 5.70336283,21.5461717 Z M25.9615339,21.6269142 C25.8416519,21.5582367 25.800118,21.4069606 25.8699705,21.2881671 L25.8699705,21.2881671 C25.939823,21.1703016 26.0936873,21.1294664 26.2135693,21.1981439 L26.2135693,21.1981439 C26.3343953,21.2668213 26.3759292,21.4180974 26.3060767,21.5359629 L26.3060767,21.5359629 C26.2588791,21.6157773 26.1739233,21.6603248 26.0870796,21.6603248 L26.0870796,21.6603248 C26.0455457,21.6593968 26.0011799,21.6482599 25.9615339,21.6269142 Z M5.13699115,20.4566125 L5.13699115,20.4566125 L5.13699115,20.4566125 C5.08035398,20.3313225 5.13699115,20.1846868 5.26442478,20.1280742 L5.26442478,20.1280742 C5.39185841,20.0723898 5.54100295,20.1290023 5.59669617,20.2542923 L5.59669617,20.2542923 C5.65427729,20.3795824 5.59669617,20.5243619 5.46926254,20.5809745 L5.46926254,20.5809745 C5.43622419,20.5958237 5.40129794,20.6023202 5.36637168,20.6023202 L5.36637168,20.6023202 C5.27103245,20.6032483 5.17946903,20.54942 5.13699115,20.4566125 Z M26.539233,20.5707657 C26.4117994,20.5150812 26.3551622,20.3684455 26.4108555,20.2440835 L26.4108555,20.2440835 C26.4684366,20.1187935 26.6166372,20.063109 26.7450147,20.1178654 L26.7450147,20.1178654 C26.8724484,20.1735499 26.9281416,20.3201856 26.8724484,20.4445476 L26.8724484,20.4445476 C26.8309145,20.5364269 26.7384071,20.5921114 26.6430678,20.5921114 L26.6430678,20.5921114 C26.6081416,20.5930394 26.5732153,20.5856148 26.539233,20.5707657 Z M4.68955752,19.3141531 C4.64613569,19.1842227 4.71882006,19.0440835 4.85097345,19.0023202 L4.85097345,19.0023202 C4.9840708,18.9596288 5.12660767,19.0310905 5.16908555,19.1610209 L5.16908555,19.1610209 C5.21156342,19.2918794 5.13982301,19.4320186 5.00672566,19.4737819 L5.00672566,19.4737819 C4.98123894,19.4821346 4.95386431,19.4858469 4.92932153,19.4858469 L4.92932153,19.4858469 C4.82359882,19.4858469 4.72353982,19.4190255 4.68955752,19.3141531 Z M27.000826,19.4617169 C26.8686726,19.4190255 26.7959882,19.2788863 26.8384661,19.149884 L26.8384661,19.149884 C26.8818879,19.0190255 27.0244248,18.9475638 27.1556342,18.9902552 L27.1556342,18.9902552 C27.2887316,19.0329466 27.360472,19.1721578 27.3179941,19.3020882 L27.3179941,19.3020882 C27.2840118,19.4069606 27.1848968,19.4737819 27.0782301,19.4737819 L27.0782301,19.4737819 C27.0536873,19.4737819 27.0272566,19.4700696 27.000826,19.4617169 Z M4.36672566,18.1317865 C4.33746313,17.9981439 4.42525074,17.8663573 4.56117994,17.8385151 L4.56117994,17.8385151 C4.69710914,17.8097448 4.83020649,17.8951276 4.85946903,18.0287703 L4.85946903,18.0287703 C4.88873156,18.162413 4.80188791,18.2941995 4.66501475,18.3229698 L4.66501475,18.3229698 C4.6480236,18.3266821 4.63103245,18.3276102 4.61215339,18.3276102 L4.61215339,18.3276102 C4.49699115,18.3285383 4.39221239,18.2487239 4.36672566,18.1317865 Z M27.3415929,18.3109049 C27.2047198,18.2821346 27.1178761,18.150348 27.1471386,18.0167053 L27.1471386,18.0167053 C27.1754572,17.8830626 27.3094985,17.7976798 27.4454277,17.825522 L27.4454277,17.825522 C27.5813569,17.8542923 27.6682006,17.9860789 27.639882,18.1197216 L27.639882,18.1197216 C27.6143953,18.2357309 27.5096165,18.3155452 27.3925664,18.3155452 L27.3925664,18.3155452 C27.3765192,18.3164733 27.359528,18.3146172 27.3415929,18.3109049 Z M4.17227139,16.9234339 C4.15811209,16.787007 4.25817109,16.6645012 4.39693215,16.65058 L4.39693215,16.65058 C4.53474926,16.6366589 4.65935103,16.7350348 4.67351032,16.8714617 L4.67351032,16.8714617 C4.68861357,17.0069606 4.58761062,17.1294664 4.44979351,17.1433875 L4.44979351,17.1433875 C4.44035398,17.1443155 4.43185841,17.1452436 4.42336283,17.1452436 L4.42336283,17.1452436 C4.29498525,17.1461717 4.18548673,17.05058 4.17227139,16.9234339 Z M27.5568142,17.1322506 C27.4189971,17.1174014 27.3179941,16.9958237 27.3321534,16.8593968 L27.3321534,16.8593968 C27.3463127,16.7238979 27.4699705,16.624594 27.6087316,16.6385151 L27.6087316,16.6385151 C27.7474926,16.6533643 27.8484956,16.774942 27.8333923,16.9113689 L27.8333923,16.9113689 C27.820177,17.0385151 27.7106785,17.1331787 27.5832448,17.1331787 L27.5832448,17.1331787 C27.5738053,17.1331787 27.5653097,17.1331787 27.5568142,17.1322506 Z M4.10713864,15.7011601 C4.10713864,15.5647332 4.22041298,15.4533643 4.35917404,15.4533643 L4.35917404,15.4533643 C4.4979351,15.4533643 4.61120944,15.5647332 4.61120944,15.7011601 L4.61120944,15.7011601 C4.61120944,15.837587 4.4979351,15.9489559 4.35917404,15.9489559 L4.35917404,15.9489559 C4.21946903,15.9489559 4.10713864,15.8385151 4.10713864,15.7011601 Z M27.3935103,15.6890951 C27.3935103,15.6853828 27.3935103,15.6825986 27.3935103,15.6779582 L27.3935103,15.6779582 C27.3935103,15.6733179 27.3935103,15.6686775 27.3935103,15.6640371 L27.3935103,15.6640371 C27.3935103,15.5276102 27.5058407,15.4162413 27.6446018,15.4153132 L27.6446018,15.4153132 C27.7833628,15.4153132 27.8975811,15.5266821 27.8975811,15.663109 L27.8975811,15.663109 C27.8975811,15.6668213 27.8975811,15.6723898 27.8975811,15.6761021 L27.8975811,15.6761021 C27.8975811,15.6798144 27.8975811,15.6853828 27.8975811,15.6890951 L27.8975811,15.6890951 C27.8975811,15.825522 27.7843068,15.936891 27.6455457,15.936891 L27.6455457,15.936891 C27.5058407,15.936891 27.3935103,15.825522 27.3935103,15.6890951 Z M4.39410029,14.7517401 C4.25628319,14.736891 4.15528024,14.6162413 4.16943953,14.4788863 L4.16943953,14.4788863 L4.16943953,14.4788863 L4.16943953,14.4788863 C4.18359882,14.3433875 4.30725664,14.2440835 4.4460177,14.2580046 L4.4460177,14.2580046 C4.58477876,14.2719258 4.68578171,14.3935035 4.67162242,14.5299304 L4.67162242,14.5299304 C4.65746313,14.6580046 4.54890855,14.7526682 4.42053097,14.7526682 L4.42053097,14.7526682 C4.4120354,14.7526682 4.40353982,14.7517401 4.39410029,14.7517401 Z M27.3293215,14.4937355 C27.3151622,14.3582367 27.4152212,14.2357309 27.5539823,14.2208817 L27.5539823,14.2208817 C27.6917994,14.2069606 27.8164012,14.3053364 27.8315044,14.4408353 L27.8315044,14.4408353 C27.8456637,14.5772622 27.7456047,14.699768 27.6068437,14.7136891 L27.6068437,14.7136891 C27.5983481,14.7146172 27.5898525,14.7155452 27.580413,14.7155452 L27.580413,14.7155452 C27.4520354,14.7155452 27.3434808,14.6199536 27.3293215,14.4937355 Z M4.55646018,13.5638051 C4.42053097,13.5359629 4.33274336,13.4041763 4.3620059,13.2705336 L4.3620059,13.2705336 L4.3620059,13.2705336 L4.3620059,13.2705336 C4.39032448,13.136891 4.52436578,13.0515081 4.66029499,13.0793503 L4.66029499,13.0793503 C4.79622419,13.1081206 4.88306785,13.2389791 4.85474926,13.3726218 L4.85474926,13.3726218 C4.82926254,13.4895592 4.72448378,13.5703016 4.60743363,13.5703016 L4.60743363,13.5703016 C4.59044248,13.5693735 4.57345133,13.5675174 4.55646018,13.5638051 Z M27.1414749,13.3354988 C27.1122124,13.2018561 27.199056,13.0700696 27.3349853,13.0422274 L27.3349853,13.0422274 C27.4718584,13.0134571 27.6049558,13.0988399 27.6342183,13.2324826 L27.6342183,13.2324826 C27.6634808,13.3661253 27.5766372,13.4979118 27.440708,13.5266821 L27.440708,13.5266821 C27.4227729,13.5294664 27.4057817,13.5313225 27.3878466,13.5313225 L27.3878466,13.5313225 C27.2717404,13.5322506 27.1669617,13.4524362 27.1414749,13.3354988 Z M4.84342183,12.3990719 C4.71126844,12.3573086 4.63858407,12.2180974 4.68106195,12.087239 L4.68106195,12.087239 C4.72353982,11.9573086 4.86513274,11.8858469 4.99823009,11.9285383 L4.99823009,11.9285383 C5.13038348,11.9703016 5.20306785,12.1095128 5.16058997,12.2394432 L5.16058997,12.2394432 C5.12660767,12.3443155 5.02654867,12.4111369 4.92082596,12.4111369 L4.92082596,12.4111369 C4.89628319,12.4111369 4.86985251,12.4083527 4.84342183,12.3990719 Z M26.8318584,12.2051044 L26.8318584,12.2051044 C26.7884366,12.075174 26.860177,11.9341067 26.9932743,11.8932715 L26.9932743,11.8932715 C27.1254277,11.85058 27.2670206,11.9211137 27.3104425,12.0519722 L27.3104425,12.0519722 C27.3538643,12.1819026 27.2811799,12.3211137 27.1490265,12.3638051 L27.1490265,12.3638051 C27.1225959,12.3721578 27.0961652,12.3758701 27.0706785,12.3758701 L27.0706785,12.3758701 C26.9649558,12.3758701 26.8658407,12.3090487 26.8318584,12.2051044 Z M5.25498525,11.2714617 C5.12660767,11.2157773 5.0699705,11.0691415 5.12660767,10.9447796 L5.12660767,10.9447796 C5.18324484,10.8194896 5.33144543,10.7638051 5.45887906,10.8185615 L5.45887906,10.8185615 C5.58631268,10.8742459 5.6420059,11.0208817 5.58631268,11.1452436 L5.58631268,11.1452436 C5.54477876,11.237123 5.45321534,11.2918794 5.35693215,11.2918794 L5.35693215,11.2918794 C5.32294985,11.2918794 5.28707965,11.2853828 5.25498525,11.2714617 Z M26.4014159,11.1118329 C26.3447788,10.9865429 26.4014159,10.8399072 26.5288496,10.7851508 L26.5288496,10.7851508 C26.6562832,10.7285383 26.8054277,10.7842227 26.8620649,10.9095128 L26.8620649,10.9095128 C26.9187021,11.0357309 26.8620649,11.1814385 26.7346313,11.237123 L26.7346313,11.237123 C26.7015929,11.2519722 26.6657227,11.2593968 26.6317404,11.2593968 L26.6317404,11.2593968 C26.5354572,11.2584687 26.4438938,11.2037123 26.4014159,11.1118329 Z M5.78359882,10.1911833 C5.66371681,10.1234339 5.62218289,9.9712297 5.6920354,9.85336427 L5.6920354,9.85336427 L5.6920354,9.85336427 L5.6920354,9.85336427 C5.76188791,9.73457077 5.91575221,9.6937355 6.03563422,9.76241299 L6.03563422,9.76241299 C6.15646018,9.83109049 6.1979941,9.98236659 6.12814159,10.1011601 L6.12814159,10.1011601 C6.08188791,10.1800464 5.99693215,10.225522 5.90914454,10.225522 L5.90914454,10.225522 C5.86666667,10.224594 5.82324484,10.2134571 5.78359882,10.1911833 Z M25.8576991,10.0686775 C25.7869027,9.95081206 25.8284366,9.79953596 25.9483186,9.72993039 L25.9483186,9.72993039 C26.0691445,9.6612529 26.2239528,9.70208817 26.2928614,9.8199536 L26.2928614,9.8199536 L26.2928614,9.8199536 L26.2928614,9.8199536 C26.3627139,9.93781903 26.3221239,10.0900232 26.2022419,10.1587007 L26.2022419,10.1587007 C26.1616519,10.1819026 26.1182301,10.1921114 26.0748083,10.1921114 L26.0748083,10.1921114 C25.9889086,10.1930394 25.9048968,10.1484919 25.8576991,10.0686775 Z M6.42548673,9.17215777 C6.31221239,9.09234339 6.28766962,8.93735499 6.36884956,8.82598608 L6.36884956,8.82598608 L6.36884956,8.82598608 L6.36884956,8.82598608 C6.45097345,8.71461717 6.60766962,8.69048724 6.72094395,8.77030162 L6.72094395,8.77030162 C6.83421829,8.85104408 6.85876106,9.00603248 6.77758112,9.11740139 L6.77758112,9.11740139 C6.72849558,9.18422274 6.6520354,9.21948956 6.57274336,9.21948956 L6.57274336,9.21948956 C6.52082596,9.21948956 6.46985251,9.2037123 6.42548673,9.17215777 Z M25.2054277,9.08770302 C25.1233038,8.97726218 25.1478466,8.82320186 25.260177,8.74153132 L25.260177,8.74153132 C25.3734513,8.66171694 25.5301475,8.68491879 25.6132153,8.79535963 L25.6132153,8.79535963 C25.6953392,8.90672854 25.6707965,9.06078886 25.5575221,9.1424594 L25.5575221,9.1424594 C25.5131563,9.17401392 25.460295,9.18979118 25.4093215,9.18979118 L25.4093215,9.18979118 C25.3319174,9.18979118 25.2554572,9.15452436 25.2054277,9.08770302 Z M7.17026549,8.22459397 C7.06737463,8.13271462 7.0579351,7.97587007 7.15233038,7.87470998 L7.15233038,7.87470998 C7.24483776,7.77262181 7.40436578,7.76334107 7.50820059,7.85614849 L7.50820059,7.85614849 C7.61109145,7.94709977 7.62053097,8.10394432 7.52707965,8.20603248 L7.52707965,8.20603248 C7.47705015,8.26078886 7.40814159,8.28863109 7.33828909,8.28863109 L7.33828909,8.28863109 C7.27882006,8.28770302 7.21840708,8.26728538 7.17026549,8.22459397 Z M24.4530973,8.17911833 C24.36059,8.07795824 24.3681416,7.92111369 24.4710324,7.82923434 L24.4710324,7.82923434 C24.5748673,7.73735499 24.7343953,7.74477958 24.8269027,7.84686775 L24.8269027,7.84686775 C24.920354,7.94802784 24.9128024,8.10487239 24.8099115,8.19675174 L24.8099115,8.19675174 C24.7617699,8.23944316 24.7013569,8.25986079 24.640944,8.25986079 L24.640944,8.25986079 C24.5720354,8.25986079 24.5031268,8.23387471 24.4530973,8.17911833 Z M8.01321534,7.3587007 C7.91976401,7.25661253 7.92731563,7.09976798 8.03115044,7.00788863 L8.03115044,7.00788863 C8.1340413,6.91693735 8.29356932,6.92436195 8.38702065,7.02552204 L8.38702065,7.02552204 C8.47952802,7.12761021 8.4719764,7.28445476 8.36908555,7.37540603 L8.36908555,7.37540603 C8.32094395,7.41902552 8.26053097,7.43944316 8.20011799,7.43944316 L8.20011799,7.43944316 C8.13120944,7.43944316 8.06230088,7.41160093 8.01321534,7.3587007 Z M23.6092035,7.3512761 C23.5053687,7.26032483 23.4959292,7.10348028 23.5903245,7.00139211 L23.5903245,7.00139211 C23.6828319,6.89930394 23.8423599,6.89095128 23.9461947,6.98283063 L23.9461947,6.98283063 C24.0490855,7.07470998 24.0575811,7.23155452 23.9650737,7.33271462 L23.9650737,7.33271462 C23.9150442,7.387471 23.8461357,7.41531323 23.7762832,7.41531323 L23.7762832,7.41531323 C23.7168142,7.41438515 23.6564012,7.39396752 23.6092035,7.3512761 Z M8.94112094,6.58190255 C8.859941,6.47053364 8.88353982,6.31647332 8.99681416,6.23573086 L8.99681416,6.23573086 C9.10914454,6.15406032 9.26584071,6.17819026 9.34890855,6.28955916 L9.34890855,6.28955916 C9.4300885,6.40092807 9.40648968,6.5549884 9.29321534,6.63573086 L9.29321534,6.63573086 C9.24884956,6.66821346 9.19693215,6.68306265 9.14501475,6.68306265 L9.14501475,6.68306265 C9.06761062,6.68306265 8.99115044,6.6487239 8.94112094,6.58190255 Z M22.680354,6.61531323 C22.5680236,6.53457077 22.5434808,6.38051044 22.6246608,6.26914153 L22.6246608,6.26914153 C22.7067847,6.15777262 22.8634808,6.13364269 22.9767552,6.21345708 L22.9767552,6.21345708 C23.0900295,6.29419954 23.1145723,6.44918794 23.0333923,6.56055684 L23.0333923,6.56055684 C22.9843068,6.62737819 22.9059587,6.66264501 22.8285546,6.66264501 L22.8285546,6.66264501 C22.7775811,6.66264501 22.7256637,6.64686775 22.680354,6.61531323 Z M9.94737463,5.90533643 C9.87752212,5.787471 9.91811209,5.6361949 10.0389381,5.5675174 L10.0389381,5.5675174 C10.1588201,5.49791183 10.3126844,5.5387471 10.3825369,5.65661253 L10.3825369,5.65661253 C10.4533333,5.77540603 10.4117994,5.92761021 10.2919174,5.99535963 L10.2919174,5.99535963 C10.2513274,6.01856148 10.2079056,6.0287703 10.1644838,6.0287703 L10.1644838,6.0287703 C10.0785841,6.0287703 9.99362832,5.98422274 9.94737463,5.90533643 Z M21.680708,5.97772622 C21.559882,5.90904872 21.5183481,5.75777262 21.5882006,5.63990719 L21.5882006,5.63990719 C21.6580531,5.52111369 21.8119174,5.48027842 21.9317994,5.54895592 L21.9317994,5.54895592 C22.0526254,5.61763341 22.0941593,5.76798144 22.0243068,5.88677494 L22.0243068,5.88677494 C21.9780531,5.96566125 21.8930973,6.01113689 21.8053097,6.01113689 L21.8053097,6.01113689 C21.7637758,6.01020882 21.720354,6 21.680708,5.97772622 Z M11.0187611,5.33642691 C10.9621239,5.21113689 11.0187611,5.06450116 11.1461947,5.00974478 L11.1461947,5.00974478 C11.2736283,4.95313225 11.4227729,5.00974478 11.480354,5.1350348 L11.480354,5.1350348 C11.5369912,5.26032483 11.480354,5.40696056 11.3529204,5.46171694 L11.3529204,5.46171694 C11.319882,5.47656613 11.2840118,5.48399072 11.2500295,5.48399072 L11.2500295,5.48399072 C11.1528024,5.48306265 11.0612389,5.42830626 11.0187611,5.33642691 Z M20.6178171,5.44686775 C20.4894395,5.39118329 20.4328024,5.24454756 20.4884956,5.12018561 L20.4884956,5.12018561 C20.5451327,4.99489559 20.6942773,4.93921114 20.820767,4.99396752 L20.820767,4.99396752 C20.9482006,5.04965197 21.0048378,5.1962877 20.9491445,5.32064965 L20.9491445,5.32064965 C20.9076106,5.412529 20.8160472,5.46821346 20.719764,5.46821346 L20.719764,5.46821346 C20.6857817,5.46821346 20.6508555,5.46171694 20.6178171,5.44686775 Z M12.1467847,4.88074246 C12.1033628,4.75081206 12.1760472,4.61067285 12.3082006,4.56890951 L12.3082006,4.56890951 L12.3082006,4.56890951 L12.3082006,4.56890951 C12.440354,4.5262181 12.5819469,4.59767981 12.6253687,4.72761021 L12.6253687,4.72761021 C12.6687906,4.85846868 12.5961062,4.99860789 12.4639528,5.03944316 L12.4639528,5.03944316 C12.4375221,5.0487239 12.4110914,5.05243619 12.3856047,5.05243619 L12.3856047,5.05243619 C12.279882,5.05243619 12.1817109,4.98561485 12.1467847,4.88074246 Z M19.5039528,5.02830626 C19.3708555,4.98654292 19.2981711,4.84733179 19.3415929,4.71647332 L19.3415929,4.71647332 C19.3840708,4.58654292 19.5256637,4.51508121 19.6578171,4.55684455 L19.6578171,4.55684455 C19.7909145,4.59953596 19.8635988,4.73781903 19.820177,4.86867749 L19.820177,4.86867749 C19.7861947,4.97354988 19.6870796,5.04037123 19.580413,5.04037123 L19.580413,5.04037123 C19.5558702,5.04037123 19.5294395,5.03573086 19.5039528,5.02830626 Z M13.3163422,4.54477958 C13.2870796,4.41113689 13.3739233,4.27935035 13.5098525,4.25058005 L13.5098525,4.25058005 C13.6457817,4.22273782 13.779823,4.30812065 13.8090855,4.44176334 L13.8090855,4.44176334 C13.8383481,4.57540603 13.7515044,4.70719258 13.6155752,4.7350348 L13.6155752,4.7350348 C13.5976401,4.7387471 13.579705,4.74060325 13.5617699,4.74060325 L13.5617699,4.74060325 C13.4466077,4.74060325 13.3418289,4.66171694 13.3163422,4.54477958 Z M18.3523304,4.72761021 C18.2164012,4.69883991 18.1286136,4.56798144 18.1569322,4.43433875 L18.1569322,4.43433875 C18.1861947,4.30069606 18.319292,4.21438515 18.4552212,4.24222738 L18.4552212,4.24222738 C18.5920944,4.27099768 18.6789381,4.40185615 18.6506195,4.53549884 L18.6506195,4.53549884 C18.6251327,4.65243619 18.520354,4.73225058 18.4033038,4.73225058 L18.4033038,4.73225058 C18.3863127,4.73317865 18.3693215,4.73132251 18.3523304,4.72761021 Z M14.5151622,4.33039443 C14.5010029,4.19489559 14.6020059,4.07238979 14.739823,4.05846868 L14.739823,4.05846868 C14.8776401,4.04361949 15.0022419,4.14292343 15.0173451,4.27842227 L15.0173451,4.27842227 C15.0315044,4.41484919 14.9314454,4.53642691 14.7926844,4.5512761 L14.7926844,4.5512761 C14.7832448,4.55220418 14.7747493,4.55220418 14.7662537,4.55220418 L14.7662537,4.55220418 C14.6378761,4.55220418 14.5293215,4.45846868 14.5151622,4.33039443 Z M17.1733333,4.54756381 C17.0355162,4.53364269 16.9345133,4.41206497 16.9486726,4.27563805 L16.9486726,4.27563805 C16.9628319,4.14013921 17.0864897,4.04083527 17.2252507,4.05475638 L17.2252507,4.05475638 L17.2252507,4.05475638 L17.2252507,4.05475638 C17.3640118,4.06867749 17.4650147,4.18932715 17.4508555,4.32668213 L17.4508555,4.32668213 C17.4366962,4.45475638 17.3281416,4.54849188 17.199764,4.54849188 L17.199764,4.54849188 C17.1912684,4.54849188 17.1827729,4.54849188 17.1733333,4.54756381 Z M15.7309735,4.2412993 C15.7309735,4.10487239 15.8433038,3.99350348 15.9820649,3.99350348 L15.9820649,3.99350348 C15.9820649,3.99350348 15.9820649,3.99350348 15.9830088,3.99350348 L15.9830088,3.99350348 C16.120826,3.99350348 16.2350442,4.10487239 16.2350442,4.2412993 L16.2350442,4.2412993 C16.2350442,4.37772622 16.1217699,4.48909513 15.9830088,4.48909513 L15.9830088,4.48909513 C15.8442478,4.48909513 15.7309735,4.37865429 15.7309735,4.2412993 Z" id="Shape"></path>
                        </g>
                    </g>
                </g>
            </g>
        </g>
    </g>
</svg>