<svg width="39" height="33" viewBox="0 0 39 33" fill="none" xmlns="http://www.w3.org/2000/svg">
<rect y="3.52423" width="2" height="2" rx="0.5" transform="rotate(-68.0146 0 3.52423)" fill="#584EC7"/>
<rect x="36.0957" y="8.71173" width="2" height="2" rx="0.5" transform="rotate(-76.5609 36.0957 8.71173)" fill="#584EC7"/>
<rect x="20.668" y="22.7078" width="2" height="2" rx="0.5" transform="rotate(18.4033 20.668 22.7078)" fill="#584EC7"/>
<rect x="12" y="15.0223" width="1.5" height="1.5" rx="0.2" transform="rotate(-13.6012 12 15.0223)" fill="#584EC7"/>
<rect x="4.01172" y="30.5203" width="1.5" height="1.5" rx="0.2" transform="rotate(50.7859 4.01172 30.5203)" fill="#584EC7"/>
<rect x="20.0938" y="7.23511" width="2" height="2" rx="0.5" transform="rotate(-13.6012 20.0938 7.23511)" fill="#584EC7"/>
<rect x="4.09375" y="16.2351" width="1" height="1" rx="0.5" transform="rotate(-13.6012 4.09375 16.2351)" fill="#584EC7"/>
<rect x="28.0938" y="0.235107" width="1" height="1" rx="0.5" transform="rotate(-13.6012 28.0938 0.235107)" fill="#584EC7"/>
<rect x="12.0938" y="0.235107" width="1" height="1" rx="0.5" transform="rotate(-13.6012 12.0938 0.235107)" fill="#584EC7"/>
<rect x="36.0938" y="27.2351" width="1" height="1" rx="0.5" transform="rotate(-13.6012 36.0938 27.2351)" fill="#584EC7"/>
<rect x="36.0938" y="11.2351" width="1" height="1" rx="0.5" transform="rotate(-13.6012 36.0938 11.2351)" fill="#584EC7"/>
</svg>
