<svg width="40" height="40" viewBox="0 0 40 40" fill="none" xmlns="http://www.w3.org/2000/svg">
<circle cx="20" cy="20" r="20" fill="white"/>
<circle cx="20" cy="20" r="20" fill="#202025" fill-opacity="0.15"/>
<path d="M11.5068 29V23.72H9.7168V22.48H14.7768V23.72H12.9868V29H11.5068ZM19.6602 29.12C19.2202 29.12 18.8169 29.0433 18.4502 28.89C18.0902 28.73 17.7802 28.5033 17.5202 28.21C17.2602 27.9167 17.0569 27.56 16.9102 27.14C16.7702 26.72 16.7002 26.2433 16.7002 25.71C16.7002 25.1767 16.7702 24.7033 16.9102 24.29C17.0569 23.87 17.2602 23.52 17.5202 23.24C17.7802 22.9533 18.0902 22.7367 18.4502 22.59C18.8169 22.4367 19.2202 22.36 19.6602 22.36C20.1002 22.36 20.5002 22.4367 20.8602 22.59C21.2269 22.7367 21.5402 22.9533 21.8002 23.24C22.0602 23.5267 22.2602 23.88 22.4002 24.3C22.5469 24.7133 22.6202 25.1833 22.6202 25.71C22.6202 26.2433 22.5469 26.72 22.4002 27.14C22.2602 27.56 22.0602 27.9167 21.8002 28.21C21.5402 28.5033 21.2269 28.73 20.8602 28.89C20.5002 29.0433 20.1002 29.12 19.6602 29.12ZM19.6602 27.85C20.1069 27.85 20.4602 27.66 20.7202 27.28C20.9802 26.8933 21.1102 26.37 21.1102 25.71C21.1102 25.0567 20.9802 24.5467 20.7202 24.18C20.4602 23.8133 20.1069 23.63 19.6602 23.63C19.2136 23.63 18.8602 23.8133 18.6002 24.18C18.3402 24.5467 18.2102 25.0567 18.2102 25.71C18.2102 26.37 18.3402 26.8933 18.6002 27.28C18.8602 27.66 19.2136 27.85 19.6602 27.85ZM25.3462 29V22.48H27.5862C27.9462 22.48 28.2828 22.5167 28.5962 22.59C28.9095 22.6567 29.1828 22.7733 29.4162 22.94C29.6495 23.1 29.8328 23.3167 29.9662 23.59C30.1062 23.8567 30.1762 24.1867 30.1762 24.58C30.1762 24.96 30.1062 25.29 29.9662 25.57C29.8328 25.85 29.6495 26.08 29.4162 26.26C29.1828 26.44 28.9128 26.5733 28.6062 26.66C28.2995 26.7467 27.9728 26.79 27.6262 26.79H26.8162V29H25.3462ZM26.8162 25.62H27.5362C28.3362 25.62 28.7362 25.2733 28.7362 24.58C28.7362 24.24 28.6295 24 28.4162 23.86C28.2028 23.72 27.8962 23.65 27.4962 23.65H26.8162V25.62Z" fill="#202025" fill-opacity="0.45"/>
<g clip-path="url(#clip0_481_16066)">
<path fill-rule="evenodd" clip-rule="evenodd" d="M23.06 15.28L20 12.22L16.94 15.28L16 14.3334L20 10.3334L24 14.3334L23.06 15.28Z" fill="#202025" fill-opacity="0.45"/>
<path fill-rule="evenodd" clip-rule="evenodd" d="M23.06 18.6133L20 15.5533L16.94 18.6133L16 17.6666L20 13.6666L24 17.6666L23.06 18.6133Z" fill="#202025" fill-opacity="0.45"/>
</g>
<defs>
<clipPath id="clip0_481_16066">
<rect width="16" height="16" fill="white" transform="translate(12 7)"/>
</clipPath>
</defs>
</svg>
