<?xml version="1.0" encoding="UTF-8"?>
<svg width="197px" height="303px" viewBox="0 0 197 303" version="1.1" xmlns="http://www.w3.org/2000/svg" xmlns:xlink="http://www.w3.org/1999/xlink">
    <!-- Generator: Sketch 56.3 (81716) - https://sketch.com -->
    <title>?</title>
    <desc>Created with Sketch.</desc>
    <g id="01.-Home-Page" stroke="none" stroke-width="1" fill="none" fill-rule="evenodd">
        <g id="01.1-Home-Page-Search---v09" transform="translate(-64.000000, -1877.000000)" fill="#FFFFFF" opacity="0.65" fill-rule="nonzero">
            <g id="FAQ-Section" transform="translate(0.000000, 1834.000000)">
                <path d="M180.710084,250.228883 L131.460084,250.228883 C130.218487,244.449591 129.804622,238.6703 129.804622,232.065395 C129.804622,212.663488 137.668067,191.610354 161.258403,173.859673 L182.365546,158.173025 C193.539916,149.916894 197.264706,140.009537 197.264706,129.276567 C197.264706,113.177112 185.262605,97.4904632 160.430672,97.4904632 C136.426471,97.4904632 122.355042,116.892371 122.355042,136.294278 C122.355042,145.788828 123.182773,149.916894 123.596639,151.56812 L65.6554622,149.504087 C64.4138655,143.724796 64,137.532698 64,132.166213 C64,83.8678474 100.006303,43 160.430672,43 C227.476891,43 261,83.0422343 261,124.322888 C261,157.347411 245.686975,180.051771 220.855042,198.628065 L205.128151,210.186649 C190.642857,220.919619 180.710084,231.652589 180.710084,250.228883 Z M121.941176,310.498638 C121.941176,290.683924 137.668067,274.584469 157.533613,274.584469 C177.39916,274.584469 193.539916,290.683924 193.539916,310.498638 C193.539916,329.900545 177.39916,346 157.533613,346 C137.668067,346 121.941176,329.900545 121.941176,310.498638 Z" id="?"></path>
            </g>
        </g>
    </g>
</svg>