<svg width="14" height="14" viewBox="0 0 14 14" fill="none" xmlns="http://www.w3.org/2000/svg">
<path fill-rule="evenodd" clip-rule="evenodd" d="M7.7 9.7H6.3L6.3 11.1H7.7L7.7 9.7ZM12.6 7C12.6 10.087 10.087 12.6 7 12.6C3.913 12.6 1.4 10.087 1.4 7C1.4 3.913 3.913 1.4 7 1.4C10.087 1.4 12.6 3.913 12.6 7ZM14 7C14 5.14348 13.2625 3.36301 11.9497 2.05025C10.637 0.737498 8.85652 0 7 0C5.14348 0 3.36301 0.737498 2.05025 2.05025C0.737498 3.36301 0 5.14348 0 7C0 8.85652 0.737498 10.637 2.05025 11.9497C3.36301 13.2625 5.14348 14 7 14C10.866 14 14 10.866 14 7ZM7.7 2.9L6.3 2.9L6.3 8.4H7.7L7.7 2.9Z" fill="white"/>
</svg>
