<?xml version="1.0" encoding="UTF-8"?>
<svg width="16px" height="16px" viewBox="0 0 16 16" version="1.1" xmlns="http://www.w3.org/2000/svg" xmlns:xlink="http://www.w3.org/1999/xlink">
    <g id="Symbols" stroke="none" stroke-width="1" fill="none" fill-rule="evenodd" fill-opacity="1">
        <g id="Request-Solution-Banner/1344-site--Copy" transform="translate(-183.000000, -228.000000)" fill="#0224B3">
            <g id="Group" transform="translate(50.000000, 223.000000)">
                <g transform="translate(129.000000, 1.000000)" id="3.0-Icons-/-Actions-/-linkoutside">
                    <path d="M10,4 L10,6 L6,6 L6,18 L18,18 L18,13.6845703 L20,13.6845703 L20,19 C20,19.5522847 19.5522847,20 19,20 L5,20 C4.44771525,20 4,19.5522847 4,19 L4,5 C4,4.44771525 4.44771525,4 5,4 L10,4 Z M19.9194174,4 L20,10.670166 L18,10.670166 L18,7.53398438 L10.7912598,14.5045166 L9.24621582,12.9371843 L16.3664062,6 L13,6 L13,4 L19.9194174,4 Z" id="Shape"></path>
                </g>
            </g>
        </g>
    </g>
</svg>