<?xml version="1.0" encoding="UTF-8"?>
<svg width="173px" height="20px" viewBox="0 0 173 20" version="1.1" xmlns="http://www.w3.org/2000/svg" xmlns:xlink="http://www.w3.org/1999/xlink">
    <title>1E854CE8-862B-4780-AFDF-D41B27EA550B</title>
    <defs>
        <polygon id="path-1" points="0.359302491 0.364677419 14.3084413 0.364677419 14.3084413 17.7374194 0.359302491 17.7374194"></polygon>
    </defs>
    <g id="Desktop-1344" stroke="none" stroke-width="1" fill="none" fill-rule="evenodd">
        <g id="[E]-1.0.2-Homepage---Solutions---DD_Open" transform="translate(-40.000000, -22.000000)">
            <g id="header">
                <g id="Logo-SolutionsHub-Primary" transform="translate(40.000000, 22.000000)">
                    <g>
                        <g id="Group-4" transform="translate(6.733096, 1.225806)">
                            <mask id="mask-2" fill="white">
                                <use xlink:href="#path-1"></use>
                            </mask>
                            <g id="Clip-2"></g>
                            <path d="M2.20417082,8.13690323 L2.21274021,11.3258387 C2.21274021,12.1367097 2.60448399,12.5369355 3.37879004,12.5369355 L3.71789324,12.5369355 C4.49281139,12.5369355 4.88394306,12.1367097 4.88394306,11.3258387 L4.88394306,9.75741935 L6.66821352,9.75741935 L6.66821352,11.2473871 C6.66821352,13.2950968 5.676,14.3407097 3.70932384,14.3407097 L3.31758007,14.3407097 C1.35090391,14.3407097 0.359302491,13.3042903 0.359302491,11.4913226 L0.359302491,3.69335484 C0.359302491,1.40170968 1.35090391,0.364677419 3.31758007,0.364677419 L3.70932384,0.364677419 C5.676,0.364677419 6.66821352,1.40170968 6.66821352,3.44880645 L6.65964413,8.12832258 L2.20417082,8.12832258 L2.20417082,8.13690323 Z M2.20417082,6.28103226 L4.8233452,6.28103226 L4.8233452,3.37954839 C4.8233452,2.56929032 4.44017082,2.15925806 3.65729537,2.15925806 L3.36103915,2.15925806 C2.5867331,2.15925806 2.19498932,2.56929032 2.19498932,3.37954839 L2.19498932,6.28103226 L2.20417082,6.28103226 L2.20417082,6.28103226 Z" id="Fill-1" fill="#FFFFFE" mask="url(#mask-2)"></path>
                            <path d="M7.85997153,0.521580645 L9.70483986,0.521580645 L9.70483986,1.41029032 C10.1400427,0.931 10.8886406,0.373258065 11.9585907,0.373258065 C13.5341352,0.373258065 14.3084413,1.4623871 14.3084413,3.08351613 L14.3084413,11.6396452 C14.3084413,13.2607742 13.5341352,14.3499032 11.9585907,14.3499032 C10.8886406,14.3499032 10.1400427,13.8179032 9.70483986,13.3649677 L9.70483986,17.7741935 L7.85997153,17.7741935 L7.85997153,0.521580645 Z M9.70483986,11.8057419 C10.2098221,12.2586774 10.7925409,12.5111935 11.4021922,12.5111935 C12.0810107,12.5111935 12.4721423,12.1802258 12.4721423,11.3957097 L12.4721423,3.29251613 C12.4721423,2.508 12.0810107,2.17703226 11.4021922,2.17703226 C10.7925409,2.17703226 10.2098221,2.42954839 9.70483986,2.88309677 L9.70483986,11.8057419 L9.70483986,11.8057419 Z" id="Fill-3" fill="#FFFFFE" mask="url(#mask-2)"></path>
                        </g>
                        <path d="M22.1555587,10.6522581 C22.1555587,8.95329032 22.6862491,8.27358065 24.0959146,7.76854839 L26.5669609,6.87983871 L26.5669609,4.60535484 C26.5669609,3.79509677 26.1758292,3.36790323 25.4015231,3.36790323 L25.1052669,3.36790323 C24.3309609,3.36790323 23.9392171,3.79509677 23.9392171,4.60535484 L23.9392171,6.53967742 L22.1463772,6.53967742 L22.1463772,4.68380645 C22.1463772,2.63609677 23.1392028,1.59906452 25.1052669,1.59906452 L25.4535516,1.59906452 C27.4202278,1.59906452 28.4124413,2.63609677 28.4124413,4.68380645 L28.4124413,15.4188065 L26.5669609,15.4188065 L26.5669609,14.5558387 C26.0625907,15.0614839 25.3752028,15.5665161 24.31321,15.5665161 C22.8343772,15.5665161 22.1555587,14.6784194 22.1555587,13.1620968 L22.1555587,10.6522581 Z M26.5669609,13.11 L26.5669609,8.60454839 L24.8965409,9.26709677 C24.2177224,9.54596774 24.000427,9.90329032 24.000427,10.6871935 L24.000427,12.7612581 C24.000427,13.4231935 24.31321,13.7455806 24.8965409,13.7455806 C25.4535516,13.7455806 25.9671032,13.5451613 26.5669609,13.11 L26.5669609,13.11 Z" id="Fill-5" fill="#FFFFFE"></path>
                        <path d="M35.8610819,15.4188065 L34.0168256,15.4188065 L34.0168256,4.40493548 C34.0168256,3.72522581 33.7028185,3.4206129 33.1464199,3.4206129 C32.6414377,3.4206129 32.1015658,3.62041935 31.4490676,4.09970968 L31.4490676,15.4188065 L29.6048114,15.4188065 L29.6048114,1.7473871 L31.4490676,1.7473871 L31.4490676,2.63609677 C31.9889395,2.10470968 32.6848968,1.59048387 33.7028185,1.59048387 C34.651573,1.59048387 35.2777509,1.99990323 35.6174662,2.70596774 C36.2791459,2.12187097 37.053452,1.59048387 38.1148327,1.59048387 C39.5422491,1.59048387 40.2730961,2.50554839 40.2730961,3.99551613 L40.2730961,15.4102258 L38.4282278,15.4102258 L38.4282278,4.40493548 C38.4282278,3.72522581 38.1148327,3.4206129 37.5584342,3.4206129 C37.053452,3.4206129 36.5135801,3.62041935 35.8610819,4.09970968 L35.8610819,15.4188065" id="Fill-6" fill="#FFFFFE"></path>
                        <polyline id="Fill-7" fill="#23A2BC" points="0 7.70725806 0 9.55454839 4.73397865 14.199129 4.73397865 11.6286129 1.63614235 8.60454839 4.73397865 5.52041935 4.73397865 3.002 0 7.70725806"></polyline>
                        <polyline id="Fill-8" fill="#23A2BC" points="42.6137651 5.52041935 45.7116014 8.60454839 42.6137651 11.6371935 42.6137651 14.199129 47.3477438 9.55454839 47.3477438 7.70725806 42.6137651 3.002 42.6137651 5.52041935"></polyline>
                        <path d="M60.384242,15.713 C59.3981495,15.713 58.4830605,15.5266774 57.6401993,15.1546452 C56.796726,14.7826129 56.0677153,14.2745161 55.4531673,13.6303548 L56.5255658,12.3849355 C57.0256512,12.9150968 57.6151032,13.3404516 58.2945338,13.6628387 C58.9727402,13.9846129 59.6766548,14.1458065 60.4056655,14.1458065 C61.3348327,14.1458065 62.0564982,13.9343548 62.571274,13.5126774 C63.0854377,13.0903871 63.3431317,12.5357097 63.3431317,11.8486452 C63.3431317,11.4907097 63.2819217,11.1867097 63.160726,10.9366452 C63.0389181,10.6859677 62.8742633,10.4714516 62.6673737,10.2924839 C62.460484,10.1135161 62.2131957,9.95293548 61.9279573,9.80951613 C61.6414947,9.66670968 61.3348327,9.51654839 61.0061352,9.35841935 L58.9904911,8.47829032 C58.6617936,8.33548387 58.326363,8.16387097 57.9829751,7.96345161 C57.6401993,7.76303226 57.3329253,7.51970968 57.061153,7.23348387 C56.7899929,6.94725806 56.5684128,6.60770968 56.3964128,6.2136129 C56.225637,5.82074194 56.139331,5.36596774 56.139331,4.85112903 C56.139331,4.32158065 56.250121,3.82758065 56.4717011,3.36974194 C56.6932811,2.91129032 57.0005552,2.51474194 57.3935231,2.17825806 C57.7871032,1.84177419 58.2510747,1.58067742 58.787274,1.39435484 C59.3228612,1.20864516 59.9129253,1.11548387 60.5556299,1.11548387 C61.3991032,1.11548387 62.177694,1.27667742 62.8926263,1.59845161 C63.6069466,1.92022581 64.2141495,2.33883871 64.714847,2.85429032 L63.7501779,4.01329032 C63.3210961,3.59896774 62.8461068,3.27290323 62.3245979,3.03693548 C61.8024769,2.80035484 61.2130249,2.68267742 60.5556299,2.68267742 C59.769694,2.68267742 59.137395,2.86470968 58.6587331,3.23 C58.1794591,3.59467742 57.9401281,4.09909677 57.9401281,4.74325806 C57.9401281,5.08709677 58.0080712,5.3763871 58.1439573,5.61296774 C58.2798434,5.84893548 58.461637,6.05670968 58.6905623,6.23506452 C58.9194875,6.41464516 59.1692242,6.57154839 59.4409964,6.7076129 C59.7121566,6.84367742 59.9906619,6.96870968 60.2771246,7.08332258 L62.2707331,7.9413871 C62.6710463,8.1136129 63.0499359,8.31035484 63.4074021,8.53222581 C63.7642562,8.75409677 64.0715302,9.01212903 64.3286121,9.30509677 C64.586306,9.59867742 64.7895231,9.94190323 64.9400996,10.3353871 C65.0900641,10.728871 65.1653523,11.1836452 65.1653523,11.6984839 C65.1653523,12.2562258 65.0545623,12.7790323 64.8329822,13.2650645 C64.61079,13.7523226 64.2931103,14.1776774 63.8787189,14.5423548 C63.4643274,14.9076452 62.9636299,15.193871 62.3778505,15.4010323 C61.7920712,15.6088065 61.127331,15.713 60.384242,15.713" id="Fill-9" fill="#FFFFFE"></path>
                        <g id="Group-13" transform="translate(66.106762, 0.000000)" fill="#FFFFFE">
                            <path d="M5.23283986,14.2530645 C5.6753879,14.2530645 6.08243416,14.1562258 6.45459075,13.9631613 C6.82613523,13.7700968 7.14381495,13.4979677 7.40824199,13.1473871 C7.67266904,12.7968065 7.87649822,12.3781935 8.01972954,11.8915484 C8.16234875,11.4055161 8.23396441,10.8612581 8.23396441,10.26 C8.23396441,9.65935484 8.16234875,9.11203226 8.01972954,8.61803226 C7.87649822,8.12403226 7.67266904,7.69867742 7.40824199,7.34074194 C7.14381495,6.98280645 6.82613523,6.7076129 6.45459075,6.51454839 C6.08243416,6.32087097 5.6753879,6.22464516 5.23283986,6.22464516 C4.78906762,6.22464516 4.38202135,6.32087097 4.01047687,6.51454839 C3.63893238,6.7076129 3.32064057,6.98280645 3.05621352,7.34074194 C2.79178648,7.69867742 2.5879573,8.12403226 2.44533808,8.61803226 C2.30210676,9.11203226 2.2311032,9.65935484 2.2311032,10.26 C2.2311032,10.8612581 2.30210676,11.4055161 2.44533808,11.8915484 C2.5879573,12.3781935 2.79178648,12.7968065 3.05621352,13.1473871 C3.32064057,13.4979677 3.63893238,13.7700968 4.01047687,13.9631613 C4.38202135,14.1562258 4.78906762,14.2530645 5.23283986,14.2530645 Z M5.23283986,15.713 C4.58891103,15.713 3.97803559,15.5910323 3.39960142,15.3477097 C2.82055516,15.1043871 2.30945196,14.750129 1.86690391,14.2855484 C1.42313167,13.8203548 1.06933808,13.2479032 0.805523132,12.5681935 C0.541096085,11.887871 0.408882562,11.1186774 0.408882562,10.26 C0.408882562,9.38722581 0.541096085,8.61129032 0.805523132,7.93096774 C1.06933808,7.25125806 1.42313167,6.67512903 1.86690391,6.20319355 C2.30945196,5.73064516 2.82055516,5.37332258 3.39960142,5.13 C3.97803559,4.88667742 4.58891103,4.76470968 5.23283986,4.76470968 C5.87554448,4.76470968 6.48641993,4.88667742 7.06546619,5.13 C7.64451246,5.37332258 8.15500356,5.73064516 8.5981637,6.20319355 C9.04132384,6.67512903 9.39450534,7.25125806 9.65954448,7.93096774 C9.92397153,8.61129032 10.055573,9.38722581 10.055573,10.26 C10.055573,11.1186774 9.92397153,11.887871 9.65954448,12.5681935 C9.39450534,13.2479032 9.04132384,13.8203548 8.5981637,14.2855484 C8.15500356,14.750129 7.64451246,15.1043871 7.06546619,15.3477097 C6.48641993,15.5910323 5.87554448,15.713 5.23283986,15.713 L5.23283986,15.713 Z" id="Fill-10"></path>
                            <path d="M14.1933665,15.713 C13.5212811,15.713 13.0426192,15.5119677 12.7573808,15.1117419 C12.4709181,14.7109032 12.3282989,14.1243548 12.3282989,13.3514839 L12.3282989,0.171 L14.0862491,0.171 L14.0862491,13.4801935 C14.0862491,13.7664194 14.1358292,13.9668387 14.2362135,14.0814516 C14.3359858,14.1960645 14.4510605,14.2530645 14.5796014,14.2530645 C14.6365267,14.2530645 14.6897794,14.2530645 14.7399715,14.2530645 C14.7901637,14.2530645 14.8648399,14.2389677 14.9652242,14.2095484 L15.2008826,15.5407742 C15.0864199,15.5977742 14.9511459,15.6406774 14.7938363,15.6694839 C14.6365267,15.6982903 14.4363701,15.713 14.1933665,15.713" id="Fill-12"></path>
                        </g>
                        <path d="M86.4743772,15.713 C85.3597438,15.713 84.5480996,15.3691613 84.0412811,14.6820968 C83.5332384,13.9950323 83.2798292,12.9794516 83.2798292,11.634129 L83.2798292,5.02212903 L85.0592028,5.02212903 L85.0592028,11.3981613 C85.0592028,12.3849355 85.2128399,13.0977419 85.520726,13.5335161 C85.8273879,13.9705161 86.3244128,14.1887097 87.0105765,14.1887097 C87.5535089,14.1887097 88.0321708,14.0489677 88.4465623,13.7700968 C88.8609537,13.4912258 89.3181922,13.0438065 89.8188897,12.4284516 L89.8188897,5.02212903 L91.5768399,5.02212903 L91.5768399,15.4549677 L90.1188185,15.4549677 L89.9688541,13.8240323 L89.9045836,13.8240323 C89.4185765,14.3964839 88.9074733,14.8543226 88.3718861,15.1975484 C87.8356868,15.5407742 87.2033879,15.713 86.4743772,15.713" id="Fill-14" fill="#FFFFFE"></path>
                        <path d="M97.9010534,15.713 C97.3434306,15.713 96.8751744,15.6271935 96.4968968,15.4549677 C96.1180071,15.2833548 95.8107331,15.0473871 95.5744626,14.7464516 C95.3388043,14.446129 95.171089,14.0814516 95.0713167,13.6518065 C94.9709324,13.2227742 94.9207402,12.7502258 94.9207402,12.2353871 L94.9207402,6.4606129 L93.3770249,6.4606129 L93.3770249,5.13 L95.0070463,5.02212903 L95.2212811,2.10287097 L96.7001139,2.10287097 L96.7001139,5.02212903 L99.508427,5.02212903 L99.508427,6.4606129 L96.7001139,6.4606129 L96.7001139,12.2562258 C96.7001139,12.9003871 96.8182491,13.3980645 97.0539075,13.7486452 C97.2901779,14.0992258 97.7076299,14.2745161 98.3080996,14.2745161 C98.4935658,14.2745161 98.6943345,14.2457097 98.9085694,14.1887097 C99.1228043,14.1317097 99.3156157,14.0673548 99.4870036,13.9950323 L99.8303915,15.3262581 C99.5439288,15.4267742 99.2329822,15.5156452 98.8975516,15.5947097 C98.5615089,15.6731613 98.2297509,15.713 97.9010534,15.713" id="Fill-15" fill="#FFFFFE"></path>
                        <path d="M101.39553,15.4549677 L103.15348,15.4549677 L103.15348,5.02212903 L101.39553,5.02212903 L101.39553,15.4549677 Z M102.295929,2.87574194 C101.952541,2.87574194 101.66363,2.76848387 101.427359,2.55396774 C101.191701,2.33883871 101.073566,2.06732258 101.073566,1.73819355 C101.073566,1.39435484 101.191701,1.11916129 101.427359,0.911387097 C101.66363,0.704225806 101.952541,0.600032258 102.295929,0.600032258 C102.638705,0.600032258 102.928228,0.704225806 103.163886,0.911387097 C103.399544,1.11916129 103.51768,1.39435484 103.51768,1.73819355 C103.51768,2.06732258 103.399544,2.33883871 103.163886,2.55396774 C102.928228,2.76848387 102.638705,2.87574194 102.295929,2.87574194 L102.295929,2.87574194 Z" id="Fill-16" fill="#FFFFFE"></path>
                        <path d="M110.24894,14.2530645 C110.6921,14.2530645 111.099146,14.1562258 111.471302,13.9631613 C111.842235,13.7700968 112.160527,13.4979677 112.424954,13.1473871 C112.689381,12.7968065 112.892598,12.3781935 113.035829,11.8915484 C113.178448,11.4055161 113.250064,10.8612581 113.250064,10.26 C113.250064,9.65935484 113.178448,9.11203226 113.035829,8.61803226 C112.892598,8.12403226 112.689381,7.69867742 112.424954,7.34074194 C112.160527,6.98280645 111.842235,6.7076129 111.471302,6.51454839 C111.099146,6.32087097 110.6921,6.22464516 110.24894,6.22464516 C109.805779,6.22464516 109.398121,6.32087097 109.026577,6.51454839 C108.655032,6.7076129 108.337352,6.98280645 108.072925,7.34074194 C107.808498,7.69867742 107.604669,8.12403226 107.46205,8.61803226 C107.318819,9.11203226 107.247815,9.65935484 107.247815,10.26 C107.247815,10.8612581 107.318819,11.4055161 107.46205,11.8915484 C107.604669,12.3781935 107.808498,12.7968065 108.072925,13.1473871 C108.337352,13.4979677 108.655032,13.7700968 109.026577,13.9631613 C109.398121,14.1562258 109.805779,14.2530645 110.24894,14.2530645 Z M110.24894,15.713 C109.605623,15.713 108.994747,15.5910323 108.415701,15.3477097 C107.837267,15.1043871 107.326164,14.750129 106.883004,14.2855484 C106.439843,13.8203548 106.08605,13.2479032 105.822235,12.5681935 C105.557196,11.887871 105.425594,11.1186774 105.425594,10.26 C105.425594,9.38722581 105.557196,8.61129032 105.822235,7.93096774 C106.08605,7.25125806 106.439843,6.67512903 106.883004,6.20319355 C107.326164,5.73064516 107.837267,5.37332258 108.415701,5.13 C108.994747,4.88667742 109.605623,4.76470968 110.24894,4.76470968 C110.892256,4.76470968 111.503132,4.88667742 112.082178,5.13 C112.660612,5.37332258 113.171715,5.73064516 113.614875,6.20319355 C114.057423,6.67512903 114.411217,7.25125806 114.675644,7.93096774 C114.940683,8.61129032 115.072285,9.38722581 115.072285,10.26 C115.072285,11.1186774 114.940683,11.887871 114.675644,12.5681935 C114.411217,13.2479032 114.057423,13.8203548 113.614875,14.2855484 C113.171715,14.750129 112.660612,15.1043871 112.082178,15.3477097 C111.503132,15.5910323 110.892256,15.713 110.24894,15.713 L110.24894,15.713 Z" id="Fill-17" fill="#FFFFFE"></path>
                        <path d="M117.345011,15.4549677 L117.345011,5.02212903 L118.803032,5.02212903 L118.952996,6.52496774 L119.017267,6.52496774 C119.517352,6.02422581 120.042534,5.6056129 120.592811,5.26912903 C121.142477,4.93325806 121.782733,4.76470968 122.511744,4.76470968 C123.611687,4.76470968 124.415374,5.10793548 124.923416,5.7956129 C125.430235,6.48206452 125.684256,7.49825806 125.684256,8.84358065 L125.684256,15.4549677 L123.926306,15.4549677 L123.926306,9.07954839 C123.926306,8.09216129 123.768996,7.37996774 123.454989,6.94358065 C123.139758,6.50719355 122.640285,6.289 121.954121,6.289 C121.410577,6.289 120.931915,6.42506452 120.517523,6.69658065 C120.103132,6.96870968 119.631203,7.36954839 119.102961,7.89909677 L119.102961,15.4549677 L117.345011,15.4549677" id="Fill-18" fill="#FFFFFE"></path>
                        <path d="M131.322918,15.713 C130.579217,15.713 129.872242,15.5763226 129.200157,15.3048065 C128.528071,15.0332903 127.942292,14.6894516 127.442206,14.2745161 L128.321181,13.0940645 C128.77842,13.4660968 129.246676,13.7664194 129.725338,13.9950323 C130.204,14.2242581 130.75795,14.338871 131.387189,14.338871 C132.07274,14.338871 132.587516,14.1813548 132.930904,13.8663226 C133.27368,13.5519032 133.445068,13.1651613 133.445068,12.7073226 C133.445068,12.4358065 133.373452,12.1998387 133.230833,11.9988065 C133.087601,11.7983871 132.905196,11.6230968 132.684228,11.4729355 C132.462036,11.3227742 132.208626,11.191 131.922776,11.0757742 C131.636925,10.9617742 131.351075,10.8471613 131.065224,10.7325484 C130.69368,10.6038387 130.322135,10.4567419 129.950591,10.2924839 C129.579046,10.1282258 129.246676,9.92719355 128.954093,9.69122581 C128.660897,9.45525806 128.420954,9.17945161 128.235488,8.86503226 C128.049409,8.5506129 127.956982,8.1706129 127.956982,7.72687097 C127.956982,7.31254839 128.039004,6.92212903 128.203046,6.55745161 C128.367701,6.19216129 128.603359,5.87774194 128.910633,5.61296774 C129.217907,5.34819355 129.593125,5.14041935 130.036285,4.99025806 C130.478833,4.84009677 130.97953,4.76470968 131.537153,4.76470968 C132.193936,4.76470968 132.798078,4.87932258 133.348356,5.10793548 C133.898633,5.33716129 134.374235,5.61664516 134.773936,5.94577419 L133.93842,7.06187097 C133.580954,6.79035484 133.209409,6.56787097 132.823174,6.39625806 C132.43694,6.22464516 132.015815,6.13883871 131.558577,6.13883871 C130.901181,6.13883871 130.418847,6.289 130.111573,6.58932258 C129.803687,6.89025806 129.650662,7.24083871 129.650662,7.64106452 C129.650662,7.885 129.714932,8.09583871 129.843473,8.27419355 C129.972014,8.45377419 130.143402,8.61129032 130.357637,8.74674194 C130.572484,8.88280645 130.818548,9.00416129 131.097053,9.11203226 C131.376171,9.21929032 131.665694,9.33022581 131.965623,9.44483871 C132.337167,9.58764516 132.712384,9.73780645 133.091274,9.89532258 C133.469552,10.0528387 133.809879,10.2495806 134.109196,10.4855484 C134.409737,10.7215161 134.656413,11.0114194 134.849224,11.3552581 C135.042036,11.6984839 135.138747,12.1140323 135.138747,12.6000645 C135.138747,13.0297097 135.056114,13.4305484 134.892071,13.8019677 C134.727416,14.1746129 134.485025,14.5037419 134.16306,14.7893548 C133.841708,15.0761935 133.441395,15.301129 132.962733,15.466 C132.483459,15.6302581 131.936854,15.713 131.322918,15.713" id="Fill-19" fill="#FFFFFE"></path>
                        <polyline id="Fill-20" fill="#FFFFFE" points="138.075601 15.4549677 138.075601 1.37290323 139.854975 1.37290323 139.854975 7.2763871 146.393423 7.2763871 146.393423 1.37290323 148.194221 1.37290323 148.194221 15.4549677 146.393423 15.4549677 146.393423 8.82212903 139.854975 8.82212903 139.854975 15.4549677 138.075601 15.4549677"></polyline>
                        <g id="Group-24" transform="translate(151.188612, 0.000000)" fill="#FFFFFE">
                            <path d="M3.2655516,15.713 C2.15091815,15.713 1.33927402,15.3691613 0.832455516,14.6820968 C0.325024911,13.9950323 0.0710035587,12.9794516 0.0710035587,11.634129 L0.0710035587,5.02212903 L1.85098932,5.02212903 L1.85098932,11.3981613 C1.85098932,12.3849355 2.00401423,13.0977419 2.31190036,13.5335161 C2.61917438,13.9705161 3.11558719,14.1887097 3.80175089,14.1887097 C4.34468327,14.1887097 4.8233452,14.0489677 5.23773665,13.7700968 C5.65212811,13.4912258 6.10997865,13.0438065 6.61006406,12.4284516 L6.61006406,5.02212903 L8.36801423,5.02212903 L8.36801423,15.4549677 L6.90999288,15.4549677 L6.76002847,13.8240323 L6.69575801,13.8240323 C6.20975089,14.3964839 5.69864769,14.8543226 5.1630605,15.1975484 C4.62686121,15.5407742 3.99456228,15.713 3.2655516,15.713" id="Fill-21"></path>
                            <path d="M15.7211673,14.2316129 C16.149637,14.2316129 16.5462776,14.1347742 16.911089,13.9417097 C17.2752883,13.7486452 17.5899075,13.477129 17.8543345,13.1259355 C18.1187616,12.7753548 18.3262633,12.3426452 18.4762278,11.8271935 C18.6261922,11.3117419 18.7008683,10.7325484 18.7008683,10.0883871 C18.7008683,9.51654839 18.6506762,8.99374194 18.5509039,8.52119355 C18.4511317,8.04925806 18.2901495,7.64535484 18.0685694,7.30825806 C17.8469893,6.9723871 17.5611388,6.71129032 17.2110178,6.52496774 C16.8608968,6.33925806 16.4428327,6.24609677 15.9574377,6.24609677 C15.1133523,6.24609677 14.1847972,6.71803226 13.1699359,7.66251613 L13.1699359,13.1369677 C13.6271744,13.5378065 14.0813523,13.8203548 14.5312456,13.9846129 C14.9817509,14.1494839 15.3783915,14.2316129 15.7211673,14.2316129 Z M16.0217082,15.713 C15.5357011,15.713 15.031331,15.5947097 14.5098221,15.3587419 C13.9883132,15.1221613 13.4986335,14.7973226 13.041395,14.3817742 L12.9771246,14.3817742 L12.8271601,15.4549677 L11.4119858,15.4549677 L11.4119858,0.171 L13.1699359,0.171 L13.1699359,4.33567742 L13.127089,6.22464516 C13.5990178,5.80970968 14.1131815,5.46280645 14.6701922,5.18332258 C15.228427,4.90445161 15.799516,4.76470968 16.3859075,4.76470968 C17.0573808,4.76470968 17.6505053,4.89035484 18.1652811,5.14041935 C18.6794448,5.39109677 19.1115872,5.74903226 19.4623203,6.2136129 C19.8118292,6.67880645 20.0768683,7.23716129 20.2556014,7.88806452 C20.4343345,8.53958065 20.5237011,9.26587097 20.5237011,10.0669355 C20.5237011,10.9544194 20.4018932,11.7487419 20.1588897,12.4499032 C19.9158861,13.1510645 19.5871886,13.7449677 19.1727972,14.2316129 C18.7577936,14.7182581 18.2791317,15.0866129 17.7361993,15.3366774 C17.1932669,15.5873548 16.6215658,15.713 16.0217082,15.713 L16.0217082,15.713 Z" id="Fill-23"></path>
                        </g>
                    </g>
                </g>
            </g>
        </g>
    </g>
</svg>