<?xml version="1.0" encoding="UTF-8"?>
<svg width="332px" height="376px" viewBox="0 0 332 376" version="1.1" xmlns="http://www.w3.org/2000/svg" xmlns:xlink="http://www.w3.org/1999/xlink">
    <title>Illustration/re-authorization</title>
    <defs>
        <linearGradient x1="50%" y1="-12.9750845%" x2="50%" y2="100%" id="linearGradient-1">
            <stop stop-color="#F3F8FF" offset="0%"></stop>
            <stop stop-color="#EEF1F9" offset="18.1431642%"></stop>
            <stop stop-color="#D3D9E7" offset="100%"></stop>
        </linearGradient>
        <path d="M0.113291576,0.441122425 L94.291738,0.441122425 L94.291738,55.7477862 C94.291738,58.8022888 91.9492308,61.2784526 89.0596021,61.2784526 L5.34542749,61.2784526 C2.45579861,61.2784526 0.113291576,58.8022888 0.113291576,55.7477862 L0.113291576,0.441122425 L0.113291576,0.441122425 Z" id="path-2"></path>
        <filter x="-60.5%" y="-93.7%" width="221.0%" height="287.4%" filterUnits="objectBoundingBox" id="filter-4">
            <feOffset dx="0" dy="0" in="SourceAlpha" result="shadowOffsetOuter1"></feOffset>
            <feGaussianBlur stdDeviation="19" in="shadowOffsetOuter1" result="shadowBlurOuter1"></feGaussianBlur>
            <feColorMatrix values="0 0 0 0 0.168627451   0 0 0 0 0.235294118   0 0 0 0 0.337254902  0 0 0 0.12 0" type="matrix" in="shadowBlurOuter1"></feColorMatrix>
        </filter>
        <path d="M5.80133968,-5.45696821e-12 L89.5155143,-5.45696821e-12 C92.405143,-5.45696821e-12 94.7476502,2.86713689 94.7476502,6.40392949 L94.7476502,16.0098237 L94.7476502,16.0098237 L0.569203773,16.0098237 L0.569203773,6.40392949 C0.569203773,2.86713689 2.91171081,-5.45696821e-12 5.80133968,-5.45696821e-12 Z" id="path-5"></path>
        <filter x="-60.5%" y="-356.0%" width="221.0%" height="812.1%" filterUnits="objectBoundingBox" id="filter-6">
            <feOffset dx="0" dy="0" in="SourceAlpha" result="shadowOffsetOuter1"></feOffset>
            <feGaussianBlur stdDeviation="19" in="shadowOffsetOuter1" result="shadowBlurOuter1"></feGaussianBlur>
            <feColorMatrix values="0 0 0 0 0.168627451   0 0 0 0 0.235294118   0 0 0 0 0.337254902  0 0 0 0.12 0" type="matrix" in="shadowBlurOuter1"></feColorMatrix>
        </filter>
        <polygon id="path-7" points="141.01208 245.084514 151.09 240.782854 151.09 0.403739428 0.09 64.8552335 0.0999289847 305.234348 9.82040505 301.086843 9.82040505 72.1519061 141.01208 16.1128735"></polygon>
        <filter x="-37.7%" y="-18.7%" width="175.5%" height="137.4%" filterUnits="objectBoundingBox" id="filter-8">
            <feOffset dx="0" dy="0" in="SourceAlpha" result="shadowOffsetOuter1"></feOffset>
            <feGaussianBlur stdDeviation="19" in="shadowOffsetOuter1" result="shadowBlurOuter1"></feGaussianBlur>
            <feColorMatrix values="0 0 0 0 0.168627451   0 0 0 0 0.235294118   0 0 0 0 0.337254902  0 0 0 0.12 0" type="matrix" in="shadowBlurOuter1"></feColorMatrix>
        </filter>
        <polygon id="path-9" points="158.17 2.60595449 6.09 67.0574486 0.28 64.5762863 152.36 0.132132904"></polygon>
        <filter x="-36.1%" y="-85.2%" width="172.2%" height="270.3%" filterUnits="objectBoundingBox" id="filter-10">
            <feOffset dx="0" dy="0" in="SourceAlpha" result="shadowOffsetOuter1"></feOffset>
            <feGaussianBlur stdDeviation="19" in="shadowOffsetOuter1" result="shadowBlurOuter1"></feGaussianBlur>
            <feColorMatrix values="0 0 0 0 0.168627451   0 0 0 0 0.235294118   0 0 0 0 0.337254902  0 0 0 0.12 0" type="matrix" in="shadowBlurOuter1"></feColorMatrix>
        </filter>
        <polyline id="path-11" points="0.28 0.712049536 0.19 241.069142 6.1 243.572326 6.09 3.19321184"></polyline>
        <filter x="-964.5%" y="-23.5%" width="2028.9%" height="146.9%" filterUnits="objectBoundingBox" id="filter-12">
            <feOffset dx="0" dy="0" in="SourceAlpha" result="shadowOffsetOuter1"></feOffset>
            <feGaussianBlur stdDeviation="19" in="shadowOffsetOuter1" result="shadowBlurOuter1"></feGaussianBlur>
            <feColorMatrix values="0 0 0 0 0.168627451   0 0 0 0 0.235294118   0 0 0 0 0.337254902  0 0 0 0.12 0" type="matrix" in="shadowBlurOuter1"></feColorMatrix>
        </filter>
        <linearGradient x1="50%" y1="0%" x2="50%" y2="100%" id="linearGradient-13">
            <stop stop-color="#C2C9D5" offset="0%"></stop>
            <stop stop-color="#8C99B2" offset="100%"></stop>
        </linearGradient>
        <polygon id="path-14" points="0.89 244.352553 142.49 228.181081 142.49 2.3984985 0.89 18.6067568"></polygon>
        <linearGradient x1="50%" y1="0%" x2="50%" y2="100%" id="linearGradient-15">
            <stop stop-color="#C2C9D5" offset="0%"></stop>
            <stop stop-color="#8C99B2" offset="100%"></stop>
        </linearGradient>
        <polygon id="path-16" points="7.94 16.5834835 92.17 6.94534535 92.17 87.6408408 7.94 97.278979"></polygon>
        <linearGradient x1="50%" y1="0%" x2="50%" y2="100%" id="linearGradient-17">
            <stop stop-color="#C2C9D5" offset="0%"></stop>
            <stop stop-color="#8C99B2" offset="100%"></stop>
        </linearGradient>
        <polygon id="path-18" points="8.24 9.93243243 36.17 6.73198198 36.17 87.4274775 8.24 90.6279279"></polygon>
        <linearGradient x1="50%" y1="0%" x2="50%" y2="100%" id="linearGradient-19">
            <stop stop-color="#C2C9D5" offset="0%"></stop>
            <stop stop-color="#8C99B2" offset="100%"></stop>
        </linearGradient>
        <polygon id="path-20" points="8 9.71906907 35.93 6.51126126 35.93 87.2141141 8 90.4145646"></polygon>
        <circle id="path-21" cx="48.3344263" cy="2" r="2"></circle>
        <filter x="-175.0%" y="-125.0%" width="450.0%" height="450.0%" filterUnits="objectBoundingBox" id="filter-22">
            <feOffset dx="0" dy="2" in="SourceAlpha" result="shadowOffsetOuter1"></feOffset>
            <feGaussianBlur stdDeviation="2" in="shadowOffsetOuter1" result="shadowBlurOuter1"></feGaussianBlur>
            <feColorMatrix values="0 0 0 0 0   0 0 0 0 0   0 0 0 0 0  0 0 0 0.5 0" type="matrix" in="shadowBlurOuter1"></feColorMatrix>
        </filter>
        <path d="M4.25621306,28.5828348 L100.646264,28.0403598 C101.750816,28.0341434 102.651272,28.9245204 102.657488,30.0290724 C102.657771,30.0793716 102.656156,30.1296636 102.652648,30.179841 L101.688974,43.9610236 C101.616274,45.0006735 100.757394,45.8102342 99.7152654,45.821396 L3.29093031,46.8541578 C2.18642416,46.8659877 1.28145497,45.9801986 1.26962506,44.8756925 C1.26905004,44.8220061 1.27063706,44.7683183 1.27438225,44.7147596 L2.27234061,30.4432901 C2.3453126,29.3997421 3.21013336,28.588722 4.25621306,28.5828348 Z" id="path-23"></path>
        <filter x="-8.2%" y="-23.8%" width="116.4%" height="195.3%" filterUnits="objectBoundingBox" id="filter-24">
            <feOffset dx="0" dy="5" in="SourceAlpha" result="shadowOffsetOuter1"></feOffset>
            <feGaussianBlur stdDeviation="2" in="shadowOffsetOuter1" result="shadowBlurOuter1"></feGaussianBlur>
            <feColorMatrix values="0 0 0 0 0   0 0 0 0 0   0 0 0 0 0  0 0 0 0.1 0" type="matrix" in="shadowBlurOuter1"></feColorMatrix>
        </filter>
    </defs>
    <g id="Desktop-1344" stroke="none" stroke-width="1" fill="none" fill-rule="evenodd">
        <g id="[E/I]-13.3-Re-authorizing-screen-" transform="translate(-515.000000, -181.000000)">
            <g id="Group-2" transform="translate(515.000000, 216.000000)">
                <g id="door">
                    <g id="Floor" transform="translate(0.000000, 236.000000)" fill="url(#linearGradient-1)">
                        <path d="M43.6834466,72.1528782 C-14.1175616,55.7510402 -14.1175616,29.1574734 43.6834466,12.7556353 C101.484455,-3.64620276 195.191564,-3.64620276 252.984835,12.7556353 C310.778107,29.1574734 310.785844,55.7510402 252.984835,72.1528782 C195.183827,88.5547163 101.484455,88.5547163 43.6834466,72.1528782 Z" id="Floor_5_"></path>
                    </g>
                    <g id="Shadows" transform="translate(64.000000, 283.000000)" fill="#E0E0E0" fill-rule="nonzero">
                        <polygon id="Shadow_4_" points="138.18 0.1672 142.49 2.0596 0.89 18.8024 0.89 16.4008"></polygon>
                    </g>
                    <g id="Wall" transform="translate(9.000000, 0.000000)">
                        <g id="Interior" transform="translate(55.000000, 20.554007)">
                            <g id="Group">
                                <g id="Solution" transform="translate(177.000000, 150.445993) rotate(12.000000) translate(-177.000000, -150.445993) translate(85.000000, 60.445993)">
                                    <g id="Group-5-Copy" transform="translate(92.000000, 90.000000) rotate(23.000000) translate(-92.000000, -90.000000) translate(21.000000, 23.000000)">
                                        <g id="Group-9" transform="translate(70.804022, 66.614367) rotate(-29.000000) translate(-70.804022, -66.614367) translate(14.804022, 21.614367)">
                                            <g id="Group-6" transform="translate(58.667156, 45.032650) rotate(6.000000) translate(-58.667156, -45.032650) translate(9.667156, 5.032650)">
                                                <g id="Group-10" transform="translate(0.034687, 0.497117)">
                                                    <g id="window" transform="translate(0.931138, 0.374251)">
                                                        <g id="Oval" transform="translate(0.455912, 15.568701)">
                                                            <mask id="mask-3" fill="white">
                                                                <use xlink:href="#path-2"></use>
                                                            </mask>
                                                            <g id="Mask" fill-rule="nonzero">
                                                                <use fill="black" fill-opacity="1" filter="url(#filter-4)" xlink:href="#path-2"></use>
                                                                <use fill="#FFFFFF" xlink:href="#path-2"></use>
                                                            </g>
                                                        </g>
                                                        <g id="Rectangle-Copy-13" fill-rule="nonzero">
                                                            <use fill="black" fill-opacity="1" filter="url(#filter-6)" xlink:href="#path-5"></use>
                                                            <use fill="#D1EEE8" xlink:href="#path-5"></use>
                                                        </g>
                                                    </g>
                                                    <g id="Group" transform="translate(43.487255, 46.735560)"></g>
                                                </g>
                                            </g>
                                        </g>
                                    </g>
                                    <g id="Face" transform="translate(83.021734, 78.703868)" fill="#4E545C">
                                        <path d="M12.5970869,24.9076735 C15.8697975,24.9076735 18.526242,21.1360599 18.526242,20.2103952 C18.526242,19.2847306 15.7989525,20.7772841 12.526242,20.7772841 C9.25353143,20.7772841 6.52624199,19.2847306 6.52624199,20.2103952 C6.52624199,21.1360599 9.32437639,24.9076735 12.5970869,24.9076735 Z" id="Oval"></path>
                                        <path d="M3.00507516,1.46401624 L3.29570298,1.40587993 C4.35646472,1.19368837 5.39295137,1.86597615 5.63172236,2.9210729 L6.80462995,8.10399317 C7.04770793,9.17812194 6.37400815,10.245929 5.29987938,10.489007 C5.28359227,10.4926928 5.26725951,10.4961739 5.25088496,10.4994494 L4.96025714,10.5575857 C3.89949539,10.7697772 2.86300874,10.0974895 2.62423776,9.04239271 L1.45133017,3.85947244 C1.20825219,2.78534367 1.88195196,1.71753662 2.95608073,1.47445864 C2.97236784,1.47077283 2.9887006,1.46729176 3.00507516,1.46401624 Z" id="Rectangle" transform="translate(4.127980, 5.981733) rotate(12.000000) translate(-4.127980, -5.981733) "></path>
                                        <path d="M20.2566672,1.43956848 L20.547295,1.38143217 C21.6080568,1.16924061 22.6445434,1.84152839 22.8833144,2.89662515 L24.056222,8.07954541 C24.2993,9.15367419 23.6256002,10.2214812 22.5514714,10.4645592 C22.5351843,10.468245 22.5188516,10.4717261 22.502477,10.4750016 L22.2118492,10.5331379 C21.1510874,10.7453295 20.1146008,10.0730417 19.8758298,9.01794496 L18.7029222,3.83502469 C18.4598442,2.76089592 19.133544,1.69308886 20.2076728,1.45001088 C20.2239599,1.44632507 20.2402926,1.442844 20.2566672,1.43956848 Z" id="Rectangle-Copy-10" transform="translate(21.379572, 5.957285) rotate(12.000000) translate(-21.379572, -5.957285) "></path>
                                    </g>
                                </g>
                                <polygon id="Path" fill="#27DEBF" fill-rule="nonzero" points="0.89 170.715712 127.12 224.244219 127.12 0.264265807 0.89 53.8001139"></polygon>
                                <polygon id="Path" fill="#000000" fill-rule="nonzero" opacity="0.4" points="0.89 170.715712 127.12 224.244219 127.12 0.264265807 0.89 53.8001139"></polygon>
                            </g>
                            <polygon id="Path" fill="#E0E0E0" fill-rule="nonzero" points="127.12 224.244219 0.89 170.715712 0.89 277.728682"></polygon>
                        </g>
                        <g id="Casing" transform="translate(40.000000, 0.000000)" fill-rule="nonzero">
                            <g id="Group" transform="translate(142.000000, 17.617720)">
                                <polygon id="Path" fill="#66D1B9" points="0.12 227.180506 6.02 229.669009 6.02 0.697368103 0.12 3.20055256"></polygon>
                                <polygon id="Path" fill="#FFFFFF" opacity="0.4" points="0.12 227.180506 6.02 229.669009 6.02 0.697368103 0.12 3.20055256"></polygon>
                                <polygon id="Path" fill="#000000" opacity="0.1" points="0.12 227.180506 6.02 229.669009 6.02 0.697368103 0.12 3.20055256"></polygon>
                            </g>
                            <g id="Group" transform="translate(6.000000, 2.202215)">
                                <polygon id="Path" fill="#27DEBF" points="141.01208 245.084514 151.09 240.782854 151.09 0.403739428 0.09 64.8552335 0.0999289847 305.234348 9.82040505 301.086843 9.82040505 72.1519061 141.01208 16.1128735"></polygon>
                                <g id="Path">
                                    <use fill="black" fill-opacity="1" filter="url(#filter-8)" xlink:href="#path-7"></use>
                                    <use fill="#D1EEE8" xlink:href="#path-7"></use>
                                </g>
                            </g>
                            <g id="Group">
                                <polygon id="Path" fill="#27DEBF" points="158.17 2.60595449 6.09 67.0574486 0.28 64.5762863 152.36 0.132132904"></polygon>
                                <g id="Path">
                                    <use fill="black" fill-opacity="1" filter="url(#filter-10)" xlink:href="#path-9"></use>
                                    <use fill="#E0FFF9" xlink:href="#path-9"></use>
                                </g>
                            </g>
                            <g id="Group" transform="translate(0.000000, 63.864237)">
                                <polygon id="Path" fill="#27DEBF" points="6.1 243.572326 6.09 3.19321184 0.28 0.712049536 0.19 241.069142"></polygon>
                                <g id="Path">
                                    <use fill="black" fill-opacity="1" filter="url(#filter-12)" xlink:href="#path-11"></use>
                                    <use fill="#BED9D3" xlink:href="#path-11"></use>
                                </g>
                            </g>
                        </g>
                    </g>
                    <g id="Door_1_" transform="translate(64.000000, 56.000000)" fill-rule="nonzero">
                        <g id="Door">
                            <g id="Group">
                                <g id="Path">
                                    <use fill="url(#linearGradient-13)" xlink:href="#path-14"></use>
                                    <use fill="#C5CCD8" xlink:href="#path-14"></use>
                                </g>
                                <polygon id="Path" fill="#37474F" points="138.18 0.566516517 142.49 2.3984985 0.89 18.6067568 8.37 15.421021"></polygon>
                            </g>
                            <g id="Group" opacity="0.304598854" transform="translate(22.000000, 123.603604)">
                                <polygon id="Path" fill="#455A64" opacity="0.298822312" points="0.5 11.8968468 99.6 0.566516517 99.61 92.3348348 0.5 103.657808"></polygon>
                                <g id="Path">
                                    <use fill="url(#linearGradient-15)" xlink:href="#path-16"></use>
                                    <use fill="#D5DAE2" xlink:href="#path-16"></use>
                                </g>
                                <polygon id="Path" fill="#37474F" opacity="0.322349912" points="0.5 11.8968468 7.94 16.5834835 7.94 97.278979 0.5 103.657808"></polygon>
                                <polygon id="Path" fill="#37474F" opacity="0.322349912" points="92.17 6.94534535 99.6 0.566516517 99.61 92.3348348 92.17 87.6408408"></polygon>
                            </g>
                            <g id="Group" opacity="0.297975086" transform="translate(22.000000, 19.129129)">
                                <g transform="translate(56.000000, 0.000000)" id="Path">
                                    <polygon fill="#455A64" opacity="0.297700428" points="0.8 5.2457958 43.6 0.345795796 43.61 92.1141141 0.81 97.0067568"></polygon>
                                    <g>
                                        <use fill="url(#linearGradient-17)" xlink:href="#path-18"></use>
                                        <use fill="#D5DAE2" xlink:href="#path-18"></use>
                                    </g>
                                    <polygon fill="#263238" opacity="0.322253999" points="0.81 97.0067568 8.24 90.6279279 36.17 87.4274775 43.61 92.1141141"></polygon>
                                    <polygon fill="#37474F" opacity="0.30133202" points="0.8 5.2457958 8.24 9.93243243 8.24 90.6279279 0.81 97.0067568"></polygon>
                                </g>
                                <g transform="translate(0.000000, 6.621622)" id="Path">
                                    <polygon fill="#455A64" opacity="0.297700428" points="0.57 5.02507508 43.37 0.132432432 43.37 91.9007508 0.57 96.7933934"></polygon>
                                    <g>
                                        <use fill="url(#linearGradient-19)" xlink:href="#path-20"></use>
                                        <use fill="#D5DAE2" xlink:href="#path-20"></use>
                                    </g>
                                    <polygon fill="#263238" opacity="0.322253999" points="0.57 96.7933934 8 90.4145646 35.93 87.2141141 43.37 91.9007508"></polygon>
                                    <polygon fill="#37474F" opacity="0.296003069" points="0.57 5.02507508 8 9.71906907 8 90.4145646 0.57 96.7933934"></polygon>
                                    <polygon fill="#37474F" opacity="0.043401809" points="35.93 6.51126126 43.37 0.132432432 43.37 91.9007508 35.93 87.2141141"></polygon>
                                </g>
                            </g>
                            <g id="Latch" transform="translate(107.000000, 105.945946)">
                                <polygon id="Path" fill="#E0E0E0" points="16.41 1.52297297 18.34 2.9503003 18.34 26.5232733 16.41 25.0959459"></polygon>
                                <polygon id="Path" fill="#FAFAFA" points="18.34 2.9503003 28.75 1.80255255 28.75 25.3828829 18.34 26.5232733"></polygon>
                                <polygon id="Path" fill="#000000" opacity="0.05" points="28.75 8.29174174 18.34 9.41006006 18.34 14.0231231 28.75 12.9121622"></polygon>
                                <polygon id="Path" fill="#EBEBEB" points="28.75 1.80255255 26.82 0.375225225 16.41 1.52297297 18.34 2.9503003"></polygon>
                                <g id="Group" transform="translate(0.000000, 5.150150)">
                                    <path d="M22.33,2.26606607 L27.1,5.7975976 L29.01,3.96561562 L24.24,0.434084084 L24.24,0.434084084 C24,0.25015015 23.66,0.161861862 23.28,0.206006006 C22.53,0.286936937 21.93,0.868168168 21.93,1.5009009 C21.94,1.80990991 22.09,2.08213213 22.33,2.26606607 Z" id="Path" fill="#E0E0E0"></path>
                                    <polygon id="Path" fill="#000000" opacity="0.1" points="18.34 4.30405405 25.93 4.92207207 25.93 3.24459459 27.78 3.04594595 26.04 1.75840841 18.34 2.62657658"></polygon>
                                    <g transform="translate(0.000000, 1.471471)" id="Path">
                                        <polygon fill="#FAFAFA" points="2.71 4.85585586 2.71 8.53453453 29.83 5.54744745 29.83 1.86876877"></polygon>
                                        <polygon fill="#E0E0E0" points="2.71 4.85585586 0.98 3.56831832 0.98 7.25435435 2.71 8.53453453"></polygon>
                                        <polygon fill="#EBEBEB" points="29.83 1.86876877 28.09 0.581231231 0.98 3.56831832 2.71 4.85585586"></polygon>
                                    </g>
                                </g>
                                <path d="M21.79,17.6282282 C21.79,16.8042042 22.58,16.0537538 23.54,15.9433934 C24.51,15.833033 25.29,16.4142643 25.29,17.2382883 C25.29,17.8489489 24.85,18.4228228 24.23,18.7171171 L24.23,21.122973 C24.23,21.4025526 23.96,21.6527027 23.64,21.6894895 L23.44,21.7115616 C23.11,21.7483483 22.85,21.5496997 22.85,21.2701201 L22.85,18.8642643 C22.23,18.7171171 21.79,18.2462462 21.79,17.6282282 Z" id="Path" fill="#455A64"></path>
                            </g>
                        </g>
                    </g>
                </g>
                <g id="table" transform="translate(84.665574, 88.000000)">
                    <path d="M47.8530442,2.33708082 L9.53966898,31.321005 C9.09921838,31.6542042 9.01227396,32.2813713 9.34547318,32.7218219 C9.54857456,32.9902983 9.87313064,33.1385659 10.2090401,33.1163269 L91.3892301,27.7417763 C91.9403085,27.705292 92.3574694,27.2289784 92.3209851,26.6779001 C92.2981858,26.3335264 92.0994216,26.0252494 91.7951549,25.8623543 L47.8530442,2.33708082 L47.8530442,2.33708082 Z" id="Path-2" stroke="#263238"></path>
                    <g id="Oval">
                        <use fill="black" fill-opacity="1" filter="url(#filter-22)" xlink:href="#path-21"></use>
                        <use fill="#FFFFFF" fill-rule="evenodd" xlink:href="#path-21"></use>
                    </g>
                    <g id="Rectangle" transform="translate(51.963131, 37.452799) rotate(-4.000000) translate(-51.963131, -37.452799) ">
                        <use fill="black" fill-opacity="1" filter="url(#filter-24)" xlink:href="#path-23"></use>
                        <use fill="#FFFFFF" fill-rule="evenodd" xlink:href="#path-23"></use>
                    </g>
                    <path d="M7.09351404,44.0233175 L7.56509569,42.1658971 L10.0490302,41.9922034 L10.7745254,43.7659161 L12.1012856,43.67314 L9.11210448,36.7648264 L7.76539301,36.8589977 L5.76675385,44.1160936 L7.09351404,44.0233175 Z M9.65656538,40.9670833 L7.80109624,41.0968303 L8.34813505,38.9511682 L8.34813505,38.9511682 L8.41929353,38.6098701 L8.41929353,38.6098701 L8.51956139,38.0392646 L8.51956139,38.0392646 L8.53951267,38.0378695 L8.67477464,38.4822704 L8.67477464,38.4822704 L8.78287534,38.8102122 L8.78287534,38.8102122 L8.85858004,39.0208289 C8.87107685,39.0539021 8.88344073,39.0856614 8.89556273,39.1156581 L9.65656538,40.9670833 Z M16.4091574,43.4921973 C18.1149919,43.3729137 19.1868536,42.2153246 19.0759408,40.6291978 L18.7585488,36.0902813 L17.4716912,36.1802672 L17.7883856,40.709208 C17.8553518,41.6668695 17.264555,42.2495006 16.3168691,42.3157693 C15.3691833,42.3820379 14.7130251,41.8866024 14.6467564,40.9389165 L14.3293645,36.4000001 L13.0425068,36.4899859 L13.3598988,41.0289024 C13.4708116,42.6150292 14.6933472,43.6121784 16.4091574,43.4921973 Z M24.4012503,42.8130427 L23.983409,36.837634 L26.3077333,36.6751014 L26.2303036,35.5678053 L20.2947975,35.9828564 L20.3722272,37.0901525 L22.6965514,36.9276199 L23.1143927,42.9030285 L24.4012503,42.8130427 Z M29.6484372,42.4461236 L29.4405629,39.4733828 L32.6826461,39.2466742 L32.8905204,42.2194151 L34.177378,42.1294292 L33.682107,35.0467245 L32.3952494,35.1367103 L32.6052164,38.1393781 L29.3631332,38.3660867 L29.1531663,35.3634189 L27.8663086,35.4534047 L28.3615796,42.5361095 L29.6484372,42.4461236 Z M39.8519126,41.8529202 C41.9368214,41.7071291 43.3992696,39.9708845 43.2534786,37.8859756 C43.1118729,35.8609206 41.4248089,34.385009 39.3399001,34.5308 C37.2549912,34.6765911 35.7897528,36.3729331 35.9313584,38.3979882 C36.0771495,40.482897 37.7670037,41.9987112 39.8519126,41.8529202 Z M39.7695999,40.6757946 C38.4727667,40.766478 37.3599631,39.7616556 37.2581186,38.305212 C37.1604596,36.9086224 38.1253794,35.798609 39.4222127,35.7079256 C40.719046,35.6172422 41.8290593,36.5821621 41.9267184,37.9787517 C42.0285628,39.4351953 41.0664332,40.5851112 39.7695999,40.6757946 Z M46.7965632,41.2470099 L46.6117086,38.6034651 L47.848688,38.5169671 L49.440108,41.0621552 L50.8766002,40.9617059 L49.235302,38.4200056 C49.1960275,38.3600993 49.1599009,38.3093708 49.1278028,38.2669753 L49.0444752,38.1639432 L49.0444752,38.1639432 L48.9714719,38.0875997 L48.9714719,38.0875997 L48.9700768,38.0676485 C49.6973229,37.7160619 50.0911191,36.8965959 50.0318261,36.0486664 C49.966255,35.1109562 49.4699168,34.4640031 48.7393242,34.1943097 C48.4203134,34.0762752 48.0669806,34.0408361 47.2988563,34.0945486 L45.0144346,34.2542909 L45.5097056,41.3369957 L46.7965632,41.2470099 Z M47.6907556,37.4052759 L46.5335813,37.4861934 L46.378722,35.2716012 L47.3563347,35.2032398 C48.3638744,35.1327858 48.6824657,35.5315333 48.7299001,36.2098769 C48.7794272,36.9181474 48.3790748,37.3571439 47.6907556,37.4052759 Z M54.0588295,40.7391827 L53.5635586,33.656478 L52.2767009,33.7464638 L52.7719719,40.8291686 L54.0588295,40.7391827 Z M61.3510227,40.2292629 L61.273593,39.1219668 L57.9841661,39.3528474 L57.9841661,39.3528474 L57.7142339,39.3808859 L57.7142339,39.3808859 L57.5740255,39.4007146 L57.5740255,39.4007146 L57.5726304,39.3807633 L57.6673031,39.2666814 L57.6673031,39.2666814 L57.7715301,39.1286747 L57.7715301,39.1286747 L57.9011387,38.940776 C57.9243325,38.905472 57.9481918,38.8682169 57.9725207,38.8290745 L60.8730495,33.9673509 L60.8158492,33.1493484 L55.6983456,33.5071991 L55.7757753,34.6144952 L58.8656895,34.3975659 L58.8656895,34.3975659 L59.1356216,34.3695274 L59.1356216,34.3695274 L59.27583,34.3496987 L59.2772251,34.36965 L59.1825525,34.4837319 L59.1825525,34.4837319 L59.0783254,34.6217386 L59.0783254,34.6217386 L58.9487169,34.8096374 C58.925523,34.8449413 58.9016637,34.8821964 58.8773349,34.9213388 L55.9761085,39.7730867 L56.0340063,40.6010649 L61.3510227,40.2292629 Z M63.8150059,40.0569644 L64.2865876,38.199544 L66.7705221,38.0258503 L67.4960173,39.799563 L68.8227775,39.7067869 L65.8335964,32.7984733 L64.4868849,32.8926446 L62.4882457,40.1497405 L63.8150059,40.0569644 Z M66.3780573,37.0007302 L64.5225881,37.1304772 L65.0442388,35.091945 L65.0442388,35.091945 L65.0943807,34.8725281 L65.0943807,34.8725281 L65.1981377,34.3302872 L65.1981377,34.3302872 L65.2410533,34.0729115 L65.2410533,34.0729115 L65.2610046,34.0715164 L65.4307011,34.6232442 L65.4307011,34.6232442 L65.5422916,34.9517632 L65.5422916,34.9517632 L65.6170546,35.149305 L65.6170546,35.149305 L66.3780573,37.0007302 Z M72.7731311,39.4305513 L72.3552898,33.4551426 L74.6796141,33.29261 L74.6021844,32.1853139 L68.6666783,32.600365 L68.744108,33.7076611 L71.0684322,33.5451285 L71.4862735,39.5205371 L72.7731311,39.4305513 Z M78.020318,39.0636322 L77.525047,31.9809275 L76.2381894,32.0709133 L76.7334604,39.1536181 L78.020318,39.0636322 Z M83.6948526,38.7871231 C85.7797615,38.6413321 87.2422096,36.9050875 87.0964186,34.8201786 C86.9548129,32.7951236 85.2677489,31.319212 83.1828401,31.465003 C81.0979312,31.610794 79.6326928,33.3071361 79.7742984,35.3321911 C79.9200895,37.4171 81.6099437,38.9329142 83.6948526,38.7871231 Z M83.61254,37.6099976 C82.3157067,37.700681 81.2029031,36.6958585 81.1010586,35.239415 C81.0033996,33.8428254 81.9683194,32.732812 83.2651527,32.6421286 C84.561986,32.5514452 85.6719993,33.5163651 85.7696584,34.9129547 C85.8715028,36.3693982 84.9093732,37.5193141 83.61254,37.6099976 Z M89.3526456,38.2711987 L90.6395032,38.1812128 L90.345161,33.9916669 L90.345161,33.9916669 L90.3031806,33.6317394 L90.3031806,33.6317394 L90.2076377,33.0087384 L90.2076377,33.0087384 L90.2275889,33.0073432 L90.4789322,33.4396026 L90.4789322,33.4396026 L90.6108691,33.652447 L90.6108691,33.652447 L90.7520338,33.8672742 C90.7995664,33.9369275 90.8470466,34.0034817 90.8928839,34.0635074 L93.8616351,37.9558994 L95.1385171,37.8666111 L94.6432461,30.7839064 L93.3663642,30.8731947 L93.661404,35.0727162 L93.661404,35.0727162 L93.6876259,35.3106565 L93.6876259,35.3106565 L93.7526983,35.7720096 L93.7526983,35.7720096 L93.7989273,36.0556448 L93.7989273,36.0556448 L93.778976,36.0570399 L93.5871589,35.7240289 L93.5871589,35.7240289 L93.4634142,35.5198923 L93.4634142,35.5198923 L93.3256706,35.3034844 L93.3256706,35.3034844 L93.1834704,35.095382 C93.1599291,35.0625336 93.1365998,35.0308886 93.1136811,35.0008758 L90.1442323,31.0985081 L88.8573747,31.1884939 L89.3526456,38.2711987 Z" id="Shape" fill="#202025" fill-rule="nonzero"></path>
                </g>
            </g>
        </g>
    </g>
</svg>