<?xml version="1.0" encoding="UTF-8"?>
<svg width="163px" height="18px" viewBox="0 0 163 18" version="1.1" xmlns="http://www.w3.org/2000/svg" xmlns:xlink="http://www.w3.org/1999/xlink">
    <title>3.0 Identity / Logo / SolutionsHub / Black</title>
    <defs>
        <polygon id="path-1" points="0.340501779 0.345483871 13.5597438 0.345483871 13.5597438 16.803871 0.340501779 16.803871"></polygon>
    </defs>
    <g id="Desktop-1344" stroke="none" stroke-width="1" fill="none" fill-rule="evenodd">
        <g id="[I]-10.0.6-Asset-Page---PDF" transform="translate(-415.000000, -60.000000)">
            <g id="Logo-SolutionsHub-Primary" transform="translate(415.000000, 60.000000)">
                <g id="Group-4" transform="translate(6.380783, 1.161290)">
                    <mask id="mask-2" fill="white">
                        <use xlink:href="#path-1"></use>
                    </mask>
                    <g id="Clip-2"></g>
                    <path d="M2.0888363,7.70864516 L2.0969573,10.7297419 C2.0969573,11.4979355 2.46820285,11.8770968 3.20199288,11.8770968 L3.52335231,11.8770968 C4.25772242,11.8770968 4.6283879,11.4979355 4.6283879,10.7297419 L4.6283879,9.24387097 L6.31929537,9.24387097 L6.31929537,10.6554194 C6.31929537,12.5953548 5.379,13.5859355 3.51523132,13.5859355 L3.14398577,13.5859355 C1.28021708,13.5859355 0.340501779,12.6040645 0.340501779,10.8865161 L0.340501779,3.49896774 C0.340501779,1.32793548 1.28021708,0.345483871 3.14398577,0.345483871 L3.51523132,0.345483871 C5.379,0.345483871 6.31929537,1.32793548 6.31929537,3.26729032 L6.31117438,7.70051613 L2.0888363,7.70051613 L2.0888363,7.70864516 Z M2.0888363,5.95045161 L4.57096085,5.95045161 L4.57096085,3.20167742 C4.57096085,2.43406452 4.2078363,2.0456129 3.46592527,2.0456129 L3.18517082,2.0456129 C2.45138078,2.0456129 2.08013523,2.43406452 2.08013523,3.20167742 L2.08013523,5.95045161 L2.0888363,5.95045161 L2.0888363,5.95045161 Z" id="Fill-1" fill="#222222" mask="url(#mask-2)"></path>
                    <path d="M7.44869395,0.494129032 L9.19702847,0.494129032 L9.19702847,1.33606452 C9.60945907,0.882 10.3188861,0.353612903 11.3328505,0.353612903 C12.8259537,0.353612903 13.5597438,1.38541935 13.5597438,2.92122581 L13.5597438,11.0270323 C13.5597438,12.5628387 12.8259537,13.5946452 11.3328505,13.5946452 C10.3188861,13.5946452 9.60945907,13.0906452 9.19702847,12.6615484 L9.19702847,16.8387097 L7.44869395,16.8387097 L7.44869395,0.494129032 Z M9.19702847,11.1843871 C9.67558719,11.6134839 10.2278149,11.8527097 10.8055658,11.8527097 C11.4488648,11.8527097 11.8195302,11.5391613 11.8195302,10.7959355 L11.8195302,3.11922581 C11.8195302,2.376 11.4488648,2.06245161 10.8055658,2.06245161 C10.2278149,2.06245161 9.67558719,2.30167742 9.19702847,2.73135484 L9.19702847,11.1843871 L9.19702847,11.1843871 Z" id="Fill-3" fill="#222222" mask="url(#mask-2)"></path>
                </g>
                <path d="M20.9962562,10.0916129 C20.9962562,8.48206452 21.4991779,7.83812903 22.8350819,7.35967742 L25.1768292,6.51774194 L25.1768292,4.36296774 C25.1768292,3.59535484 24.8061637,3.19064516 24.0723737,3.19064516 L23.7916192,3.19064516 C23.0578292,3.19064516 22.6865836,3.59535484 22.6865836,4.36296774 L22.6865836,6.19548387 L20.9875552,6.19548387 L20.9875552,4.43729032 C20.9875552,2.49735484 21.9284306,1.51490323 23.7916192,1.51490323 L24.1216797,1.51490323 C25.9854484,1.51490323 26.9257438,2.49735484 26.9257438,4.43729032 L26.9257438,14.6072903 L25.1768292,14.6072903 L25.1768292,13.7897419 C24.6988505,14.2687742 24.0474306,14.7472258 23.0410071,14.7472258 C21.6395552,14.7472258 20.9962562,13.905871 20.9962562,12.4693548 L20.9962562,10.0916129 Z M25.1768292,12.42 L25.1768292,8.15167742 L23.5938149,8.77935484 C22.950516,9.04354839 22.7445907,9.38206452 22.7445907,10.1247097 L22.7445907,12.0896129 C22.7445907,12.7167097 23.0410071,13.022129 23.5938149,13.022129 C24.1216797,13.022129 24.6083594,12.8322581 25.1768292,12.42 L25.1768292,12.42 Z" id="Fill-5" fill="#222222"></path>
                <path d="M33.9846299,14.6072903 L32.2368754,14.6072903 L32.2368754,4.17309677 C32.2368754,3.52916129 31.9392989,3.24058065 31.4120142,3.24058065 C30.9334555,3.24058065 30.4218327,3.42987097 29.8034769,3.88393548 L29.8034769,14.6072903 L28.0557224,14.6072903 L28.0557224,1.65541935 L29.8034769,1.65541935 L29.8034769,2.49735484 C30.3150996,1.99393548 30.9746406,1.50677419 31.9392989,1.50677419 C32.8384093,1.50677419 33.4318221,1.89464516 33.7537616,2.56354839 C34.3808185,2.01019355 35.1146085,1.50677419 36.120452,1.50677419 C37.4731779,1.50677419 38.1657829,2.37367742 38.1657829,3.78522581 L38.1657829,14.5991613 L36.4174484,14.5991613 L36.4174484,4.17309677 C36.4174484,3.52916129 36.120452,3.24058065 35.5931673,3.24058065 C35.1146085,3.24058065 34.6029858,3.42987097 33.9846299,3.88393548 L33.9846299,14.6072903" id="Fill-6" fill="#222222"></path>
                <polyline id="Fill-7" fill="#23A2BC" points="0 7.3016129 0 9.05167742 4.48627046 13.4518065 4.48627046 11.0165806 1.55053025 8.15167742 4.48627046 5.22987097 4.48627046 2.844 0 7.3016129"></polyline>
                <polyline id="Fill-8" fill="#23A2BC" points="40.3839751 5.22987097 43.3197153 8.15167742 40.3839751 11.0247097 40.3839751 13.4518065 44.8702456 9.05167742 44.8702456 7.3016129 40.3839751 2.844 40.3839751 5.22987097"></polyline>
                <path d="M57.2246014,14.886 C56.2901068,14.886 55.4229004,14.7094839 54.6241423,14.3570323 C53.8248043,14.0045806 53.1339395,13.5232258 52.551548,12.9129677 L53.5678327,11.7330968 C54.0417509,12.2353548 54.6003594,12.6383226 55.2442384,12.9437419 C55.8869573,13.2485806 56.5540391,13.4012903 57.2449039,13.4012903 C58.125452,13.4012903 58.8093559,13.2009677 59.2971957,12.8014839 C59.7844555,12.4014194 60.0286655,11.8759355 60.0286655,11.2250323 C60.0286655,10.8859355 59.9706584,10.5979355 59.8558043,10.3610323 C59.7403701,10.1235484 59.584331,9.92032258 59.3882669,9.75077419 C59.1922028,9.58122581 58.9578541,9.42909677 58.6875409,9.29322581 C58.4160676,9.15793548 58.125452,9.01567742 57.8139537,8.86587097 L55.9037794,8.03206452 C55.5922811,7.89677419 55.2744021,7.73419355 54.9489822,7.54432258 C54.6241423,7.35445161 54.3329466,7.12393548 54.075395,6.85277419 C53.8184235,6.5816129 53.6084377,6.25993548 53.4454377,5.88658065 C53.2835979,5.5143871 53.2018078,5.08354839 53.2018078,4.59580645 C53.2018078,4.09412903 53.3068007,3.62612903 53.5167865,3.1923871 C53.7267722,2.75806452 54.017968,2.3823871 54.3903737,2.0636129 C54.7633594,1.74483871 55.2030534,1.49748387 55.7111957,1.32096774 C56.218758,1.14503226 56.7779466,1.05677419 57.3870214,1.05677419 C58.1863594,1.05677419 58.92421,1.20948387 59.6017331,1.51432258 C60.2786762,1.81916129 60.8541068,2.21574194 61.328605,2.70406452 L60.4144128,3.80206452 C60.0077829,3.40954839 59.5576477,3.10064516 59.063427,2.87709677 C58.5686263,2.65296774 58.0100178,2.54148387 57.3870214,2.54148387 C56.64221,2.54148387 56.0429964,2.71393548 55.5893808,3.06 C55.1351851,3.40548387 54.9083772,3.88335484 54.9083772,4.4936129 C54.9083772,4.81935484 54.9727651,5.09341935 55.1015409,5.31754839 C55.2303167,5.54109677 55.4025979,5.73793548 55.6195445,5.90690323 C55.8364911,6.07703226 56.0731601,6.22567742 56.3307117,6.35458065 C56.5876833,6.48348387 56.8516157,6.60193548 57.123089,6.71051613 L59.0123808,7.52341935 C59.3917473,7.68658065 59.7508114,7.87296774 60.089573,8.08316129 C60.4277544,8.29335484 60.7189502,8.53780645 60.9625801,8.81535484 C61.20679,9.09348387 61.3993737,9.41864516 61.5420712,9.79141935 C61.6841886,10.1641935 61.7555374,10.5950323 61.7555374,11.0827742 C61.7555374,11.6111613 61.6505445,12.1064516 61.4405587,12.5669032 C61.2299929,13.0285161 60.9289359,13.4314839 60.5362278,13.7769677 C60.1435196,14.1230323 59.6690214,14.3941935 59.1138932,14.5904516 C58.5587651,14.7872903 57.9288078,14.886 57.2246014,14.886" id="Fill-9" fill="#222222"></path>
                <g id="Group-13" transform="translate(62.647687, 0.000000)" fill="#222222">
                    <path d="M4.95902847,13.5029032 C5.37841993,13.5029032 5.76416726,13.4111613 6.11685053,13.2282581 C6.46895374,13.0453548 6.77001068,12.7875484 7.02060142,12.4554194 C7.27119217,12.1232903 7.46435587,11.7267097 7.60009253,11.2656774 C7.73524911,10.8052258 7.80311744,10.2896129 7.80311744,9.72 C7.80311744,9.15096774 7.73524911,8.63245161 7.60009253,8.16445161 C7.46435587,7.69645161 7.27119217,7.29348387 7.02060142,6.9543871 C6.77001068,6.61529032 6.46895374,6.35458065 6.11685053,6.17167742 C5.76416726,5.98819355 5.37841993,5.89703226 4.95902847,5.89703226 C4.53847687,5.89703226 4.15272954,5.98819355 3.80062633,6.17167742 C3.44852313,6.35458065 3.14688612,6.61529032 2.89629537,6.9543871 C2.64570463,7.29348387 2.45254093,7.69645161 2.31738434,8.16445161 C2.18164769,8.63245161 2.11435943,9.15096774 2.11435943,9.72 C2.11435943,10.2896129 2.18164769,10.8052258 2.31738434,11.2656774 C2.45254093,11.7267097 2.64570463,12.1232903 2.89629537,12.4554194 C3.14688612,12.7875484 3.44852313,13.0453548 3.80062633,13.2282581 C4.15272954,13.4111613 4.53847687,13.5029032 4.95902847,13.5029032 Z M4.95902847,14.886 C4.34879359,14.886 3.76988256,14.7704516 3.2217153,14.5399355 C2.67296797,14.3094194 2.18860854,13.9738065 1.76921708,13.5336774 C1.34866548,13.0929677 1.01338434,12.5506452 0.763373665,11.9067097 C0.512782918,11.2621935 0.387487544,10.5334839 0.387487544,9.72 C0.387487544,8.89316129 0.512782918,8.15806452 0.763373665,7.51354839 C1.01338434,6.8696129 1.34866548,6.32380645 1.76921708,5.87670968 C2.18860854,5.42903226 2.67296797,5.09051613 3.2217153,4.86 C3.76988256,4.62948387 4.34879359,4.51393548 4.95902847,4.51393548 C5.5681032,4.51393548 6.14701423,4.62948387 6.69576157,4.86 C7.2445089,5.09051613 7.72828826,5.42903226 8.14825979,5.87670968 C8.56823132,6.32380645 8.90293238,6.8696129 9.1541032,7.51354839 C9.40469395,8.15806452 9.52940925,8.89316129 9.52940925,9.72 C9.52940925,10.5334839 9.40469395,11.2621935 9.1541032,11.9067097 C8.90293238,12.5506452 8.56823132,13.0929677 8.14825979,13.5336774 C7.72828826,13.9738065 7.2445089,14.3094194 6.69576157,14.5399355 C6.14701423,14.7704516 5.5681032,14.886 4.95902847,14.886 L4.95902847,14.886 Z" id="Fill-10"></path>
                    <path d="M13.4506904,14.886 C12.8137722,14.886 12.3601566,14.6955484 12.0898434,14.3163871 C11.8183701,13.9366452 11.6832135,13.3809677 11.6832135,12.6487742 L11.6832135,0.162 L13.3491779,0.162 L13.3491779,12.7707097 C13.3491779,13.041871 13.3961637,13.2317419 13.4912954,13.3403226 C13.585847,13.4489032 13.6949004,13.5029032 13.8167153,13.5029032 C13.8706619,13.5029032 13.9211281,13.5029032 13.968694,13.5029032 C14.0162598,13.5029032 14.0870285,13.4895484 14.1821601,13.4616774 L14.4054875,14.7228387 C14.2970142,14.7768387 14.1688185,14.8174839 14.0197402,14.8447742 C13.8706619,14.8720645 13.6809786,14.886 13.4506904,14.886" id="Fill-12"></path>
                </g>
                <path d="M81.9495552,14.886 C80.8932456,14.886 80.1240712,14.5602581 79.6437722,13.9093548 C79.1623132,13.2584516 78.9221637,12.2963226 78.9221637,11.0218065 L78.9221637,4.75780645 L80.6084306,4.75780645 L80.6084306,10.7982581 C80.6084306,11.7330968 80.7540285,12.4083871 81.0458043,12.8212258 C81.3364199,13.2352258 81.8074377,13.4419355 82.4576975,13.4419355 C82.9722206,13.4419355 83.4258363,13.3095484 83.8185445,13.0453548 C84.2112527,12.7811613 84.6445658,12.3572903 85.1190641,11.7743226 L85.1190641,4.75780645 L86.7850285,4.75780645 L86.7850285,14.6415484 L85.4032989,14.6415484 L85.2611815,13.0964516 L85.200274,13.0964516 C84.7396975,13.6387742 84.2553381,14.0725161 83.7477758,14.3976774 C83.2396335,14.7228387 82.6404199,14.886 81.9495552,14.886" id="Fill-14" fill="#222222"></path>
                <path d="M92.7783238,14.886 C92.249879,14.886 91.8061246,14.8047097 91.4476406,14.6415484 C91.0885765,14.4789677 90.7973808,14.2554194 90.5734733,13.9703226 C90.3501459,13.6858065 90.1912064,13.3403226 90.0966548,12.9332903 C90.0015231,12.5268387 89.9539573,12.0791613 89.9539573,11.5914194 L89.9539573,6.12058065 L88.4910178,6.12058065 L88.4910178,4.86 L90.0357473,4.75780645 L90.2387722,1.99219355 L91.6402242,1.99219355 L91.6402242,4.75780645 L94.3015907,4.75780645 L94.3015907,6.12058065 L91.6402242,6.12058065 L91.6402242,11.6111613 C91.6402242,12.2214194 91.7521779,12.6929032 91.9755053,13.0250323 C92.1994128,13.3571613 92.5950214,13.5232258 93.1640712,13.5232258 C93.3398327,13.5232258 93.5300961,13.4959355 93.733121,13.4419355 C93.9361459,13.3879355 94.1188683,13.3269677 94.2812883,13.2584516 L94.6067082,14.5196129 C94.3352349,14.6148387 94.0405587,14.6990323 93.7226797,14.7739355 C93.4042206,14.8482581 93.0898221,14.886 92.7783238,14.886" id="Fill-15" fill="#222222"></path>
                <path d="M96.0899502,14.6415484 L97.7559146,14.6415484 L97.7559146,4.75780645 L96.0899502,4.75780645 L96.0899502,14.6415484 Z M96.9432349,2.7243871 C96.6178149,2.7243871 96.3440214,2.62277419 96.1201139,2.41954839 C95.8967865,2.21574194 95.7848327,1.95851613 95.7848327,1.64670968 C95.7848327,1.32096774 95.8967865,1.06025806 96.1201139,0.863419355 C96.3440214,0.66716129 96.6178149,0.568451613 96.9432349,0.568451613 C97.2680747,0.568451613 97.5424484,0.66716129 97.7657758,0.863419355 C97.9891032,1.06025806 98.1010569,1.32096774 98.1010569,1.64670968 C98.1010569,1.95851613 97.9891032,2.21574194 97.7657758,2.41954839 C97.5424484,2.62277419 97.2680747,2.7243871 96.9432349,2.7243871 L96.9432349,2.7243871 Z" id="Fill-16" fill="#222222"></path>
                <path d="M104.4801,13.5029032 C104.900071,13.5029032 105.285819,13.4111613 105.638502,13.2282581 C105.990025,13.0453548 106.291662,12.7875484 106.542253,12.4554194 C106.792843,12.1232903 106.985427,11.7267097 107.121164,11.2656774 C107.25632,10.8052258 107.324189,10.2896129 107.324189,9.72 C107.324189,9.15096774 107.25632,8.63245161 107.121164,8.16445161 C106.985427,7.69645161 106.792843,7.29348387 106.542253,6.9543871 C106.291662,6.61529032 105.990025,6.35458065 105.638502,6.17167742 C105.285819,5.98819355 104.900071,5.89703226 104.4801,5.89703226 C104.060128,5.89703226 103.673801,5.98819355 103.321698,6.17167742 C102.969594,6.35458065 102.668537,6.61529032 102.417947,6.9543871 C102.167356,7.29348387 101.974192,7.69645161 101.839036,8.16445161 C101.703299,8.63245161 101.636011,9.15096774 101.636011,9.72 C101.636011,10.2896129 101.703299,10.8052258 101.839036,11.2656774 C101.974192,11.7267097 102.167356,12.1232903 102.417947,12.4554194 C102.668537,12.7875484 102.969594,13.0453548 103.321698,13.2282581 C103.673801,13.4111613 104.060128,13.5029032 104.4801,13.5029032 Z M104.4801,14.886 C103.870445,14.886 103.291534,14.7704516 102.742786,14.5399355 C102.194619,14.3094194 101.71026,13.9738065 101.290288,13.5336774 C100.870317,13.0929677 100.535036,12.5506452 100.285025,11.9067097 C100.033854,11.2621935 99.9091388,10.5334839 99.9091388,9.72 C99.9091388,8.89316129 100.033854,8.15806452 100.285025,7.51354839 C100.535036,6.8696129 100.870317,6.32380645 101.290288,5.87670968 C101.71026,5.42903226 102.194619,5.09051613 102.742786,4.86 C103.291534,4.62948387 103.870445,4.51393548 104.4801,4.51393548 C105.089754,4.51393548 105.668665,4.62948387 106.217413,4.86 C106.76558,5.09051613 107.24994,5.42903226 107.669911,5.87670968 C108.089302,6.32380645 108.424584,6.8696129 108.675174,7.51354839 C108.926345,8.15806452 109.05106,8.89316129 109.05106,9.72 C109.05106,10.5334839 108.926345,11.2621935 108.675174,11.9067097 C108.424584,12.5506452 108.089302,13.0929677 107.669911,13.5336774 C107.24994,13.9738065 106.76558,14.3094194 106.217413,14.5399355 C105.668665,14.7704516 105.089754,14.886 104.4801,14.886 L104.4801,14.886 Z" id="Fill-17" fill="#222222"></path>
                <path d="M111.204865,14.6415484 L111.204865,4.75780645 L112.586594,4.75780645 L112.728712,6.18154839 L112.789619,6.18154839 C113.263537,5.70716129 113.761238,5.31058065 114.282722,4.99180645 C114.803626,4.6736129 115.410381,4.51393548 116.101246,4.51393548 C117.143633,4.51393548 117.905267,4.83909677 118.386726,5.49058065 C118.867025,6.14090323 119.107754,7.1036129 119.107754,8.37812903 L119.107754,14.6415484 L117.44179,14.6415484 L117.44179,8.60167742 C117.44179,7.66625806 117.292712,6.99154839 116.995135,6.57812903 C116.696399,6.16470968 116.22306,5.958 115.572801,5.958 C115.057698,5.958 114.604082,6.08690323 114.211374,6.34412903 C113.818665,6.60193548 113.371431,6.98167742 112.870829,7.48335484 L112.870829,14.6415484 L111.204865,14.6415484" id="Fill-18" fill="#222222"></path>
                <path d="M124.45137,14.886 C123.746584,14.886 123.076601,14.7565161 122.439683,14.4992903 C121.802765,14.2420645 121.247637,13.9163226 120.773719,13.5232258 L121.606701,12.4049032 C122.040014,12.7573548 122.483769,13.041871 122.937384,13.2584516 C123.391,13.4756129 123.915964,13.5841935 124.512278,13.5841935 C125.161957,13.5841935 125.649797,13.4349677 125.975217,13.1365161 C126.300057,12.8386452 126.462477,12.4722581 126.462477,12.0385161 C126.462477,11.7812903 126.394609,11.5577419 126.259452,11.3672903 C126.123715,11.1774194 125.950854,11.0113548 125.741448,10.8690968 C125.530883,10.7268387 125.290733,10.602 125.01984,10.4928387 C124.748947,10.3848387 124.478053,10.2762581 124.20716,10.1676774 C123.855057,10.0457419 123.502954,9.9063871 123.150851,9.75077419 C122.798747,9.59516129 122.483769,9.40470968 122.206495,9.18116129 C121.928641,8.9576129 121.701253,8.69632258 121.525491,8.39845161 C121.349149,8.10058065 121.261559,7.74058065 121.261559,7.32019355 C121.261559,6.92767742 121.339288,6.55780645 121.494747,6.21232258 C121.650786,5.86625806 121.874114,5.5683871 122.16531,5.31754839 C122.456505,5.06670968 122.812089,4.86987097 123.23206,4.7276129 C123.651452,4.58535484 124.12595,4.51393548 124.654395,4.51393548 C125.276811,4.51393548 125.849342,4.62251613 126.370826,4.83909677 C126.89231,5.05625806 127.343025,5.32103226 127.721811,5.63283871 L126.930014,6.69019355 C126.591253,6.43296774 126.239149,6.22219355 125.873125,6.0596129 C125.5071,5.89703226 125.108011,5.81574194 124.674698,5.81574194 C124.051701,5.81574194 123.594605,5.958 123.303409,6.24251613 C123.011633,6.5276129 122.866616,6.85974194 122.866616,7.23890323 C122.866616,7.47 122.927523,7.66974194 123.049338,7.83870968 C123.171153,8.00883871 123.333573,8.15806452 123.536598,8.2863871 C123.740203,8.41529032 123.973391,8.53025806 124.237324,8.63245161 C124.501836,8.73406452 124.77621,8.83916129 125.060445,8.94774194 C125.412548,9.08303226 125.768132,9.22529032 126.127196,9.37451613 C126.48568,9.52374194 126.808199,9.71012903 127.091854,9.93367742 C127.376669,10.1572258 127.610438,10.431871 127.79316,10.7576129 C127.975883,11.0827742 128.067534,11.4764516 128.067534,11.9369032 C128.067534,12.3439355 127.989224,12.7236774 127.833765,13.0755484 C127.677726,13.4285806 127.448018,13.7403871 127.1429,14.0109677 C126.838363,14.2827097 126.458996,14.4958065 126.005381,14.652 C125.551185,14.8076129 125.033181,14.886 124.45137,14.886" id="Fill-19" fill="#222222"></path>
                <polyline id="Fill-20" fill="#222222" points="130.850715 14.6415484 130.850715 1.30064516 132.536982 1.30064516 132.536982 6.89341935 138.733302 6.89341935 138.733302 1.30064516 140.439872 1.30064516 140.439872 14.6415484 138.733302 14.6415484 138.733302 8.35780645 132.536982 8.35780645 132.536982 14.6415484 130.850715 14.6415484"></polyline>
                <g id="Group-24" transform="translate(143.277580, 0.000000)" fill="#222222">
                    <path d="M3.09467972,14.886 C2.03837011,14.886 1.26919573,14.5602581 0.788896797,13.9093548 C0.308017794,13.2584516 0.0672882562,12.2963226 0.0672882562,11.0218065 L0.0672882562,4.75780645 L1.75413523,4.75780645 L1.75413523,10.7982581 C1.75413523,11.7330968 1.89915302,12.4083871 2.19092883,12.8212258 C2.48212456,13.2352258 2.95256228,13.4419355 3.60282206,13.4419355 C4.1173452,13.4419355 4.57096085,13.3095484 4.96366904,13.0453548 C5.35637722,12.7811613 5.79027046,12.3572903 6.26418861,11.7743226 L6.26418861,4.75780645 L7.93015302,4.75780645 L7.93015302,14.6415484 L6.54842349,14.6415484 L6.40630605,13.0964516 L6.34539858,13.0964516 C5.88482206,13.6387742 5.40046263,14.0725161 4.89290036,14.3976774 C4.38475801,14.7228387 3.78554448,14.886 3.09467972,14.886" id="Fill-21"></path>
                    <path d="M14.898548,13.4825806 C15.3045979,13.4825806 15.680484,13.3908387 16.0262064,13.2079355 C16.3713488,13.0250323 16.6695053,12.7678065 16.9200961,12.4350968 C17.1706868,12.1029677 17.367331,11.6930323 17.5094484,11.2047097 C17.6515658,10.7163871 17.7223345,10.1676774 17.7223345,9.55741935 C17.7223345,9.01567742 17.6747687,8.5203871 17.5802171,8.07270968 C17.4856655,7.6256129 17.3331068,7.24296774 17.123121,6.9236129 C16.9131352,6.60541935 16.642242,6.35806452 16.3104413,6.18154839 C15.9786406,6.0056129 15.582452,5.91735484 15.1224555,5.91735484 C14.3225374,5.91735484 13.4425694,6.36445161 12.4808114,7.25922581 L12.4808114,12.4455484 C12.9141246,12.8252903 13.3445374,13.0929677 13.7708897,13.2485806 C14.1978221,13.4047742 14.5737082,13.4825806 14.898548,13.4825806 Z M15.183363,14.886 C14.7227865,14.886 14.2448078,14.7739355 13.7505872,14.5503871 C13.2563665,14.3262581 12.7923096,14.0185161 12.3589964,13.6248387 L12.298089,13.6248387 L12.1559715,14.6415484 L10.814847,14.6415484 L10.814847,0.162 L12.4808114,0.162 L12.4808114,4.10748387 L12.4402064,5.89703226 C12.8874413,5.50393548 13.3747011,5.17529032 13.9025658,4.91051613 C14.4315907,4.64632258 14.9727972,4.51393548 15.5285053,4.51393548 C16.1648434,4.51393548 16.7269324,4.63296774 17.2147722,4.86987097 C17.702032,5.10735484 18.1115623,5.44645161 18.4439431,5.88658065 C18.7751637,6.32729032 19.0263345,6.85625806 19.1957153,7.47290323 C19.3650961,8.09012903 19.4497865,8.77819355 19.4497865,9.53709677 C19.4497865,10.377871 19.3343523,11.1303871 19.1040641,11.7946452 C18.8737758,12.4589032 18.5622776,13.0215484 18.1695694,13.4825806 C17.7762811,13.9436129 17.3226655,14.2925806 16.8081423,14.5294839 C16.2936192,14.7669677 15.7518327,14.886 15.183363,14.886 L15.183363,14.886 Z" id="Fill-23"></path>
                </g>
            </g>
        </g>
    </g>
</svg>