<svg width="32" height="32" viewBox="0 0 32 32" fill="none" xmlns="http://www.w3.org/2000/svg">
<g clip-path="url(#clip0_1161_11696)">
<rect width="32" height="32" rx="16" fill="#217260"/>
</g>
<circle cx="27" cy="27" r="4.5" fill="#8EC622" stroke="white"/>
<path d="M15.9113 7.672C21.5921 7.672 25.9194 11.9914 26.4355 17.2618C27.0312 23.346 21.5921 25.5219 15.9113 25.5219C10.2306 25.5219 4.95033 23.3057 5.54603 17.2618C6.06549 11.9917 10.2306 7.672 15.9113 7.672Z" fill="url(#paint0_linear_1161_11696)"/>
<path d="M21.9058 10.0905C22.2772 10.2849 22.478 10.6477 22.3538 10.9002C22.2297 11.1527 21.8273 11.1999 21.456 11.0055C21.0846 10.8111 20.8838 10.4483 21.008 10.1958C21.1321 9.94328 21.5344 9.89611 21.9058 10.0905Z" fill="#207260"/>
<path d="M21.9058 10.0905C22.2772 10.2849 22.478 10.6477 22.3538 10.9002C22.2297 11.1527 21.8273 11.1999 21.456 11.0055C21.0846 10.8111 20.8838 10.4483 21.008 10.1958C21.1321 9.94328 21.5344 9.89611 21.9058 10.0905Z" stroke="#E7E8EC" stroke-width="0.0397136"/>
<path d="M21.7896 10.3604L24.4007 5.01147" stroke="#C2C2C2" stroke-width="0.678821" stroke-linecap="round"/>
<path d="M15.9368 11.3656C19.8565 11.3656 22.9523 14.4275 23.3176 18.0631C23.7758 22.6209 19.8544 21.9696 15.9346 21.9696C12.0149 21.9696 8.24764 22.7418 8.74505 17.9624C9.12331 14.3282 12.0171 11.3656 15.9368 11.3656Z" fill="#207260"/>
<path d="M12.1685 15.2655C12.7771 15.2655 13.2706 16.181 13.2706 17.3104C13.2706 18.4397 12.7771 19.3552 12.1685 19.3552C11.5598 19.3552 11.0664 18.4397 11.0664 17.3104C11.0664 16.181 11.5598 15.2655 12.1685 15.2655Z" fill="white"/>
<path d="M19.9121 15.2655C20.5208 15.2655 21.0142 16.181 21.0142 17.3104C21.0142 18.4397 20.5208 19.3552 19.9121 19.3552C19.3035 19.3552 18.8101 18.4397 18.8101 17.3104C18.8101 16.181 19.3035 15.2655 19.9121 15.2655Z" fill="white"/>
<path d="M14.2236 19.0048C14.2236 19.0048 14.2832 20.8683 16.1696 20.7978C17.7086 20.7403 17.8376 19.0652 17.8376 19.0652L14.2236 19.0048Z" fill="white"/>
<path d="M26.476 17.5833C26.476 17.5833 26.788 19.2989 25.1853 20.5247C22.6039 22.499 18.8906 22.0961 18.8906 22.0961" stroke="#C2C2C2" stroke-width="0.678821" stroke-linecap="round"/>
<path d="M20.3696 22.1359H18.9399" stroke="#C2C2C2" stroke-width="1.58855" stroke-linecap="round"/>
<defs>
<linearGradient id="paint0_linear_1161_11696" x1="-0.768456" y1="17.5035" x2="23.2981" y2="17.4252" gradientUnits="userSpaceOnUse">
<stop stop-color="#A1C4C2"/>
<stop offset="0.5" stop-color="#E7E9ED"/>
<stop offset="1" stop-color="white"/>
</linearGradient>
<clipPath id="clip0_1161_11696">
<rect width="32" height="32" fill="white"/>
</clipPath>
</defs>
</svg>
