<svg width="19" height="16" viewBox="0 0 19 16" fill="none" xmlns="http://www.w3.org/2000/svg">
<path d="M5.91328 12.5316C5.38594 12.3418 4.79883 12.4227 4.34531 12.7566C4.05703 12.9676 3.56133 13.277 2.96016 13.5547C3.15703 13.0379 3.3082 12.4543 3.35742 11.818C3.39258 11.3645 3.24141 10.9145 2.94258 10.5699C2.12344 9.64531 1.6875 8.5625 1.6875 7.4375C1.6875 4.64258 4.61602 1.8125 9 1.8125C13.384 1.8125 16.3125 4.64258 16.3125 7.4375C16.3125 10.2324 13.384 13.0625 9 13.0625C7.88906 13.0625 6.84492 12.8691 5.91328 12.5316ZM0.924609 13.8992C0.868359 13.9941 0.808594 14.0891 0.745313 14.184L0.734766 14.2016C0.678516 14.2824 0.622266 14.3633 0.566016 14.4441C0.442969 14.6094 0.309375 14.7711 0.16875 14.9187C0.00703126 15.0805 -0.0386719 15.3195 0.0492187 15.5305C0.137109 15.7414 0.341016 15.8785 0.569531 15.8785C0.748828 15.8785 0.928125 15.868 1.10742 15.8504L1.13203 15.8469C1.28672 15.8293 1.44141 15.8082 1.59609 15.7801C1.62422 15.7766 1.65234 15.7695 1.68047 15.7625C2.30625 15.6395 2.90742 15.4285 3.4418 15.1965C4.24687 14.8449 4.93242 14.4266 5.35078 14.1207C6.46875 14.525 7.70625 14.75 9.01055 14.75C13.9816 14.75 18.0105 11.477 18.0105 7.4375C18.0105 3.39805 13.9711 0.125 9 0.125C4.02891 0.125 0 3.39805 0 7.4375C0 9.02305 0.622266 10.4891 1.67695 11.6879C1.61016 12.5492 1.27617 13.3156 0.924609 13.8992ZM5.0625 8.5625C5.36087 8.5625 5.64702 8.44397 5.858 8.233C6.06897 8.02202 6.1875 7.73587 6.1875 7.4375C6.1875 7.13913 6.06897 6.85298 5.858 6.642C5.64702 6.43103 5.36087 6.3125 5.0625 6.3125C4.76413 6.3125 4.47798 6.43103 4.267 6.642C4.05603 6.85298 3.9375 7.13913 3.9375 7.4375C3.9375 7.73587 4.05603 8.02202 4.267 8.233C4.47798 8.44397 4.76413 8.5625 5.0625 8.5625ZM10.125 7.4375C10.125 7.13913 10.0065 6.85298 9.7955 6.642C9.58452 6.43103 9.29837 6.3125 9 6.3125C8.70163 6.3125 8.41548 6.43103 8.2045 6.642C7.99353 6.85298 7.875 7.13913 7.875 7.4375C7.875 7.73587 7.99353 8.02202 8.2045 8.233C8.41548 8.44397 8.70163 8.5625 9 8.5625C9.29837 8.5625 9.58452 8.44397 9.7955 8.233C10.0065 8.02202 10.125 7.73587 10.125 7.4375ZM12.9375 8.5625C13.2359 8.5625 13.522 8.44397 13.733 8.233C13.944 8.02202 14.0625 7.73587 14.0625 7.4375C14.0625 7.13913 13.944 6.85298 13.733 6.642C13.522 6.43103 13.2359 6.3125 12.9375 6.3125C12.6391 6.3125 12.353 6.43103 12.142 6.642C11.931 6.85298 11.8125 7.13913 11.8125 7.4375C11.8125 7.73587 11.931 8.02202 12.142 8.233C12.353 8.44397 12.6391 8.5625 12.9375 8.5625Z" fill="white"/>
</svg>
