<svg width="26" height="17" viewBox="0 0 26 17" xmlns="http://www.w3.org/2000/svg" xmlns:xlink= "http://www.w3.org/1999/xlink">
  <g id="Desktop-1344" stroke="none" strokeWidth="1" fill="none" fillRule="evenodd">
    <g id="[E]&amp;[I]-9.0.2.2-Solution-Page---Internal-View---Contracts-Copy-7" transform="translate(-576.000000, -7249.000000)">
      <g id="Content-Block" transform="translate(40.000000, 395.000000)">
        <g id="Group-6" transform="translate(40.000000, 6679.000000)">
          <g id="Contract-Example-1-Copy" transform="translate(403.000000, 64.000000)">
            <g id="3.0-Icons-/-Actions-/-Preview" transform="translate(90.000000, 104.000000)">
              <rect id="bounds" x="4" y="4" width="24" height="24" />
              <g id="Group-4" transform="translate(2.666667, 6.666667)" fill="#FFFFFF">
                <path d="M13.2,0.886537143 C16.0290414,0.886537143 19.0358978,2.17448292 21.904727,4.58500829 C23.3882383,5.83088934 24.5628588,7.11678219 25.2385493,8.00000063 L25.4734219,8.31731672 C25.6695369,8.58782317 25.6940513,8.95273966 25.5467719,9.24711473 L25.4731337,9.36847571 L25.3987364,9.47086694 C24.6721166,10.4478729 23.5101029,11.7521794 21.9048677,13.1002687 C19.0357693,15.5110188 16.02911,16.7988581 13.2,16.7988581 C10.3709586,16.7988581 7.36410215,15.5109123 4.49527301,13.1003869 C3.01176166,11.8545059 1.83714117,10.568613 1.15640711,9.67856571 L0.925267342,9.36807848 C0.729152332,9.09757203 0.704637956,8.73265554 0.854507757,8.43474565 L0.929422369,8.31164303 L1.00126363,8.21452826 C1.7278834,7.23752232 2.88989707,5.93321578 4.49513226,4.58512653 C7.3642307,2.17437636 10.37089,0.886537143 13.2,0.886537143 Z M23.1293922,8.76073512 C22.3244444,7.8201382 21.3408256,6.83610729 20.217744,5.93572208 L19.7279991,5.55533437 C17.5652672,3.92901077 15.3576851,2.9950909 13.200942,2.9950909 C11.0411862,2.9950909 8.83254722,3.92884156 6.67048374,5.55476755 C5.34219324,6.55367534 4.18763625,7.68748153 3.27233823,8.75881592 L3.2032,8.84106667 L3.2704708,8.92156471 C4.07257556,9.86026167 5.05789489,10.8465593 6.18185226,11.7479243 L6.67190635,12.1286373 C8.83442574,13.7549905 11.0424976,14.6890237 13.1999363,14.6890237 C15.3568946,14.6890237 17.564594,13.7550529 19.7271199,12.1286884 C21.0556019,11.1295809 22.2103434,9.99607622 23.1288405,8.92189332 L23.1953333,8.8396 L23.1293922,8.76073512 Z" id="Fill-1" />
                <path d="M13.2,3.9248 C15.9128263,3.9248 18.1176397,6.12991688 18.1161005,8.84190476 C18.1161005,11.553897 15.9113039,13.7590095 13.2,13.7590095 C10.487782,13.7590095 8.28289524,11.5541227 8.28289524,8.84190476 C8.28289524,6.12963348 10.4876677,3.9248 13.2,3.9248 Z M13.2,6.03478857 C11.6526827,6.03478857 10.3925486,7.29492272 10.3925486,8.84224 C10.3925486,10.3896205 11.6525783,11.6496914 13.2,11.6496914 C14.7473173,11.6496914 16.0074514,10.3895573 16.0074514,8.84224 C16.0074514,7.29492272 14.7473173,6.03478857 13.2,6.03478857 Z" id="Fill-2" />
              </g>
            </g>
          </g>
        </g>
      </g>
    </g>
  </g>
</svg>
