<svg viewBox="0 0 18 17" xmlns="http://www.w3.org/2000/svg" xmlns:xlink= "http://www.w3.org/1999/xlink">
  <title>Shape</title>
  <g fill="none" fillRule="evenodd">
    <g id="3.0-Icons-/-Header-/-Login" transform="translate(-3.000000, -4.000000)" fill="#FFFFFF">
      <path d="M12,14 C16.2832049,14 19.8675757,16.9920647 20.7770028,21.0000846 L18.9185855,21 C18.0519087,17.9965727 15.2824728,15.8 12,15.8 C8.71752715,15.8 5.94809134,17.9965727 5.08141447,21 L3.22299722,21.0000846 C4.1324243,16.9920647 7.71679507,14 12,14 Z M12,4 C14.4852814,4 16.5,6.01471863 16.5,8.5 C16.5,10.9852814 14.4852814,13 12,13 C9.51471863,13 7.5,10.9852814 7.5,8.5 C7.5,6.01471863 9.51471863,4 12,4 Z M12,5.8 C10.5088312,5.8 9.3,7.00883118 9.3,8.5 C9.3,9.99116882 10.5088312,11.2 12,11.2 C13.4911688,11.2 14.7,9.99116882 14.7,8.5 C14.7,7.00883118 13.4911688,5.8 12,5.8 Z" data-fill="true" />
    </g>
  </g>
</svg>