<svg width="1em" height="1em" viewBox="0 0 15 15" xmlns="http://www.w3.org/2000/svg" xmlns:xlink= "http://www.w3.org/1999/xlink">
  <g fill="none" fillRule="evenodd">
    <path d="M-5-5h24v24H-5z" />
    <path
      d="M6.308 1.315c-.3.027-.451.447-.394 1.096.016.184.105.453.258.779.066.137.25.466.363.664.065-.191.159-.467.2-.61.114-.39.168-.715.15-.918-.055-.633-.26-1.012-.548-1.012l-.029.001zm.543 5.261c-.253.654-.51 1.302-.757 1.914l-.48 1.157c.95-.277 1.798-.5 2.593-.687l.378-.086a12.64 12.64 0 01-.411-.467A17.222 17.222 0 016.85 6.576zm4.74 3.497c.31.263.586.444.78.51.257.089.485.135.672.135.182 0 .413-.045.484-.25.098-.285-.223-.595-.84-.807-.156-.053-.4-.082-.704-.082l-.112.002c-.151.003-.526.038-.755.06.143.133.36.334.476.432zm-8.253 1.445c-.187.053-.47.136-.614.185-.385.13-.682.273-.837.403-.273.23-.459.455-.534.652-.063.162-.05.297.035.4a.34.34 0 00.275.119c.157 0 .433-.075.85-.423.142-.12.315-.355.49-.659.073-.132.237-.47.335-.677zM.382 14.003c-.692-.825-.427-1.992.659-2.902.29-.244.702-.454 1.262-.643.263-.09.547-.17.847-.242.274-.066.545-.122.803-.168.239-.411.472-.955.73-1.583l.192-.47c.307-.754.625-1.564.937-2.373l.128-.334a5.116 5.116 0 01-.553-.787 9.068 9.068 0 01-.403-.75c-.224-.476-.349-.877-.38-1.225C4.481 1.113 5.12.1 6.194.006 6.247.002 6.298 0 6.35 0c1.002 0 1.726.867 1.844 2.213.033.376-.032.834-.196 1.4-.08.267-.178.546-.287.833-.09.22-.182.43-.275.635.078.066.166.222.277.406a16.86 16.86 0 001.47 2.079c.284.341.58.652.88.945.304-.095.615-.144.929-.182a9.17 9.17 0 01.849-.062l.15-.002c.456 0 .823.05 1.123.153 1.342.462 2.007 1.457 1.656 2.478-.248.715-.881 1.126-1.738 1.126-.344 0-.711-.065-1.09-.197-.362-.124-.752-.37-1.2-.75a9.878 9.878 0 01-.645-.6c-.171-.176-.331-.352-.482-.524-.283.103-.678.19-1.11.29a46.87 46.87 0 00-3.637 1l-.19.48a8.23 8.23 0 01-.535 1.125c-.26.457-.518.788-.785 1.015-.56.468-1.172.725-1.726.725-.497 0-.93-.2-1.25-.583z"
      fill="#FFF"
    />
  </g>
</svg>