<svg viewBox="0 0 200 200" xmlns="http://www.w3.org/2000/svg" xmlns:xlink= "http://www.w3.org/1999/xlink">
  <g fill="none" fillRule="evenodd">
    <circle fill="#E7E9ED" cx="100" cy="100" r="100" />
    <path d="M104.965 56c8.281 0 16.062 3.227 21.922 9.082 5.852 5.855 9.078 13.641 9.078 21.918 0 8.281-3.226 16.066-9.082 21.922-5.855 5.856-13.64 9.078-21.918 9.078-7.273 0-14.163-2.489-19.7-7.058l-7.8 7.799 2.355 2.355a2 2 0 010 2.828l-21.92 21.92a2 2 0 01-2.829 0l-8.485-8.485a2 2 0 010-2.828l21.92-21.92a2 2 0 012.829 0l1.888 1.888 7.801-7.8C71 94.534 71.673 76.453 83.044 65.082 88.898 59.227 96.683 56 104.964 56zM69.92 118.267l-17.678 17.678 4.243 4.243 17.677-17.678-4.242-4.243zM104.965 62V62c-6.675 0-12.957 2.602-17.68 7.324-9.746 9.746-9.746 25.61 0 35.355 4.723 4.72 11 7.32 17.68 7.32 6.676 0 12.953-2.601 17.676-7.324 4.723-4.718 7.325-10.996 7.325-17.676 0-6.68-2.602-12.953-7.325-17.676-4.722-4.722-11-7.324-17.676-7.324z" fill="#202025" fillOpacity=".45" />
  </g>
</svg>