<svg viewBox="0 0 154 155" xmlns="http://www.w3.org/2000/svg" xmlns:xlink= "http://www.w3.org/1999/xlink">
  <defs>
    <filter x="-15%" y="-14.9%" width="130.1%" height="129.9%" filterUnits="objectBoundingBox" id="soket_a">
      <feOffset dx="10" dy="10" in="SourceAlpha" result="shadowOffsetOuter1" />
      <feGaussianBlur stdDeviation=".5" in="shadowOffsetOuter1" result="shadowBlurOuter1" />
      <feColorMatrix values="0 0 0 0 0.141176471 0 0 0 0 0.164705882 0 0 0 0 0.2 0 0 0 0.05 0" in="shadowBlurOuter1" result="shadowMatrixOuter1" />
      <feMerge>
        <feMergeNode in="shadowMatrixOuter1" />
        <feMergeNode in="SourceGraphic" />
      </feMerge>
    </filter>
  </defs>
  <g filter="url(#soket_a)" fill="none" fillRule="evenodd">
    <rect fill="#FEFEFE" width="143" height="144" rx="5" />
    <path d="M118.384 21.642a3 3 0 013 3v94.716a3 3 0 01-3 3H24.616a3 3 0 01-3-3V24.642a3 3 0 013-3h93.768zm0 1H24.616a2 2 0 00-2 2v94.716a2 2 0 002 2h93.768a2 2 0 002-2V24.642a2 2 0 00-2-2z" fill="#DBDDE0" fillRule="nonzero" />
    <g transform="translate(54 52)" fill="#4E545C">
      <rect width="5" height="22" rx="1" />
      <rect x="30" y="1.833" width="5" height="18.333" rx="1" />
    </g>
    <path d="M72 82a6 6 0 016 6v6a1 1 0 01-1 1H67a1 1 0 01-1-1v-6a6 6 0 016-6z" fill="#4E545C" />
  </g>
</svg>