<svg width="100px" height="100px" viewBox="0 0 100 100">
  <g id="🖥-Desktop" stroke="none" strokeWidth="1" fill="none" fillRule="evenodd">
    <g id="5.0.4.-Submit-Solution---Success" transform="translate(-1018.000000, -211.000000)">
      <g id="Group" transform="translate(894.000000, 211.000000)">
        <g id="2.0-Icons-/-Status-/-Succcess" transform="translate(124.000000, 0.000000)">
          <g id="Icons-/-Request-Success-Copy-2">
            <g id="succes-icon">
              <rect id="Rectangle" fillOpacity="0.45" fill="#BBD600" x="0" y="0" width="100" height="100" rx="50" />
              <g id="Shape" fillRule="nonzero">
                <use fill="black" fillOpacity="1" filter="url(#filter-2)" />
                <use fill="#FFFFFF" />
              </g>
              <path d="M65.4596943,10.7075847 C60.8064708,8.95739326 55.765041,8 50.5,8 C27.0278981,8 8,27.0278981 8,50.5 C8,55.4591994 8.84939558,60.2200118 10.4106412,64.6448918 M23.9090958,83.6557437 C31.1894453,89.502095 40.4362329,93 50.5,93 C73.9721019,93 93,73.9721019 93,50.5 C93,39.5453816 88.855412,29.5587836 82.0487657,22.0227356" id="Shape" strokeOpacity="0.4" stroke="#BBD600" strokeWidth="1.07692308" />
              <circle id="Oval" fill="#BBD600" cx="20.5263158" cy="22.0647773" r="7.44939271" />
              <path d="M18.0859109,67.806441 L17.9210876,67.9023741 C17.4575543,68.2257316 17.2776711,68.8544251 17.5224016,69.3918574 L18.6061236,71.7736149 L13.8714933,70.0106635 C13.2668723,69.7853137 12.5983329,70.1045466 12.3782688,70.7236902 L12.3312572,70.8937762 C12.2173062,71.4635106 12.5249154,72.0479174 13.0745709,72.2527809 L17.8087654,74.0169581 L15.4828978,75.1299399 C14.8984249,75.4090304 14.6480868,76.1195733 14.9214132,76.7198025 C15.193336,77.3169495 15.8865018,77.5753011 16.4696422,77.2968468 L21.3513506,74.9657919 C21.9344911,74.6873377 22.1867828,73.9775226 21.9148599,73.3803755 L19.6384819,68.3814121 C19.3937513,67.8439798 18.807814,67.5809718 18.2679645,67.7367376 L18.0859109,67.806441 Z" id="Path" fill="#BBD600" fillRule="nonzero" transform="translate(17.165992, 72.550607) rotate(-15.000000) translate(-17.165992, -72.550607) " />
              <path d="M78.3443313,18.7736514 C78.5221625,18.5560247 78.4945192,18.2315684 78.2825883,18.0489579 L74.0615038,14.4118574 L77.443977,14.1079762 C77.6889579,14.0859671 77.8772636,13.886388 77.8991501,13.6435415 L77.898985,13.5465148 C77.8748728,13.2635044 77.6319053,13.0541513 77.3563018,13.0789115 L72.7649939,13.4913944 C72.4893905,13.5161546 72.2855165,13.7656519 72.3096287,14.0486623 L72.7113161,18.7633632 C72.7327491,19.014928 72.9271049,19.2082945 73.1635956,19.2307692 L73.2580829,19.2305997 C73.5336863,19.2058395 73.7375603,18.9563421 73.7134481,18.6733317 L73.4175201,15.1999534 L77.6386045,18.8370539 C77.8505355,19.0196643 78.1665002,18.9912781 78.3443313,18.7736514 Z" id="Path" stroke="#FFFFFF" strokeWidth="0.634817814" fill="#FFFFFF" fillRule="nonzero" />
              <path d="M18.5797435,19.8785425 L18.6928193,19.8852881 C19.1489167,19.9410333 19.4835852,20.328334 19.484875,20.776216 L19.4781294,20.8892919 L19.2151437,23.038864 L21.6694555,23.2622609 C22.1270598,23.3038613 22.4735566,23.6806169 22.4887095,24.1282444 L22.4854673,24.2414749 C22.443867,24.6990791 22.0671112,25.0455758 21.6194836,25.0607287 L21.5062531,25.0574865 L18.1263234,24.7502203 C17.6586691,24.7077063 17.3090081,24.3159376 17.3065233,23.8587548 L17.3132676,23.7432605 L17.6888153,20.670598 C17.7445606,20.2145008 18.1318613,19.8798323 18.5797435,19.8785425 Z M21.8186099,16.6396761 L21.9316857,16.6464217 C22.3877831,16.7021669 22.7224516,17.0894676 22.7237414,17.5373496 L22.7169958,17.6504255 L22.4540101,19.7999976 L24.9083219,20.0233945 C25.3659262,20.0649949 25.712423,20.4417505 25.7275759,20.889378 L25.7243337,21.0026085 C25.6827334,21.4602127 25.3059776,21.8067094 24.85835,21.8218623 L24.7451195,21.8186201 L21.3651898,21.5113539 C20.8975355,21.4688399 20.5478745,21.0770712 20.5453897,20.6198884 L20.552134,20.5043941 L20.9276817,17.4317316 C20.983427,16.9756344 21.3707277,16.6409659 21.8186099,16.6396761 Z" id="Shape" fill="#FFFFFF" fillRule="nonzero" />
              <path d="M68.3339283,67 L33.663445,67 C31.1034622,67 29,64.8898983 29,62.3159859 L29,40.6840141 C29,38.1127399 31.1008355,36 33.663445,36 L68.336555,36 C70.8965378,36 73,38.1101017 73,40.6840141 L73,62.2513479 C72.997435,64.8896345 70.8966035,67 68.333994,67 L68.3339283,67 Z M51.7220144,55.3262412 L66.9562236,47.6738907 C67.7437086,47.2771188 68.0720462,46.2877349 67.6796171,45.4324024 C67.2845875,44.6414441 66.2995484,44.3116582 65.4479719,44.7058183 L51.0011163,51.9611065 L36.5542608,44.7058183 C35.7667758,44.3090463 34.7817629,44.6388322 34.3226156,45.4324024 C33.927586,46.2233608 34.2559237,47.2127182 35.0460091,47.6738907 L50.2802183,55.3262412 C50.5418639,55.457641 50.7393787,55.5246271 51.0036117,55.5246271 C51.2601288,55.5246271 51.5243355,55.457641 51.7218831,55.3262412 L51.7220144,55.3262412 Z" fill="#FFFFFF" id="path-1" />
              <g id="Icons-/-Request-Success" transform="translate(62.307692, 53.846154)">
                <circle id="Oval" fill="#BBD600" cx="10.7692308" cy="10.7692308" r="10.7692308" />
                <polyline id="Path-5" stroke="#FFFFFF" strokeWidth="1.34615385" points="6.73076923 10.9375 9.53525641 13.7980769 15.1442308 8.07692308" />
              </g>
            </g>
          </g>
        </g>
      </g>
    </g>
  </g>
</svg>
