<svg width="56" height="67" viewBox="0 0 56 67" fill="none" xmlns="http://www.w3.org/2000/svg" xmlns:xlink= "http://www.w3.org/1999/xlink">
  <path d="M48.0335 0.498588C46.7697 0.349729 45.4991 0.713956 44.5057 1.50921C43.5123 2.30489 42.8793 3.4652 42.7484 4.73136C42.6175 5.99699 42.9995 7.26224 43.8087 8.24432L38.3307 13.5195C37.2447 12.2717 35.5884 11.6772 33.9565 11.9503C32.3246 12.223 30.9518 13.3237 30.3306 14.8574L23.7469 9.85555C23.8084 8.49744 23.2856 7.17777 22.3109 6.22995C21.3359 5.28213 20.0024 4.79669 18.6462 4.89639C17.2904 4.99568 16.0415 5.67065 15.2157 6.75079C14.3898 7.83096 14.0653 9.21264 14.3243 10.5475L8.49154 16.8776C7.43717 15.6964 5.86361 15.1183 4.29519 15.3358C2.72719 15.5533 1.37015 16.5379 0.676859 17.9614C-0.0164 19.3849 0.045084 21.0604 0.840802 22.4292C1.63692 23.7978 3.06233 24.6803 4.64211 24.782C6.22243 24.8841 7.74917 24.192 8.71406 22.9368C9.67928 21.6812 9.95544 20.0278 9.45057 18.5268L15.1114 12.3834C15.1602 12.452 15.2107 12.5197 15.2631 12.5865C16.0433 13.5796 17.188 14.2187 18.4426 14.3622C19.4131 14.4765 20.3955 14.2885 21.2557 13.8244C22.1156 13.3599 22.8117 12.6414 23.2487 11.7672L29.9914 16.8894C30.0643 18.2582 30.724 19.5295 31.8016 20.3767C32.8791 21.2242 34.2702 21.5654 35.6174 21.3134C36.965 21.0613 38.1384 20.2399 38.8367 19.0601C39.5347 17.8804 39.6903 16.4569 39.2632 15.1543L45.2253 9.41266C46.4735 10.0854 47.9571 10.1655 49.2712 9.63234C50.585 9.09874 51.5924 8.00719 52.0187 6.65461C52.445 5.30203 52.2458 3.82957 51.4753 2.6392C50.7043 1.44885 49.4431 0.664197 48.0343 0.499615L48.0335 0.498588Z" fill="#4E5AC7" />
  <path d="M48.0335 0.498588C46.7697 0.349729 45.4991 0.713956 44.5057 1.50921C43.5123 2.30489 42.8793 3.4652 42.7484 4.73136C42.6175 5.99699 42.9995 7.26224 43.8087 8.24432L38.3307 13.5195C37.2447 12.2717 35.5884 11.6772 33.9565 11.9503C32.3246 12.223 30.9518 13.3237 30.3306 14.8574L23.7469 9.85555C23.8084 8.49744 23.2856 7.17777 22.3109 6.22995C21.3359 5.28213 20.0024 4.79669 18.6462 4.89639C17.2904 4.99568 16.0415 5.67065 15.2157 6.75079C14.3898 7.83096 14.0653 9.21264 14.3243 10.5475L8.49154 16.8776C7.43717 15.6964 5.86361 15.1183 4.29519 15.3358C2.72719 15.5533 1.37015 16.5379 0.676859 17.9614C-0.0164 19.3849 0.045084 21.0604 0.840802 22.4292C1.63692 23.7978 3.06233 24.6803 4.64211 24.782C6.22243 24.8841 7.74917 24.192 8.71406 22.9368C9.67928 21.6812 9.95544 20.0278 9.45057 18.5268L15.1114 12.3834C15.1602 12.452 15.2107 12.5197 15.2631 12.5865C16.0433 13.5796 17.188 14.2187 18.4426 14.3622C19.4131 14.4765 20.3955 14.2885 21.2557 13.8244C22.1156 13.3599 22.8117 12.6414 23.2487 11.7672L29.9914 16.8894C30.0643 18.2582 30.724 19.5295 31.8016 20.3767C32.8791 21.2242 34.2702 21.5654 35.6174 21.3134C36.965 21.0613 38.1384 20.2399 38.8367 19.0601C39.5347 17.8804 39.6903 16.4569 39.2632 15.1543L45.2253 9.41266C46.4735 10.0854 47.9571 10.1655 49.2712 9.63234C50.585 9.09874 51.5924 8.00719 52.0187 6.65461C52.445 5.30203 52.2458 3.82957 51.4753 2.6392C50.7043 1.44885 49.4431 0.664197 48.0343 0.499615L48.0335 0.498588Z" fill="#584EC7" />
  <path d="M42.2841 21.2786C42.2841 20.7264 42.7318 20.2786 43.2841 20.2786H54.3988C54.9511 20.2786 55.3988 20.7264 55.3988 21.2786V65.9997C55.3988 66.552 54.9511 66.9997 54.3988 66.9997H43.2841C42.7318 66.9997 42.2841 66.552 42.2841 65.9997V21.2786Z" fill="#4E5AC7" />
  <path d="M42.2841 21.2786C42.2841 20.7264 42.7318 20.2786 43.2841 20.2786H54.3988C54.9511 20.2786 55.3988 20.7264 55.3988 21.2786V65.9997C55.3988 66.552 54.9511 66.9997 54.3988 66.9997H43.2841C42.7318 66.9997 42.2841 66.552 42.2841 65.9997V21.2786Z" fill="#584EC7" />
  <path d="M23.4318 31.1147C23.4318 30.5624 23.8795 30.1147 24.4318 30.1147H35.5464C36.0987 30.1147 36.5464 30.5624 36.5464 31.1147V65.9997C36.5464 66.552 36.0987 66.9997 35.5464 66.9997H24.4318C23.8795 66.9997 23.4318 66.552 23.4318 65.9997V31.1147Z" fill="#4E5AC7" />
  <path d="M23.4318 31.1147C23.4318 30.5624 23.8795 30.1147 24.4318 30.1147H35.5464C36.0987 30.1147 36.5464 30.5624 36.5464 31.1147V65.9997C36.5464 66.552 36.0987 66.9997 35.5464 66.9997H24.4318C23.8795 66.9997 23.4318 66.552 23.4318 65.9997V31.1147Z" fill="#584EC7" />
  <path d="M3.75975 39.3113C3.75975 38.759 4.20747 38.3113 4.75975 38.3113H15.8744C16.4267 38.3113 16.8744 38.759 16.8744 39.3113V65.9997C16.8744 66.552 16.4267 66.9997 15.8744 66.9997H4.75975C4.20747 66.9997 3.75975 66.552 3.75975 65.9997V39.3113Z" fill="#4E5AC7" />
  <path d="M3.75975 39.3113C3.75975 38.759 4.20747 38.3113 4.75975 38.3113H15.8744C16.4267 38.3113 16.8744 38.759 16.8744 39.3113V65.9997C16.8744 66.552 16.4267 66.9997 15.8744 66.9997H4.75975C4.20747 66.9997 3.75975 66.552 3.75975 65.9997V39.3113Z" fill="#584EC7" />
</svg>