<svg width="68" height="43" viewBox="0 0 68 43" fill="none" xmlns="http://www.w3.org/2000/svg" xmlns:xlink= "http://www.w3.org/1999/xlink">
  <path d="M68 35.1752C68.0036 37.2494 67.1528 39.2396 65.6346 40.7073C64.1165 42.1749 62.0559 43 59.9065 43H11.5452C5.57669 43 0.473418 38.6166 0.0314432 32.8704C-0.168043 30.2907 0.58638 27.7263 2.16054 25.6321C3.73411 23.5379 6.02649 22.0503 8.62966 21.4326C7.86021 16.2896 9.33641 11.0695 12.7059 7.017C16.0753 2.96447 21.0361 0.441836 26.4055 0.0522898C30.7689 -0.262739 35.114 0.852376 38.7389 3.21666C42.3638 5.58146 45.0561 9.05729 46.3799 13.0817C47.4204 12.8006 48.4971 12.6666 49.5774 12.6836C53.2501 12.7341 56.6698 14.4983 58.7527 17.4181C60.8362 20.3379 61.3238 24.0503 60.0626 27.3796C62.1814 27.4181 64.2 28.2577 65.684 29.7174C67.1684 31.1775 67.9996 33.1412 67.9996 35.1865L68 35.1752Z" fill="#4E5AC7" />
  <path d="M68 35.1752C68.0036 37.2494 67.1528 39.2396 65.6346 40.7073C64.1165 42.1749 62.0559 43 59.9065 43H11.5452C5.57669 43 0.473418 38.6166 0.0314432 32.8704C-0.168043 30.2907 0.58638 27.7263 2.16054 25.6321C3.73411 23.5379 6.02649 22.0503 8.62966 21.4326C7.86021 16.2896 9.33641 11.0695 12.7059 7.017C16.0753 2.96447 21.0361 0.441836 26.4055 0.0522898C30.7689 -0.262739 35.114 0.852376 38.7389 3.21666C42.3638 5.58146 45.0561 9.05729 46.3799 13.0817C47.4204 12.8006 48.4971 12.6666 49.5774 12.6836C53.2501 12.7341 56.6698 14.4983 58.7527 17.4181C60.8362 20.3379 61.3238 24.0503 60.0626 27.3796C62.1814 27.4181 64.2 28.2577 65.684 29.7174C67.1684 31.1775 67.9996 33.1412 67.9996 35.1865L68 35.1752Z" fill="#584EC7" />
</svg>
