<svg width="68" height="68" viewBox="0 0 68 68" fill="none" xmlns="http://www.w3.org/2000/svg" xmlns:xlink= "http://www.w3.org/1999/xlink">
  <path fillRule="evenodd" clipRule="evenodd" d="M35.3074 47.0771C42.5296 47.0771 48.3843 52.8702 48.3843 60.0164V62.7694H22.2305V60.0164C22.2305 52.8702 28.0852 47.0771 35.3074 47.0771ZM16.9997 48.3848C19.3654 48.3848 21.5681 49.0882 23.4131 50.2989C21.1524 52.6914 19.7366 55.8512 19.6225 59.3313L19.6151 59.787V62.7694H5.23047V60.2458C5.23047 53.6952 10.4997 48.3848 16.9997 48.3848ZM17.6535 31.3848C21.6257 31.3848 24.8459 34.6049 24.8459 38.5771C24.8459 42.5493 21.6257 45.7694 17.6535 45.7694C13.6813 45.7694 10.4612 42.5493 10.4612 38.5771C10.4612 34.6049 13.6813 31.3848 17.6535 31.3848ZM35.3074 27.4617C39.6407 27.4617 43.1535 30.9746 43.1535 35.3079C43.1535 39.6412 39.6407 43.154 35.3074 43.154C30.9741 43.154 27.4612 39.6412 27.4612 35.3079C27.4612 30.9746 30.9741 27.4617 35.3074 27.4617ZM59.4403 5.23096C61.2051 5.23096 62.6492 6.58058 62.7619 8.28681L62.7689 8.50187V34.2176C62.7689 34.5067 62.652 34.7841 62.4439 34.9885C62.0467 35.3788 61.4233 35.4114 60.9884 35.0861L60.8748 34.9885L55.0031 29.2177L43.1136 29.2169C41.5036 26.595 38.6097 24.8463 35.3074 24.8463C32.1986 24.8463 29.4518 26.396 27.7969 28.7681C26.8791 28.2375 26.243 27.2869 26.1622 26.1851L26.1535 25.9468V8.50187C26.1535 6.76765 27.527 5.34866 29.2634 5.23791L29.4822 5.23096H59.4403ZM56.401 17.0002H32.5214L32.3888 17.009C31.8233 17.0845 31.3843 17.6372 31.3843 18.3079C31.3843 18.9785 31.8233 19.5312 32.3888 19.6068L32.5214 19.6156H56.401L56.5336 19.6068C57.0992 19.5312 57.5382 18.9785 57.5382 18.3079C57.5382 17.6372 57.0992 17.0845 56.5336 17.009L56.401 17.0002ZM56.401 10.4617H32.5214L32.3888 10.4705C31.8233 10.5461 31.3843 11.0988 31.3843 11.7694C31.3843 12.4401 31.8233 12.9928 32.3888 13.0683L32.5214 13.0771H56.401L56.5336 13.0683C57.0992 12.9928 57.5382 12.4401 57.5382 11.7694C57.5382 11.0988 57.0992 10.5461 56.5336 10.4705L56.401 10.4617Z" fill="#673FEF" />
</svg>