<svg width="61" height="66" viewBox="0 0 61 66" fill="none" xmlns="http://www.w3.org/2000/svg" xmlns:xlink= "http://www.w3.org/1999/xlink">
  <path d="M45.8884 52.8589V57.1915C45.8884 57.1915 49.4035 57.4777 49.403 55.0246C49.403 52.7297 46.5961 52.8335 45.982 52.8562C45.94 52.8578 45.9083 52.8589 45.8884 52.8589Z" fill="#584EC7" />
  <path d="M45.8884 46.6289V50.9618C45.8884 50.9618 49.403 51.2482 49.403 48.7951C49.403 46.4994 46.5964 46.6034 45.9821 46.6262C45.9401 46.6277 45.9083 46.6289 45.8884 46.6289Z" fill="#584EC7" />
  <path fillRule="evenodd" clipRule="evenodd" d="M46.5184 66C54.204 66 60.4343 59.7696 60.4343 52.0841C60.4343 44.3986 54.204 38.1682 46.5184 38.1682C38.8329 38.1682 32.6025 44.3986 32.6025 52.0841C32.6025 59.7696 38.8329 66 46.5184 66ZM50.3495 51.6372C50.6792 51.7924 50.9873 51.9846 51.274 52.2112C52.0876 52.8541 52.4995 53.7676 52.5 54.9259C52.5 56.2551 51.9136 57.5505 50.6934 58.3081C49.6928 58.9308 48.4302 59.0636 47.2289 59.0901V61.5H44.9302V59.097H41.5V57.2273H43.0752V46.7722H41.5V44.9246H44.9302V42.5H47.2289L47.2287 44.9252H47.4129C48.6322 44.9252 49.7379 45.1645 50.6781 45.9171C51.5436 46.6095 51.9561 47.7563 51.9561 48.7899C51.9561 50.4245 50.5047 51.7107 50.3495 51.6372Z" fill="#584EC7" />
  <path d="M29.4433 52.9578C29.5481 55.0391 30.0251 57.0224 30.809 58.8422H0.980995C0.439886 58.8422 0 58.4031 0 57.8613V53.9387C0 53.3976 0.439186 52.9578 0.980995 52.9578H29.4433Z" fill="#584EC7" />
  <path fillRule="evenodd" clipRule="evenodd" d="M51.9773 35.8776V25.4981H52.9583C53.5001 25.4981 53.9393 25.0582 53.9393 24.5171V22.5558H55.9005C56.4423 22.5558 56.8815 22.1159 56.8815 21.5748V19.6136H1.96157V21.5748C1.96157 22.1166 2.40145 22.5558 2.94256 22.5558H4.90381V24.5171C4.90381 25.0589 5.34369 25.4981 5.8848 25.4981H6.8658V46.093L5.8848 46.0924C5.34299 46.0924 4.90381 46.5322 4.90381 47.0734V49.0346H2.94256C2.40075 49.0346 1.96157 49.4745 1.96157 50.0156V51.9768L29.4217 51.9772C29.4468 47.877 30.9152 44.1192 33.3445 41.186V25.4982H34.3255C34.8673 25.4982 35.3065 25.0583 35.3065 24.5172V22.5559H42.1706V24.5172C42.1706 25.059 42.6105 25.4982 43.1516 25.4982H44.1326L44.1329 35.1525C44.9124 35.0437 45.7086 34.9874 46.5181 34.9874C48.427 34.9874 50.2629 35.3003 51.9773 35.8776ZM16.6729 24.5172V22.5559H23.5377V24.5172C23.5377 25.059 23.9776 25.4982 24.5187 25.4982H25.4997V46.0931H24.5187C23.9769 46.0931 23.5377 46.533 23.5377 47.0741V49.0354H16.6729V47.0741C16.6729 46.5323 16.233 46.0931 15.6919 46.0931H14.7109V25.4982H15.6919C16.2337 25.4982 16.6729 25.0583 16.6729 24.5172Z" fill="#584EC7" />
  <path d="M29.8232 0.0851697L58.2639 12.8346C58.6333 13.0029 58.8427 13.399 58.8434 13.7294V17.6519C58.8434 18.1937 58.4035 18.6329 57.8624 18.6329H0.981011C0.439202 18.6329 1.87056e-05 18.193 1.87056e-05 17.6519V13.7294C1.87056e-05 13.3942 0.214147 13.0002 0.580128 12.8346L29.0208 0.0851697C29.276 -0.0283899 29.5674 -0.0283899 29.8232 0.0851697Z" fill="#584EC7" />
</svg>
