<svg width="68" height="68" viewBox="0 0 68 68" fill="none" xmlns="http://www.w3.org/2000/svg" xmlns:xlink= "http://www.w3.org/1999/xlink">
  <path fillRule="evenodd" clipRule="evenodd" d="M43.6701 1.69263C43.9119 1.69469 44.0388 1.70462 44.0388 1.70462C44.0388 1.70462 44.0976 1.89474 44.2151 2.27497C43.2627 3.06676 42.1589 4.14729 40.9037 5.51656C40.1648 6.32248 39.1806 7.57342 38.2817 9.29013C37.6182 8.89392 36.7919 8.51455 36.3362 8.87486L32.8134 11.6573C32.1959 12.1445 31.2678 13.1828 31.5251 13.9289L32.5798 17.5775C32.0381 18.3823 31.9316 18.3811 31.5317 19.2664L27.5859 21.0163C26.8171 21.1775 26.3099 22.0928 26.2154 22.8802L25.6672 27.3476C25.5241 28.163 25.8973 29.2894 26.6358 29.6459L30.223 31.8848C30.397 32.8405 30.2736 32.6428 30.6194 33.6284L28.9855 37.5508C28.5555 38.2125 29.1227 39.3349 29.604 39.9572L32.3494 43.5097C32.8302 44.1324 33.766 44.576 34.505 44.3142L37.7245 43.3073C38.5197 43.8527 38.4602 43.8949 39.3354 44.2968L41.0237 48.0272C41.1229 48.5154 41.5415 48.8562 42.0324 49.0653C41.1902 51.4212 40.1442 53.6717 38.7962 55.4281C33.6288 62.1608 15.5906 69.4857 10.9873 64.5075C9.40388 62.7953 11.0593 57.7999 11.1388 56.8914C11.2111 56.0658 9.52353 55.3527 9.09853 54.2973C8.73702 53.3997 9.49577 52.1066 9.97386 51.7946C6.28471 51.5404 7.74747 48.8287 7.88858 47.2159C8.05343 45.3316 4.10664 44.815 3.27919 43.8706C2.91928 43.5826 2.48934 41.9882 3.92027 40.3427C5.35088 38.6975 9.95975 34.1484 10.2174 31.2031C10.4179 28.9113 9.25115 28.0393 9.40859 26.2398C9.46403 25.6061 9.54582 24.9722 9.65211 24.3399C11.8949 11.0127 27.3499 4.70053 38.7191 2.36727C40.9509 1.80978 42.6033 1.70376 43.4351 1.6932L43.6701 1.69263ZM48.1035 9.34291L48.2639 9.35444L52.0139 9.81536C52.5597 9.91506 53.0081 10.3078 53.1788 10.8357L53.2215 10.998L53.9205 14.4775C54.464 14.725 54.991 15.0067 55.4983 15.3209L55.9991 15.6458L59.3318 14.5331C59.8875 14.3389 60.4996 14.4863 60.9057 14.8982L61.0211 15.0297L63.2964 17.9418C63.6591 18.4055 63.7164 19.0324 63.4569 19.5494L63.3696 19.7009L61.4087 22.656C61.6148 23.2164 61.7851 23.7892 61.9184 24.3708L62.0395 24.9553L65.2468 26.4752C65.8136 26.7118 66.1754 27.2647 66.1755 27.8682L66.1664 28.0339L65.7172 31.692C65.6738 32.3118 65.2566 32.8355 64.6759 33.0233L64.5136 33.066L61.0338 33.765C60.7863 34.3084 60.5046 34.8354 60.1904 35.3427L59.8654 35.8434L61.0532 39.1851C61.2474 39.7408 61.1 40.3528 60.688 40.7588L60.5566 40.8742L57.6442 43.1494C57.1805 43.5121 56.5535 43.5694 56.0365 43.3099L55.885 43.2226L52.9297 41.2618C52.3692 41.4679 51.7964 41.6382 51.2147 41.7715L50.6302 41.8926L49.1101 45.0996C48.8174 45.7111 48.1532 46.0526 47.4856 45.935L43.8272 45.4859C43.2361 45.4152 42.7473 45.0049 42.5689 44.4472L42.528 44.2915L41.8291 40.812C41.2856 40.5645 40.7586 40.2828 40.2512 39.9686L39.7505 39.6437L36.4086 40.8313C35.8528 41.0256 35.2407 40.8782 34.8347 40.4662L34.7193 40.3348L32.4439 37.4227C32.0812 36.959 32.0239 36.332 32.2834 35.8151L32.3708 35.6636L34.2567 32.6993C34.0506 32.1388 33.8803 31.5661 33.7469 30.9844L33.6259 30.4L30.4186 28.88C29.8071 28.5873 29.4655 27.9232 29.5831 27.2556L30.0323 23.5975C30.1033 23.0065 30.5134 22.5177 31.0711 22.3392L31.2267 22.2984L34.7065 21.5995C34.954 21.056 35.2358 20.5291 35.55 20.0217L35.8749 19.521L34.7622 16.1886C34.5679 15.6329 34.7153 15.0208 35.1273 14.6148L35.2587 14.4994L38.1711 12.2242C38.6348 11.8616 39.2618 11.8043 39.7788 12.0637L39.9303 12.1511L42.8948 14.0369C43.4553 13.8308 44.0281 13.6605 44.6098 13.5272L45.1943 13.4061L46.7144 10.199C46.9722 9.66249 47.5179 9.33202 48.1035 9.34291ZM40.346 26.7204C39.8355 30.8781 42.7923 34.6624 46.9504 35.173C51.1084 35.6835 54.8931 32.7268 55.4036 28.5691C55.9141 24.4114 52.9572 20.627 48.7992 20.1165C44.6412 19.606 40.8565 22.5627 40.346 26.7204ZM48.3529 23.7509C50.5034 24.015 52.0327 25.9723 51.7686 28.1228C51.5046 30.2733 49.5471 31.8026 47.3966 31.5386C45.2461 31.2745 43.7169 29.3172 43.9809 27.1667C44.245 25.0162 46.2024 23.4869 48.3529 23.7509Z" fill="#673FEF" />
</svg>