<svg width="58" height="57" viewBox="0 0 58 57" fill="none" xmlns="http://www.w3.org/2000/svg" xmlns:xlink= "http://www.w3.org/1999/xlink">
  <path d="M32.4599 39.5567C36.8248 38.1024 39.973 33.9718 39.973 29.1033C39.973 23.0215 35.0602 18.0912 29 18.0912C22.9398 18.0912 18.027 23.0215 18.027 29.1033C18.027 34.2147 21.4972 38.5127 26.2022 39.7541L20.7099 57C8.73314 53.4208 0 42.2855 0 29.1033C0 13.03 12.9837 0 29 0C45.0163 0 58 13.03 58 29.1033C58 42.0423 49.5861 53.0093 37.9496 56.7942L32.4599 39.5567Z" fill="#4E5AC7" />
  <path d="M32.4599 39.5567C36.8248 38.1024 39.973 33.9718 39.973 29.1033C39.973 23.0215 35.0602 18.0912 29 18.0912C22.9398 18.0912 18.027 23.0215 18.027 29.1033C18.027 34.2147 21.4972 38.5127 26.2022 39.7541L20.7099 57C8.73314 53.4208 0 42.2855 0 29.1033C0 13.03 12.9837 0 29 0C45.0163 0 58 13.03 58 29.1033C58 42.0423 49.5861 53.0093 37.9496 56.7942L32.4599 39.5567Z" fill="#584EC7" />
</svg>