<svg width="68" height="68" viewBox="0 0 68 68" fill="none" xmlns="http://www.w3.org/2000/svg" xmlns:xlink= "http://www.w3.org/1999/xlink">
  <g clipPath="url(#clip0_1696_182298)">
    <path d="M56.3047 3.25036C56.5891 4.39103 57.6222 5.23453 58.8505 5.23076C60.2949 5.22632 61.4622 4.05178 61.4578 2.60735C61.4533 1.16292 60.2788 -0.00442568 58.8344 1.26141e-05C57.6253 0.00372761 56.6104 0.827242 56.3144 1.94263L50.5281 1.96041L50.5449 7.4305L45.1209 7.44717C44.7598 7.44828 44.4679 7.74192 44.469 8.10302C44.4701 8.46413 44.7638 8.75597 45.1249 8.75486L51.8566 8.73417L51.8398 3.26408L56.3047 3.25036Z" fill="#673FEF" />
    <path d="M56.2939 21.6228C56.5329 20.4287 57.5854 19.5274 58.8503 19.5235C60.2948 19.5191 61.4693 20.6864 61.4738 22.1309C61.4782 23.5753 60.3109 24.7498 58.8664 24.7543C57.695 24.7579 56.7011 23.9908 56.3649 22.9303L50.5583 22.9481L50.5415 17.4781L45.1174 17.4947C44.7563 17.4958 44.4627 17.204 44.4616 16.8429C44.4605 16.4818 44.7523 16.1881 45.1134 16.187L51.8451 16.1663L51.8619 21.6364L56.2939 21.6228Z" fill="#673FEF" />
    <path d="M58.8462 9.81576C57.6315 9.81949 56.6127 10.6508 56.322 11.7742L45.1234 11.8086C44.7623 11.8097 44.4705 12.1033 44.4716 12.4645C44.4727 12.8256 44.7663 13.1174 45.1274 13.1163L56.3205 13.0819C56.6105 14.2146 57.6397 15.0503 58.8623 15.0465C60.3067 15.0421 61.474 13.8675 61.4696 12.4231C61.4652 10.9787 60.2906 9.81132 58.8462 9.81576Z" fill="#673FEF" />
    <path d="M3.58421 38.2154C3.67704 38.2154 3.67704 38.2154 3.58421 38.2154C3.67662 38.2154 3.76902 38.3078 3.86186 38.3078H3.76945C4.60197 38.5854 8.20934 39.8805 20.0488 43.9502C21.4362 44.3203 22.7311 43.6726 23.286 42.6552L25.1363 39.2308V61.8951L4.23146 55.2353C3.86141 55.1429 3.58418 54.7729 3.58418 54.3104L3.58421 38.2154ZM4.23192 38.4006C4.32432 38.493 4.32432 38.493 4.23192 38.4006V38.4006Z" fill="#673FEF" />
    <path d="M49.4649 49.1286C46.0792 50.6506 43.3163 53.662 41.7519 57.4835L28.1012 61.8326L28.1154 39.2308L29.9511 42.1908C30.6912 43.3005 32.0786 42.8701 33.1887 42.5L45.058 38.6326C44.8286 39.43 44.7058 40.2726 44.7058 41.1439C44.7058 44.5948 46.6306 47.5945 49.4649 49.1286Z" fill="#673FEF" />
    <path d="M37.4381 15.798L35.6807 16.4453C35.4959 17.1854 35.1258 17.8327 34.8482 18.4804L35.6807 20.1454C35.8655 20.5154 35.7731 20.8855 35.4959 21.1627L33.7384 22.9201C33.4608 23.1978 32.9983 23.2902 32.7211 23.105L30.9636 22.2724C30.3164 22.6425 29.6686 22.9197 29.0214 23.105L28.3741 24.9548C28.2817 25.3249 27.9117 25.6021 27.4492 25.6021H24.9516C24.5816 25.6021 24.2115 25.3245 24.0267 24.9548L23.3794 23.105C22.6393 22.9201 21.992 22.6425 21.4372 22.2724L19.6798 23.105C19.3097 23.2898 18.9396 23.1974 18.6624 22.9201L16.905 21.1627C16.6273 20.885 16.5349 20.4226 16.7202 20.1454L17.5527 18.4804C17.1826 17.8331 16.9054 17.1854 16.6277 16.4453L14.8703 15.798C14.5002 15.7056 14.223 15.3355 14.223 14.9655V12.4679C14.223 12.0978 14.5007 11.7278 14.8703 11.6354L16.5353 11.0805C16.7201 10.3404 16.9978 9.60072 17.4602 8.86061L16.5336 7.10317C16.3488 6.73312 16.4412 6.36305 16.7184 6.08583L18.4759 4.32839C18.7535 4.05074 19.216 3.95833 19.4932 4.14357L21.0659 4.88369C21.806 4.42123 22.5456 4.14357 23.3782 3.95876L23.9331 2.3861C24.0255 2.01604 24.3955 1.73881 24.7656 1.73881H27.2631C27.6332 1.73881 28.0033 2.01647 28.1881 2.3861L28.7429 3.95876C29.5755 4.14357 30.3156 4.51363 31.0553 4.88369L32.5359 4.14315C32.906 3.95833 33.2761 4.05074 33.5533 4.32796L35.3107 6.08541C35.5884 6.36306 35.6808 6.82553 35.4955 7.10275L34.7554 8.67541C35.1255 9.41553 35.4027 10.1552 35.6803 10.8953L37.3453 11.4502C37.7154 11.5426 37.9926 11.9126 37.9926 12.2827V14.7802C37.993 15.2431 37.8082 15.6127 37.4381 15.798ZM26.0612 9.04542C23.6561 9.04542 21.6213 10.9876 21.6213 13.4853C21.6213 15.983 23.6564 17.9252 26.0612 17.9252C28.5588 17.9252 30.5011 15.983 30.5011 13.4853C30.5011 10.9882 28.5589 9.04542 26.0612 9.04542Z" fill="#673FEF" />
    <path d="M4.23178 24.6314C4.04697 24.6314 3.76932 24.9091 3.67691 25.0939L0.0693045 32.8635C-0.0231015 33.0487 -0.0231015 33.3259 0.0693045 33.6036C0.161706 33.8808 0.346518 34.066 0.62417 34.1584L20.7888 41.0959C21.3442 41.1883 21.7142 41.0035 21.8991 40.6334L26.2465 32.5863L30.5015 39.4313C30.6863 39.8014 31.2412 39.8938 31.5188 39.8014L47.3873 34.7059C48.692 33.4114 50.3882 32.5107 52.2827 32.1968C52.2716 32.1422 52.2568 32.0868 52.2384 32.0314L48.4458 24.2615C48.3534 24.0767 48.0762 23.8914 47.7985 23.799L37.531 21.209C37.4386 21.7638 37.1609 22.4115 36.6985 22.874L44.0984 24.8162L26.0617 29.9038L8.02391 25.4639L15.7015 23.1516L15.4242 22.7815C15.0542 22.4114 14.7765 21.949 14.6841 21.4865L4.23178 24.6314Z" fill="#673FEF" />
    <path d="M55.0843 50.1131C48.4723 50.1131 43.1108 56.2874 43.1108 63.9014H67.0588C67.0588 56.2851 61.6985 50.1131 55.0843 50.1131Z" fill="#673FEF" />
    <path d="M55.0849 33.5258C59.2934 33.5258 62.7045 36.936 62.7045 41.143C62.7045 45.3535 59.2939 48.7631 55.0849 48.7631C50.876 48.7631 47.4649 45.3528 47.4649 41.143C47.4649 36.9357 50.876 33.5258 55.0849 33.5258Z" fill="#673FEF" />
  </g>
  <defs>
    <clipPath id="clip0_1696_182298">
      <rect width="68" height="68" fill="white" />
    </clipPath>
  </defs>
</svg>